<?xml version="1.0" standalone="no"?>
<!DOCTYPE svg PUBLIC "-//W3C//DTD SVG 1.1//EN" "http://www.w3.org/Graphics/SVG/1.1/DTD/svg11.dtd" >
<svg>
<metadata>
Created by FontForge 20090914 at Sun Aug 15 14:11:06 2021
 By www-data
&#194;&#169; 2015 Microsoft Corporation. All Rights Reserved.
</metadata>
<defs>
<font id="LeelawadeeUI" horiz-adv-x="0" >
  <font-face 
    font-family="Leelawadee UI"
    font-weight="400"
    font-stretch="normal"
    units-per-em="2048"
    panose-1="2 11 5 2 4 2 4 2 2 3"
    ascent="1638"
    descent="-410"
    x-height="1024"
    cap-height="1434"
    bbox="-1646 -486.001 3139 2149"
    underline-thickness="119"
    underline-position="-119"
    unicode-range="U+0020-U+FB02"
  />
<missing-glyph horiz-adv-x="1322" 
d="M166 0v1398h990v-1398h-990zM314 148h694v1102h-694v-1102z" />
    <glyph glyph-name="uni1A15_uni1A17_afii61664_uni1A10.rlig" unicode="&#x1a15;&#x1a17;&#x200c;&#x1a10;" horiz-adv-x="2170" 
d="M1085 322c24 0 46.6709 11.998 68.0039 35.998s42.666 54 63.999 90s43.333 75.167 66 117.5s47.334 81.5 74.001 117.5s56.167 66 88.5 90s68.5 36 108.5 36c30.667 0 63 -11.833 97 -35.5s68.5 -54.834 103.5 -93.501s69.5 -83 103.5 -133s66.5 -101.5 97.5 -154.5
s59.667 -105.333 86 -157s49.166 -98.834 68.5 -141.501l-128 -94c-20 44.667 -42.333 91.667 -67 141s-50.334 97.666 -77.001 144.999s-53.667 92.5 -81 135.5s-53.666 80.833 -78.999 113.5s-49 58.667 -71 78s-40.667 29 -56 29s-30.333 -7 -45 -21
s-29.334 -32.333 -44.001 -55s-29.667 -48.667 -45 -78l-48.5 -89.5c-17 -30.333 -35.333 -60.166 -55 -89.499s-41 -55.333 -64 -78s-48 -41 -75 -55s-56.833 -21 -89.5 -21c-42.667 0 -80.667 12 -114 36s-63.833 54 -91.5 90s-52.834 75.167 -75.501 117.5l-64.5 117.5
c-20.333 36 -40.333 66 -60 90s-39.834 36 -60.501 36c-15.333 0 -34 -9.66699 -56 -29s-45.667 -45.333 -71 -78s-51.666 -70.5 -78.999 -113.5s-54.333 -88.167 -81 -135.5s-52.334 -95.666 -77.001 -144.999s-47 -96.333 -67 -141l-128 94
c19.333 42.667 42.166 89.834 68.499 141.501s55 104 86 157s63.5 104.5 97.5 154.5s68.5 94.333 103.5 133s69.5 69.834 103.5 93.501s66.333 35.5 97 35.5c30 0 57.833 -7 83.5 -21s49.5 -32.333 71.5 -55s42.5 -48.667 61.5 -78s37.167 -59.166 54.5 -89.499l50 -89.5
c16 -29.333 32 -55.333 48 -78s32.167 -41 48.5 -55s33.5 -21 51.5 -21zM1651 155.998l-130 -156l-100 85l130 157zM711.004 155.998l-130 -156l-100 85l130 157zM348.004 1075l-130 -156l-100 85l130 157z" />
    <glyph glyph-name=".notdef" horiz-adv-x="1322" 
d="M166 0v1398h990v-1398h-990zM314 148h694v1102h-694v-1102z" />
    <glyph glyph-name="space" unicode=" " horiz-adv-x="561" 
 />
    <glyph glyph-name="exclam" unicode="!" horiz-adv-x="582" 
d="M375 1434l-19 -1030h-135l-18 1030h172zM291 -18c-30.667 0 -56.834 10.667 -78.501 32s-32.5 47.333 -32.5 78s10.833 56.834 32.5 78.501s47.834 32.5 78.501 32.5c30 0 56 -10.833 78 -32.5s33 -47.834 33 -78.501s-11 -56.667 -33 -78s-48 -32 -78 -32z" />
    <glyph glyph-name="quotedbl" unicode="&#x22;" horiz-adv-x="803" 
d="M308 1434v-447h-145v447h145zM640 1434v-447h-145v447h145z" />
    <glyph glyph-name="numbersign" unicode="#" horiz-adv-x="1210" 
d="M1166 1032l-23 -106h-261l-63 -300h281l-27 -106h-275l-88 -397h-126l86 397h-250l-84 -397h-125l84 397h-262l20 106h265l61 300h-277l21 106h277l84 402h126l-84 -402h252l86 402h123l-84 -402h263zM758 926h-252l-66 -300h254z" />
    <glyph glyph-name="dollar" unicode="$" horiz-adv-x="1104" 
d="M616 8v-217h-104v209c-142 0 -257.333 28.667 -346 86v174c38.667 -34 91.5 -62.5 158.5 -85.5s129.5 -34.5 187.5 -34.5v512c-146.667 70.667 -241.667 135.834 -285 195.501s-65 130.167 -65 211.5c0 96.667 33 180.167 99 250.5s149.667 112.5 251 126.5v180h104v-176
c130.667 -4 221 -22.667 271 -56v-170c-68 53.333 -158.333 82 -271 86v-528c138.667 -66 233.5 -129.833 284.5 -191.5s76.5 -131.834 76.5 -210.501c0 -94.667 -31.833 -174.167 -95.5 -238.5s-152.167 -105.5 -265.5 -123.5zM512 828v465.999
c-56 -11.333 -100.333 -36.166 -133 -74.499s-49 -84.833 -49 -139.5c0 -57.333 13.333 -104.333 40 -141s74 -73.667 142 -111zM616 599.999v-452c128.667 28 193 97.333 193 208c0 92 -64.333 173.333 -193 244z" />
    <glyph glyph-name="percent" unicode="%" horiz-adv-x="1676" 
d="M404 715c-98.667 0 -177.333 32.5 -236 97.5s-88 151.833 -88 260.5c0 118.667 31 212.167 93 280.5s145.667 102.5 251 102.5c102 0 181.167 -31.667 237.5 -95s84.5 -152.333 84.5 -267s-31.5 -206.5 -94.5 -275.5s-145.5 -103.5 -247.5 -103.5zM418.001 1346
c-63.333 0 -113.333 -23.501 -150 -70.501s-55 -111.5 -55 -193.5c0 -80.667 18 -143.5 54 -188.5s85 -67.5 147 -67.5c62.667 0 111.667 23.333 147 70s53 111.334 53 194.001c0 80.667 -17.5 143.5 -52.5 188.5s-82.833 67.5 -143.5 67.5zM1364 1434l-920 -1444h-143
l919 1444h144zM1258 -22.001c-98.667 0 -177.333 32.667 -236 98s-88 152 -88 260c0 118.667 31.333 212.5 94 281.5s146 103.5 250 103.5c101.333 0 180.333 -32 237 -96s85 -153.667 85 -269c0 -114 -31.5 -205.5 -94.5 -274.5s-145.5 -103.5 -247.5 -103.5zM1272 607.999
c-64 0 -114.167 -23.332 -150.5 -69.999s-54.5 -111.334 -54.5 -194.001c0 -79.333 18 -141.5 54 -186.5s85 -67.5 147 -67.5c62.667 0 111.667 23.5 147 70.5s53 111.5 53 193.5c0 81.333 -17.5 144 -52.5 188s-82.833 66 -143.5 66z" />
    <glyph glyph-name="ampersand" unicode="&#x26;" horiz-adv-x="1639" 
d="M1445 -23c-38 0 -71.498 5.16797 -100.498 15.501s-55.833 25 -80.5 44s-48.5 42.167 -71.5 69.5s-47.167 58.333 -72.5 93c-26.667 -28.667 -57.5 -56.334 -92.5 -83.001s-73.833 -50.334 -116.5 -71.001s-89.334 -37.167 -140.001 -49.5s-105.667 -18.5 -165 -18.5
c-72 0 -138 9 -198 27s-111.333 44.5 -154 79.5s-75.834 78.167 -99.501 129.5s-35.5 110.333 -35.5 177c0 102 29 189.167 87 261.5s140 131.5 246 177.5c-20 14.667 -40 31.834 -60 51.501s-37.833 42 -53.5 67s-28.334 52.667 -38.001 83s-14.5 63.5 -14.5 99.5
c0 52.667 9.5 99.334 28.5 140.001s45.167 75 78.5 103s72.666 49.167 117.999 63.5s94.333 21.5 147 21.5c52 0 99.5 -7.16699 142.5 -21.5s80 -34.833 111 -61.5s55.167 -58.667 72.5 -96s26 -79 26 -125c0 -80 -22.833 -146.5 -68.5 -199.5
s-114.167 -98.167 -205.5 -135.5c46 -18 87.667 -40 125 -66s71.833 -55 103.5 -87s61.167 -66.333 88.5 -103l81 -114c54 75.333 94.667 158.333 122 249s41 185.667 41 285c0 25.333 -1.5 49.166 -4.5 71.499s-7.16699 44.5 -12.5 66.5h159
c5.33301 -22 8.5 -42.833 9.5 -62.5l3.5 -70.5c0 -60.667 -6.33301 -121.667 -19 -183s-29.667 -120.833 -51 -178.5s-46.166 -112.5 -74.499 -164.5s-58.166 -99.667 -89.499 -143c23.333 -32 44.666 -59.833 63.999 -83.5s38.833 -43.5 58.5 -59.5s40 -27.833 61 -35.5
s44.833 -11.5 71.5 -11.5c20 0 40.333 2.66699 61 8s42 12 64 20v-152c-24 -9.33301 -49.167 -16.333 -75.5 -21s-52.166 -7 -77.499 -7zM606.002 119.001c50.667 0 97.333 5.50195 140 16.502s82 25.667 118 44s68.667 39.666 98 63.999s56 49.833 80 76.5
c-40.667 63.333 -78.167 117.5 -112.5 162.5s-69 83.833 -104 116.5s-72.333 60.667 -112 84s-85.5 45 -137.5 65c-42 -16.667 -80.667 -35.167 -116 -55.5s-65.833 -44.333 -91.5 -72s-45.834 -59.834 -60.501 -96.501s-22 -79.667 -22 -129
c0 -45.333 8.33301 -85.333 25 -120s39.5 -63.5 68.5 -86.5s62.833 -40.333 101.5 -52s80.334 -17.5 125.001 -17.5zM856.001 1140c0 33.333 -6.16699 61.668 -18.5 85.001s-28 42.666 -47 57.999s-40.167 26.5 -63.5 33.5s-46.333 10.5 -69 10.5
c-65.333 0 -117.5 -17.667 -156.5 -53s-58.833 -83.333 -59.5 -144c0 -27.333 4.16699 -53 12.5 -77s20 -46.333 35 -67s32.5 -39 52.5 -55s41.333 -29.667 64 -41c84 29.333 146.667 63.5 188 102.5s62 88.167 62 147.5z" />
    <glyph glyph-name="quotesingle" unicode="'" horiz-adv-x="471" 
d="M308 1434v-447h-145v447h145z" />
    <glyph glyph-name="parenleft" unicode="(" horiz-adv-x="618" 
d="M596 -326h-146c-206.667 236 -310 527 -310 873c0 347.333 103.333 643 310 887h148c-209.333 -253.333 -314 -548.333 -314 -885c0 -334 104 -625.667 312 -875z" />
    <glyph glyph-name="parenright" unicode=")" horiz-adv-x="618" 
d="M170 -326h-146c208 249.333 312 541 312 875c0 336.667 -104.667 631.667 -314 885h148c208 -244 312 -539.667 312 -887c0 -346 -104 -637 -312 -873z" />
    <glyph glyph-name="asterisk" unicode="*" horiz-adv-x="854" 
d="M780 1104l-274 -56l190 -243l-110 -76l-156 265l-158 -265l-110 76l190 243l-276 56l45 125l262 -99l-23 304h138l-23 -304l263 99z" />
    <glyph glyph-name="plus" unicode="+" horiz-adv-x="1401" 
d="M1172 530h-404v-403h-133v403h-403v134h403v403h133v-403h404v-134z" />
    <glyph glyph-name="comma" unicode="," horiz-adv-x="444" 
d="M316 228l-160 -492h-117l117 492h160z" />
    <glyph glyph-name="hyphen" unicode="-" horiz-adv-x="819" 
d="M690 506h-546v129h546v-129z" />
    <glyph glyph-name="period" unicode="." horiz-adv-x="444" 
d="M223 -22c-30.667 0 -56.834 11 -78.501 33s-32.5 48.333 -32.5 79s10.833 57.167 32.5 79.5s47.834 33.5 78.501 33.5c31.333 0 58 -11.167 80 -33.5s33 -48.833 33 -79.5s-11 -57 -33 -79s-48.667 -33 -80 -33z" />
    <glyph glyph-name="slash" unicode="/" horiz-adv-x="798" 
d="M813 1434l-688 -1672h-153l686 1672h155z" />
    <glyph glyph-name="zero" unicode="0" horiz-adv-x="1104" 
d="M1020 723c0 -120 -10.833 -226.333 -32.5 -319s-53 -170.834 -94 -234.501s-91.333 -112 -151 -145s-127.5 -49.5 -203.5 -49.5c-72 0 -136.167 15.833 -192.5 47.5s-103.833 77.834 -142.5 138.501s-68 135.167 -88 223.5s-30 189.5 -30 303.5
c0 125.333 10.5 236 31.5 332s51.833 176.5 92.5 241.5s91.167 114 151.5 147s129.5 49.5 207.5 49.5c300.667 0 451 -245 451 -735zM852 707c0 408 -97 612 -291 612c-204.667 0 -307 -207.667 -307 -623c0 -387.333 100.333 -581 301 -581c198 0 297 197.333 297 592z" />
    <glyph glyph-name="one" unicode="1" horiz-adv-x="1104" 
d="M724 0h-164.001v1239c-12.667 -12.667 -31.167 -27.167 -55.5 -43.5s-51.666 -32.5 -81.999 -48.5s-62.333 -31 -96 -45s-66.5 -25 -98.5 -33v166c36 10 74.167 23.5 114.5 40.5s80 36 119 57s75.833 43 110.5 66s64.667 45.5 90 67.5h62v-1466z" />
    <glyph glyph-name="two" unicode="2" horiz-adv-x="1104" 
d="M772 1058c0 44 -6.83203 82.3311 -20.499 114.998s-32.334 59.834 -56.001 81.501s-51.5 37.834 -83.5 48.501s-66.667 16 -104 16c-32 0 -63.333 -4.33301 -94 -13s-60.5 -20.667 -89.5 -36s-57 -33.666 -84 -54.999s-52.167 -45 -75.5 -71v176
c46 44.667 97.5 78.834 154.5 102.501s126.5 35.5 208.5 35.5c58.667 0 113 -8.5 163 -25.5s93.333 -41.833 130 -74.5s65.5 -73 86.5 -121s31.5 -103 31.5 -165c0 -56.667 -6.5 -108 -19.5 -154s-32.667 -89.333 -59 -130s-59.5 -79.667 -99.5 -117s-87 -75.333 -141 -114
c-67.333 -48 -122.833 -89 -166.5 -123s-78.334 -65.833 -104.001 -95.5s-43.667 -59.334 -54 -89.001s-15.5 -63.834 -15.5 -102.501h714v-147h-885v71c0 61.333 6.66699 115.333 20 162s35.333 91 66 133s70.834 84 120.501 126s110.5 89.333 182.5 142
c52 37.333 95.5 73 130.5 107s63.167 68 84.5 102s36.5 68.5 45.5 103.5s13.5 72.167 13.5 111.5z" />
    <glyph glyph-name="three" unicode="3" horiz-adv-x="1104" 
d="M953 406c0 -64.667 -12.1689 -123.501 -36.502 -176.501s-58.666 -98.333 -102.999 -136s-97.5 -66.834 -159.5 -87.501s-130.333 -31 -205 -31c-136.667 0 -245.334 26 -326.001 78v176c96.667 -76 207.334 -114 332.001 -114c50 0 95.167 6.33301 135.5 19
s75 31 104 55s51.333 53 67 87s23.5 72.333 23.5 115c0 187.333 -133.333 281 -400 281h-119v139h113c236 0 354 88 354 264c0 162.667 -90 244 -270 244c-101.333 0 -196.333 -34 -285 -102v159c91.333 54.667 200 82 326 82c60 0 114.333 -8.33301 163 -25
s90.334 -40 125.001 -70s61.5 -66 80.5 -108s28.5 -88.333 28.5 -139c0 -188.667 -95.333 -310 -286 -364v-4c48.667 -5.33301 93.667 -17.166 135 -35.499s77 -42.166 107 -71.499s53.5 -63.833 70.5 -103.5s25.5 -83.5 25.5 -131.5z" />
    <glyph glyph-name="four" unicode="4" horiz-adv-x="1104" 
d="M850 1434v-946.999h184v-150h-184v-337h-162v337h-674v142c62.667 70.667 126 146.167 190 226.5s125.167 161.833 183.5 244.5s112.333 165.167 162 247.5s91.5 161.166 125.5 236.499h175zM199 487.001h489v702c-50 -87.333 -97.333 -165.333 -142 -234
s-87.167 -131 -127.5 -187s-78.833 -106.667 -115.5 -152z" />
    <glyph glyph-name="five" unicode="5" horiz-adv-x="1104" 
d="M969 438c0 -70 -12.0029 -133.33 -36.0029 -189.997s-58.167 -105.334 -102.5 -146.001s-97.833 -72 -160.5 -94s-132.334 -33 -209.001 -33c-133.333 0 -232.333 20 -297 60v174c97.333 -62.667 197 -94 299 -94c52 0 98.833 7.66699 140.5 23
s77.167 36.666 106.5 63.999s51.833 60.333 67.5 99s23.5 81 23.5 127c0 93.333 -31.333 166.5 -94 219.5s-153.667 79.5 -273 79.5c-19.333 0 -39.666 -0.333008 -60.999 -1s-42.666 -1.5 -63.999 -2.5s-42.166 -2.16699 -62.499 -3.5s-38.833 -3 -55.5 -5l49 719h663v-148
h-521l-29 -421c21.333 1.33301 44 2.5 68 3.5s45.333 1.5 64 1.5c76 0 144 -10 204 -30s110.833 -48.5 152.5 -85.5s73.334 -82.333 95.001 -136s32.5 -113.834 32.5 -180.501z" />
    <glyph glyph-name="six" unicode="6" horiz-adv-x="1104" 
d="M1022 455c0 -70 -11.3311 -134.33 -33.998 -192.997s-54 -109.334 -94 -152.001s-87.667 -75.834 -143 -99.501s-115.333 -35.5 -180 -35.5c-72 0 -136.5 15 -193.5 45s-105.333 73.167 -145 129.5s-69.834 125.166 -90.501 206.499s-31 173 -31 275
c0 124.667 13.833 237.834 41.5 339.501s67 188.667 118 261s112.5 128.166 184.5 167.499s152.333 59 241 59c98.667 0 178 -13.667 238 -41v-155c-74 38 -152 57 -234 57c-64 0 -121.667 -14.333 -173 -43s-95.333 -69.167 -132 -121.5s-64.834 -115.5 -84.501 -189.5
s-29.5 -156.333 -29.5 -247h4c66 119.333 175 179 327 179c62.667 0 119.167 -10.667 169.5 -32s93.333 -51.5 129 -90.5s63.167 -85.5 82.5 -139.5s29 -114 29 -180zM854.002 434.003c0 50 -6.33105 94.999 -18.998 134.999s-30.834 74 -54.501 102
s-52.834 49.5 -87.501 64.5s-74 22.5 -118 22.5c-40.667 0 -78.334 -7.66699 -113.001 -23s-64.667 -36.166 -90 -62.499s-45.166 -57 -59.499 -92s-21.5 -72.167 -21.5 -111.5c0 -49.333 7 -95.5 21 -138.5s33.667 -80.5 59 -112.5s55.5 -57.167 90.5 -75.5
s73.833 -27.5 116.5 -27.5c41.333 0 79 7.83301 113 23.5s63 37.5 87 65.5s42.667 61.5 56 100.5s20 82.167 20 129.5z" />
    <glyph glyph-name="seven" unicode="7" horiz-adv-x="1104" 
d="M1010 1339l-79.498 -141.999c-31 -56.667 -63.833 -120.334 -98.5 -191.001s-70 -146.667 -106 -228s-69.667 -165.333 -101 -252s-58.833 -174.5 -82.5 -263.5s-40.834 -176.5 -51.501 -262.5h-176c12 85.333 30.5 172.5 55.5 261.5s53.333 176.333 85 262
s65.167 168.167 100.5 247.5s69.666 152.333 102.999 219l91.5 176.5l66.5 119.5h-719v148h912v-95z" />
    <glyph glyph-name="eight" unicode="8" horiz-adv-x="1104" 
d="M90 400c0 38 6.00195 76.167 18.002 114.5s29.167 74.166 51.5 107.499s50 63.666 83 90.999s70.5 49 112.5 65c-62 34.667 -111.333 79.167 -148 133.5s-55 114.5 -55 180.5c0 52.667 10.167 101.334 30.5 146.001s48.5 83.334 84.5 116.001s78.667 58.167 128 76.5
s102.666 27.5 159.999 27.5c58 0 111.667 -9.33301 161 -28s92 -44.334 128 -77.001s64 -71.334 84 -116.001s30 -93 30 -145c0 -66 -18.333 -126.167 -55 -180.5s-85.334 -98.833 -146.001 -133.5c41.333 -16 78.333 -37.667 111 -65s60.167 -57.666 82.5 -90.999
s39.5 -69.166 51.5 -107.499s18 -76.5 18 -114.5c0 -62.667 -11.333 -120 -34 -172s-54.5 -96.5 -95.5 -133.5s-90 -65.833 -147 -86.5s-119.833 -31 -188.5 -31c-68 0 -130.333 10.333 -187 31s-105.667 49.5 -147 86.5s-73.5 81.5 -96.5 133.5s-34.5 109.333 -34.5 172z
M268.002 414c0 -44.667 6.83301 -84.998 20.5 -120.998s33 -66.667 58 -92s55.333 -44.833 91 -58.5s75.167 -20.5 118.5 -20.5c42 0 80.667 7 116 21s65.833 33.667 91.5 59s45.667 56 60 92s21.5 76 21.5 120c0 40 -6.83301 77.5 -20.5 112.5s-33.167 65.833 -58.5 92.5
s-55.666 47.667 -90.999 63s-75 23 -119 23c-41.333 0 -79.5 -7.16699 -114.5 -21.5s-65.333 -34.333 -91 -60s-45.834 -56.334 -60.501 -92.001s-22 -74.834 -22 -117.501zM319.002 1079c0 -34 6.16406 -65.499 18.4971 -94.499s29.333 -54.333 51 -76
s46.834 -38.667 75.501 -51s59.334 -18.5 92.001 -18.5s63.5 6.33301 92.5 19s54.167 29.834 75.5 51.501s38.333 47 51 76s19 60.167 19 93.5c0 34.667 -6.16699 66.667 -18.5 96s-29.166 54.666 -50.499 75.999s-46.5 38.166 -75.5 50.499s-60.167 18.5 -93.5 18.5
c-35.333 0 -67.5 -6.33301 -96.5 -19s-54 -29.834 -75 -51.501s-37.167 -47.167 -48.5 -76.5s-17 -60.666 -17 -93.999z" />
    <glyph glyph-name="nine" unicode="9" horiz-adv-x="1104" 
d="M1004 803c0 -131.333 -13.002 -248.17 -39.002 -350.503s-64 -189 -114 -260s-111 -125 -183 -162s-154 -55.5 -246 -55.5c-94.667 0 -178 16.667 -250 50v157c79.333 -44.667 164 -67 254 -67c64.667 0 122.5 13.333 173.5 40s94.167 65.5 129.5 116.5
s62.333 113.833 81 188.5s28 160.334 28 257.001h-4c-61.333 -123.333 -168 -185 -320 -185c-61.333 0 -117.666 10.833 -168.999 32.5s-95.666 52.334 -132.999 92.001s-66.333 86.834 -87 141.501s-31 115 -31 181c0 70.667 11.5 135.334 34.5 194.001
s55 109.167 96 151.5s89.667 75.166 146 98.499s117.833 35 184.5 35c72 0 135.833 -14.5 191.5 -43.5s102.5 -71.333 140.5 -127s67 -124.167 87 -205.5s30 -174.333 30 -279zM826.998 949.996c0 55.333 -7.16797 105.67 -21.501 151.003s-34.166 84.166 -59.499 116.499
s-55.5 57.333 -90.5 75s-73.167 26.5 -114.5 26.5c-39.333 0 -76 -7.83301 -110 -23.5s-63.5 -37.667 -88.5 -66s-44.667 -62 -59 -101s-21.5 -81.5 -21.5 -127.5c0 -50.667 6.83301 -96 20.5 -136s33.167 -73.833 58.5 -101.5s55.833 -48.834 91.5 -63.501
s75.167 -22 118.5 -22c38 0 73.833 7.16699 107.5 21.5s63 33.666 88 57.999s44.667 53 59 86s21.5 68.5 21.5 106.5z" />
    <glyph glyph-name="colon" unicode=":" horiz-adv-x="444" 
d="M223 824c-30.667 0 -56.834 11 -78.501 33s-32.5 48.333 -32.5 79s10.833 56.667 32.5 78s47.834 32 78.501 32c31.333 0 58 -10.667 80 -32s33 -47.333 33 -78s-11 -57 -33 -79s-48.667 -33 -80 -33zM223 -22c-30.667 0 -56.834 11 -78.501 33s-32.5 48.333 -32.5 79
s10.833 57.167 32.5 79.5s47.834 33.5 78.501 33.5c31.333 0 58 -11.167 80 -33.5s33 -48.833 33 -79.5s-11 -57 -33 -79s-48.667 -33 -80 -33z" />
    <glyph glyph-name="semicolon" unicode=";" horiz-adv-x="444" 
d="M226 824c-31.333 0 -57.833 11 -79.5 33s-32.5 48.333 -32.5 79s10.833 56.667 32.5 78s48.167 32 79.5 32c30.667 0 57 -10.667 79 -32s33 -47.333 33 -78s-11 -57 -33 -79s-48.333 -33 -79 -33zM316 228l-160 -492h-117l117 492h160z" />
    <glyph glyph-name="less" unicode="&#x3c;" horiz-adv-x="1401" 
d="M1132 127l-860 432v59l860 482v-150l-642 -356v-4l642 -314v-149z" />
    <glyph glyph-name="equal" unicode="=" horiz-adv-x="1401" 
d="M1172 744h-940v132h940v-132zM1172 318h-940v132h940v-132z" />
    <glyph glyph-name="greater" unicode="&#x3e;" horiz-adv-x="1401" 
d="M1132 559l-860 -432v149l644 312v6l-644 356v150l860 -482v-59z" />
    <glyph glyph-name="question" unicode="?" horiz-adv-x="918" 
d="M335 398c-6 17.333 -11.3359 39.8301 -16.0029 67.4971s-7 55.167 -7 82.5c0 42.667 8.5 81.167 25.5 115.5s38.167 66.5 63.5 96.5s53 58.833 83 86.5s57.667 55.667 83 84s46.5 58 63.5 89s25.5 65.167 25.5 102.5c0 32 -6.16699 60.333 -18.5 85
s-29.166 45.334 -50.499 62.001s-46 29.167 -74 37.5s-57.667 12.5 -89 12.5c-112.667 0 -210.334 -44.333 -293.001 -133v176c102 64 207.667 96 317 96c50.667 0 98.334 -6.66699 143.001 -20s83.834 -33.166 117.501 -59.499s60.167 -59.166 79.5 -98.499s29 -85 29 -137
c0 -49.333 -8.66699 -93.333 -26 -132s-39.166 -74.167 -65.499 -106.5s-54.833 -62.5 -85.5 -90.5s-59.167 -55.833 -85.5 -83.5s-48.166 -56.5 -65.499 -86.5s-26 -63 -26 -99c0 -30.667 3.66699 -58.5 11 -83.5s14.666 -46.167 21.999 -63.5h-161zM424.997 -18.0029
c-29.333 0 -55.333 10.667 -78 32c-22 21.333 -33 47.333 -33 78c0 31.333 11 57.333 33 78c22 22 48 33 78 33s56 -11 78 -33c22 -20.667 33 -46.667 33 -78c0 -30.667 -11 -56.667 -33 -78c-22.667 -21.333 -48.667 -32 -78 -32z" />
    <glyph glyph-name="at" unicode="@" horiz-adv-x="1956" 
d="M1164 420l-5.00098 0.00195312c-48.667 -158.667 -144.334 -238 -287.001 -238c-91.333 0 -164.833 33.667 -220.5 101s-83.5 158 -83.5 272c0 150.667 38.5 275.834 115.5 375.501s178.167 149.5 303.5 149.5c48 0 90.833 -12.333 128.5 -37s61.834 -55.667 72.501 -93
h4c1.33301 18.667 4.66602 57 9.99902 115h125c-31.333 -367.333 -47 -554.333 -47 -561c0 -138 39.667 -207 119 -207c72 0 131.833 39 179.5 117s71.5 179 71.5 303c0 183.333 -58 333 -174 449s-276.667 174 -482 174c-198 0 -361.667 -69.333 -491 -208
s-194 -312 -194 -520c0 -204.667 61.5 -369.834 184.5 -495.501s288.833 -188.5 497.5 -188.5c164.667 0 305.334 27.333 422.001 82v-124c-115.333 -49.333 -259.333 -74 -432 -74c-242.667 0 -438.167 73.167 -586.5 219.5s-222.5 337.833 -222.5 574.5
c0 244 77.833 446.333 233.5 607s354.5 241 596.5 241c226.667 0 414.334 -67.333 563.001 -202s223 -310.334 223 -527.001c0 -158.667 -39.167 -288.834 -117.5 -390.501s-173.833 -152.5 -286.5 -152.5c-146 0 -219.333 79.333 -220 238zM984.999 964.002
c-82.667 0 -149.499 -39.332 -200.499 -117.999s-76.5 -176.334 -76.5 -293.001c0 -78.667 17.167 -140.667 51.5 -186s80.166 -68 137.499 -68c82.667 0 148.167 41.167 196.5 123.5s72.5 191.5 72.5 327.5c0 142.667 -60.333 214 -181 214z" />
    <glyph glyph-name="A" unicode="A" horiz-adv-x="1321" 
d="M1298 0h-186l-152 402h-608l-143 -402h-187l550 1434h174zM905 553l-225 611c-7.33301 20 -14.666 52 -21.999 96h-4c-6.66699 -40.667 -14.334 -72.667 -23.001 -96l-223 -611h497z" />
    <glyph glyph-name="B" unicode="B" horiz-adv-x="1174" 
d="M188 0v1434h408c124 0 222.333 -30.333 295 -91s109 -139.667 109 -237c0 -81.333 -22 -152 -66 -212s-104.667 -102.667 -182 -128v-4c96.667 -11.333 174 -47.833 232 -109.5s87 -141.834 87 -240.501c0 -122.667 -44 -222 -132 -298s-199 -114 -333 -114h-418z
M356 1282v-463h172c92 0 164.333 22.167 217 66.5s79 106.833 79 187.5c0 139.333 -91.667 209 -275 209h-193zM356 668.001v-516h228c98.667 0 175.167 23.333 229.5 70s81.5 110.667 81.5 192c0 169.333 -115.333 254 -346 254h-193z" />
    <glyph glyph-name="C" unicode="C" horiz-adv-x="1268" 
d="M1164 60c-106 -56 -238 -83.9971 -396 -83.9971c-204 0 -367.333 65.667 -490 197s-184 303.666 -184 516.999c0 229.333 69 414.666 207 555.999s313 212 525 212c136 0 248.667 -19.667 338 -59v-179c-102.667 57.333 -216 86 -340 86
c-164.667 0 -298.167 -55 -400.5 -165s-153.5 -257 -153.5 -441c0 -174.667 47.833 -313.834 143.5 -417.501s221.167 -155.5 376.5 -155.5c144 0 268.667 32 374 96v-163z" />
    <glyph glyph-name="D" unicode="D" horiz-adv-x="1436" 
d="M188 0l-0.000976562 1434h396c505.333 0 758 -233 758 -699c0 -221.333 -70.167 -399.166 -210.5 -533.499s-328.166 -201.5 -563.499 -201.5h-380zM355.999 1282v-1130h214c188 0 334.333 50.333 439 151s157 243.334 157 428.001c0 367.333 -195.333 551 -586 551h-224
z" />
    <glyph glyph-name="E" unicode="E" horiz-adv-x="1036" 
d="M948 0h-760v1434h728v-152h-560v-477h518v-151h-518v-502h592v-152z" />
    <glyph glyph-name="F" unicode="F" horiz-adv-x="1000" 
d="M916 1282h-560v-496h518v-151h-518v-635h-168v1434h728v-152z" />
    <glyph glyph-name="G" unicode="G" horiz-adv-x="1405" 
d="M1260 98c-144 -81.333 -303.997 -122 -479.997 -122c-204.667 0 -370.167 66 -496.5 198s-189.5 306.667 -189.5 524c0 222 70.167 404.167 210.5 546.5s318.166 213.5 533.499 213.5c156 0 287 -25.333 393 -76v-186c-116 73.333 -253.333 110 -412 110
c-160.667 0 -292.334 -55.333 -395.001 -166s-154 -254 -154 -430c0 -181.333 47.667 -323.833 143 -427.5s224.666 -155.5 387.999 -155.5c112 0 209 22.333 291 67v402h-314v152h482v-650z" />
    <glyph glyph-name="H" unicode="H" horiz-adv-x="1454" 
d="M1266 0h-168v654h-742v-654h-168v1434h168v-629h742v629h168v-1434z" />
    <glyph glyph-name="I" unicode="I" horiz-adv-x="545" 
d="M356 0h-168v1434h168v-1434z" />
    <glyph glyph-name="J" unicode="J" horiz-adv-x="731" 
d="M555 514c0 -170 -36 -302.167 -108 -396.5s-168.333 -141.5 -289 -141.5c-56 0 -102 8 -138 24v166c36 -26 82.667 -39 140 -39c151.333 0 227 128.333 227 385v922h168v-920z" />
    <glyph glyph-name="K" unicode="K" horiz-adv-x="1188" 
d="M1186 0l-233.999 -0.000976562l-554 656c-20.667 24.667 -33.334 41.334 -38.001 50.001h-4v-706h-168v1434h168v-674h4c9.33301 14.667 22 31 38 49l536 625h209l-615 -688z" />
    <glyph glyph-name="L" unicode="L" horiz-adv-x="964" 
d="M932 0h-744v1434h168v-1282h576v-152z" />
    <glyph glyph-name="M" unicode="M" horiz-adv-x="1839" 
d="M1650 0l-167 -0.000976562v962c0 76 4.66699 169 14 279h-4c-16 -64.667 -30.333 -111 -43 -139l-490 -1102h-82l-489 1094c-14 32 -28.333 81 -43 147h-4c5.33301 -57.333 8 -151 8 -281v-960h-162v1434h222l440 -1000c34 -76.667 56 -134 66 -172h6
c28.667 78.667 51.667 137.334 69 176.001l449 996h210v-1434z" />
    <glyph glyph-name="N" unicode="N" horiz-adv-x="1532" 
d="M1344 0l-206 0.00195312l-738 1143c-18.667 28.667 -34 58.667 -46 90h-6c5.33301 -30.667 8 -96.334 8 -197.001v-1036h-168v1434h218l718 -1125c30 -46.667 49.333 -78.667 58 -96h4c-6.66699 41.333 -10 111.666 -10 210.999v1010h168v-1434z" />
    <glyph glyph-name="O" unicode="O" horiz-adv-x="1544" 
d="M766 -24c-203.333 0 -366.168 66.999 -488.501 200.999s-183.5 308.333 -183.5 523c0 230.667 62.333 414.667 187 552s294.334 206 509.001 206c198 0 357.5 -66.667 478.5 -200s181.5 -307.666 181.5 -522.999c0 -234 -62 -419 -186 -555s-290 -204 -498 -204z
M777.998 1306c-150.667 0 -273 -54.3311 -367 -162.998s-141 -251.334 -141 -428.001s45.833 -318.834 137.5 -426.501s211.167 -161.5 358.5 -161.5c157.333 0 281.333 51.333 372 154s136 246.334 136 431.001c0 189.333 -44 335.666 -132 438.999s-209.333 155 -364 155z
" />
    <glyph glyph-name="P" unicode="P" horiz-adv-x="1147" 
d="M356 542l0.000976562 -542h-168v1434h394c153.333 0 272.166 -37.333 356.499 -112s126.5 -180 126.5 -316s-46.833 -247.333 -140.5 -334s-220.167 -130 -379.5 -130h-189zM356.001 1282v-588h176c116 0 204.5 26.5 265.5 79.5s91.5 127.833 91.5 224.5
c0 189.333 -112 284 -336 284h-197z" />
    <glyph glyph-name="Q" unicode="Q" horiz-adv-x="1544" 
d="M766 -24c-202.667 0 -365.667 66.999 -489 200.999c-122 134 -183 308.333 -183 523c0 231.333 62.333 415.333 187 552c125.333 137.333 295 206 509 206c197.333 0 356.666 -66.667 477.999 -200s182 -307.666 182 -522.999c0 -234 -62 -419 -186 -555
c-29.333 -32.667 -60.666 -60.667 -93.999 -84l403 -289h-305l-270 202c-70.667 -22 -148 -33 -232 -33zM778 1306c-150.667 0 -273 -54.333 -367 -163s-141 -251.334 -141 -428.001c0 -176 45.667 -318.333 137 -427c92 -107.333 211.667 -161 359 -161
c157.333 0 281.333 51.333 372 154s136 246.334 136 431.001c0 190 -44 336.333 -132 439c-88 103.333 -209.333 155 -364 155z" />
    <glyph glyph-name="R" unicode="R" horiz-adv-x="1225" 
d="M1216 0l-199.999 0.00390625l-240 402c-22 37.333 -43.333 69.166 -64 95.499s-41.834 47.833 -63.501 64.5s-45 28.834 -70 36.501s-53.167 11.5 -84.5 11.5h-138v-610h-168v1434h428c62.667 0 120.5 -7.83301 173.5 -23.5s99 -39.5 138 -71.5s69.5 -71.833 91.5 -119.5
s33 -103.5 33 -167.5c0 -50 -7.5 -95.833 -22.5 -137.5s-36.333 -78.834 -64 -111.501s-61 -60.5 -100 -83.5s-82.833 -40.833 -131.5 -53.5v-4c24 -10.667 44.833 -22.834 62.5 -36.501s34.5 -29.834 50.5 -48.501s31.833 -39.834 47.5 -63.501l52.5 -82.5zM356.001 1282
v-520.001h228c42 0 80.833 6.33301 116.5 19s66.5 30.834 92.5 54.501s46.333 52.667 61 87s22 72.833 22 115.5c0 76.667 -24.833 136.5 -74.5 179.5s-121.5 64.5 -215.5 64.5h-230z" />
    <glyph glyph-name="S" unicode="S" horiz-adv-x="1088" 
d="M121 58l-0.000976562 198c22.667 -20 49.834 -38 81.501 -54s65 -29.5 100 -40.5s70.167 -19.5 105.5 -25.5s68 -9 98 -9c103.333 0 180.5 19.167 231.5 57.5s76.5 93.5 76.5 165.5c0 38.667 -8.5 72.334 -25.5 101.001s-40.5 54.834 -70.5 78.501
s-65.5 46.334 -106.5 68.001l-132.5 68.5c-50 25.333 -96.667 51 -140 77s-81 54.667 -113 86s-57.167 66.833 -75.5 106.5s-27.5 86.167 -27.5 139.5c0 65.333 14.333 122.166 43 170.499s66.334 88.166 113.001 119.499s99.834 54.666 159.501 69.999s120.5 23 182.5 23
c141.333 0 244.333 -17 309 -51v-189c-84.667 58.667 -193.334 88 -326.001 88c-36.667 0 -73.334 -3.83301 -110.001 -11.5s-69.334 -20.167 -98.001 -37.5s-52 -39.666 -70 -66.999s-27 -60.666 -27 -99.999c0 -36.667 6.83301 -68.334 20.5 -95.001
s33.834 -51 60.501 -73s59.167 -43.333 97.5 -64s82.5 -43.334 132.5 -68.001c51.333 -25.333 100 -52 146 -80s86.333 -59 121 -93s62.167 -71.667 82.5 -113s30.5 -88.666 30.5 -141.999c0 -70.667 -13.833 -130.5 -41.5 -179.5s-65 -88.833 -112 -119.5
s-101.167 -52.834 -162.5 -66.501s-126 -20.5 -194 -20.5c-22.667 0 -50.667 1.83301 -84 5.5s-67.333 9 -102 16s-67.5 15.667 -98.5 26s-55.833 21.833 -74.5 34.5z" />
    <glyph glyph-name="T" unicode="T" horiz-adv-x="1073" 
d="M1036 1282h-414v-1282h-168v1282h-413v152h995v-152z" />
    <glyph glyph-name="U" unicode="U" horiz-adv-x="1407" 
d="M1237 580c0 -402.667 -181.667 -604 -545 -604c-348 0 -522 193.667 -522 581v877h168v-866c0 -294 124 -441 372 -441c239.333 0 359 142 359 426v881h168v-854z" />
    <glyph glyph-name="V" unicode="V" horiz-adv-x="1272" 
d="M1254 1434l-531.001 -1434h-185l-520 1434h187l397 -1137c12.667 -36.667 22.334 -79 29.001 -127h4c5.33301 40 16.333 83 33 129l405 1135h181z" />
    <glyph glyph-name="W" unicode="W" horiz-adv-x="1913" 
d="M1888 1434l-404.998 -1434h-197l-295 1048c-12.667 44.667 -20.334 93.334 -23.001 146.001h-4c-4 -49.333 -12.667 -97.333 -26 -144l-297 -1050h-195l-420 1434h185l305 -1100c12.667 -46 20.667 -94 24 -144h5c3.33301 35.333 13.666 83.333 30.999 144l317 1100h161
l304 -1108c10.667 -38 18.667 -82.667 24 -134h4c2.66699 34.667 11.667 80.667 27 138l293 1104h182z" />
    <glyph glyph-name="X" unicode="X" horiz-adv-x="1208" 
d="M1178 0l-205 -0.00195312l-330 549c-10 16.667 -21 40.334 -33 71.001h-4c-6.66699 -15.333 -18 -39 -34 -71l-340 -549h-206l480 721l-442 713h206l293 -504c19.333 -33.333 36.333 -66.666 51 -99.999h4c21.333 44 40 78.667 56 104l305 500h193l-451 -711z" />
    <glyph glyph-name="Y" unicode="Y" horiz-adv-x="1132" 
d="M1120 1434l-473.001 -904v-530h-168v526l-461 908h191l321 -648c4 -8 15.667 -37.333 35 -88h3c6.66699 22.667 19.334 52 38.001 88l336 648h178z" />
    <glyph glyph-name="Z" unicode="Z" horiz-adv-x="1168" 
d="M1124 1394l-840 -1242h820v-152h-1071v47l833 1235h-766v152h1024v-40z" />
    <glyph glyph-name="bracketleft" unicode="[" horiz-adv-x="618" 
d="M568 -326h-368v1760h368v-119h-222v-1522h222v-119z" />
    <glyph glyph-name="backslash" unicode="\" horiz-adv-x="776" 
d="M798 -240h-151l-673 1674h155z" />
    <glyph glyph-name="bracketright" unicode="]" horiz-adv-x="618" 
d="M420 -326h-367v119h221v1522h-221v119h367v-1760z" />
    <glyph glyph-name="asciicircum" unicode="^" horiz-adv-x="1401" 
d="M1174 624h-150l-332 619h-6l-309 -619h-147l422 834h65z" />
    <glyph glyph-name="underscore" unicode="_" horiz-adv-x="850" 
d="M850 -297h-850v119h850v-119z" />
    <glyph glyph-name="grave" unicode="`" horiz-adv-x="549" 
d="M471 1218h-127l-262 328h168z" />
    <glyph glyph-name="a" unicode="a" horiz-adv-x="1042" 
d="M899 0l-164.001 0.000976562v160h-4c-71.333 -122.667 -176.333 -184 -315 -184c-102 0 -181.833 27 -239.5 81s-86.5 125.667 -86.5 215c0 191.333 112.667 302.666 338 333.999l307 43c0 174 -70.333 261 -211 261c-123.333 0 -234.666 -42 -333.999 -126v168
c100.667 64 216.667 96 348 96c240.667 0 361 -127.333 361 -382v-666zM734.999 518.001l-247 -34c-76 -10.667 -133.333 -29.5 -172 -56.5s-58 -74.833 -58 -143.5c0 -50 17.833 -90.833 53.5 -122.5s83.167 -47.5 142.5 -47.5c81.333 0 148.5 28.5 201.5 85.5
s79.5 129.167 79.5 216.5v102z" />
    <glyph glyph-name="b" unicode="b" horiz-adv-x="1204" 
d="M334 148h-4v-148h-164v1516h164v-672h4c80.667 136 198.667 204 354 204c131.333 0 234.166 -45.833 308.499 -137.5s111.5 -214.5 111.5 -368.5c0 -171.333 -41.667 -308.5 -125 -411.5s-197.333 -154.5 -342 -154.5c-135.333 0 -237.666 57.333 -306.999 172zM330 561
l0.000976562 -143c0 -84.667 27.5 -156.5 82.5 -215.5s124.833 -88.5 209.5 -88.5c99.333 0 177.166 38 233.499 114s84.5 181.667 84.5 317c0 114 -26.333 203.333 -79 268s-124 97 -214 97c-95.333 0 -172 -33.167 -230 -99.5s-87 -149.5 -87 -249.5z" />
    <glyph glyph-name="c" unicode="c" horiz-adv-x="946" 
d="M864 47c-78.667 -47.333 -172 -71 -280 -71c-146 0 -263.833 47.5 -353.5 142.5s-134.5 218.167 -134.5 369.5c0 168.667 48.333 304.167 145 406.5s225.667 153.5 387 153.5c90 0 169.333 -16.667 238 -50v-168c-76 53.333 -157.333 80 -244 80
c-104.667 0 -190.5 -37.5 -257.5 -112.5s-100.5 -173.5 -100.5 -295.5c0 -120 31.5 -214.667 94.5 -284s147.5 -104 253.5 -104c89.333 0 173.333 29.667 252 89v-156z" />
    <glyph glyph-name="d" unicode="d" horiz-adv-x="1206" 
d="M1040 0h-164v174h-4c-76 -132 -193.333 -198 -352 -198c-128.667 0 -231.5 45.833 -308.5 137.5s-115.5 216.5 -115.5 374.5c0 169.333 42.667 305 128 407s199 153 341 153c140.667 0 243 -55.333 307 -166h4v634h164v-1516zM876 463v150.999
c0 82.667 -27.333 152.667 -82 210s-124 86 -208 86c-100 0 -178.667 -36.667 -236 -110s-86 -174.666 -86 -303.999c0 -118 27.5 -211.167 82.5 -279.5s128.833 -102.5 221.5 -102.5c91.333 0 165.5 33 222.5 99s85.5 149.333 85.5 250z" />
    <glyph glyph-name="e" unicode="e" horiz-adv-x="1071" 
d="M989 471l-723.001 0.000976562c2.66699 -114 33.334 -202 92.001 -264s139.334 -93 242.001 -93c115.333 0 221.333 38 318 114v-154c-90 -65.333 -209 -98 -357 -98c-144.667 0 -258.334 46.5 -341.001 139.5s-124 223.833 -124 392.5
c0 159.333 45.167 289.166 135.5 389.499s202.5 150.5 336.5 150.5s237.667 -43.333 311 -130s110 -207 110 -361v-86zM820.999 610.001c-0.666992 94.667 -23.5 168.332 -68.5 220.999s-107.5 79 -187.5 79c-77.333 0 -143 -27.667 -197 -83
s-87.333 -127.666 -100 -216.999h553z" />
    <glyph glyph-name="f" unicode="f" horiz-adv-x="641" 
d="M672 1372c-32 18 -68.333 27.001 -109 27.001c-114.667 0 -172 -72.333 -172 -217v-158h240v-140h-240v-884h-163v884h-175v140h175v166c0 107.333 31 192.166 93 254.499s139.333 93.5 232 93.5c50 0 89.667 -6 119 -18v-148z" />
    <glyph glyph-name="g" unicode="g" horiz-adv-x="1206" 
d="M1040 82c0 -376 -179.999 -564 -539.999 -564c-126.667 0 -237.334 24 -332.001 72v164c115.333 -64 225.333 -96 330 -96c252 0 378 134 378 402v112h-4c-78 -130.667 -195.333 -196 -352 -196c-127.333 0 -229.833 45.5 -307.5 136.5s-116.5 213.167 -116.5 366.5
c0 174 41.833 312.333 125.5 415s198.167 154 343.5 154c138 0 240.333 -55.333 307 -166h4v142h164v-942zM876.001 463l-0.000976562 151.001c0 81.333 -27.5 151 -82.5 209s-123.5 87 -205.5 87c-101.333 0 -180.666 -36.833 -237.999 -110.5s-86 -176.834 -86 -309.501
c0 -114 27.5 -205.167 82.5 -273.5s127.833 -102.5 218.5 -102.5c92 0 166.833 32.667 224.5 98s86.5 149 86.5 251z" />
    <glyph glyph-name="h" unicode="h" horiz-adv-x="1159" 
d="M1016 0l-164 0.000976562v590c0 213.333 -79.333 320 -238 320c-80 0 -147.333 -30.833 -202 -92.5s-82 -140.834 -82 -237.501v-580h-164v1516h164v-662h4c78.667 129.333 190.667 194 336 194c230.667 0 346 -139 346 -417v-631z" />
    <glyph glyph-name="i" unicode="i" horiz-adv-x="496" 
d="M250 1284c-29.333 0 -54.333 10 -75 30s-31 45.333 -31 76s10.333 56.167 31 76.5s45.667 30.5 75 30.5c30 0 55.5 -10.167 76.5 -30.5s31.5 -45.833 31.5 -76.5c0 -29.333 -10.5 -54.333 -31.5 -75s-46.5 -31 -76.5 -31zM330 0h-164v1024h164v-1024z" />
    <glyph glyph-name="j" unicode="j" horiz-adv-x="496" 
d="M330 43c0 -168 -33.833 -297.5 -101.5 -388.5s-164.5 -136.5 -290.5 -136.5c-46.667 0 -92 10.667 -136 32v153c49.333 -30 96 -45 140 -45c149.333 0 224 119.333 224 358v1008h164v-981zM250 1284c-29.333 0 -54.333 10 -75 30s-31 45.333 -31 76
s10.333 56.167 31 76.5s45.667 30.5 75 30.5c30 0 55.5 -10.167 76.5 -30.5s31.5 -45.833 31.5 -76.5c0 -29.333 -10.5 -54.333 -31.5 -75s-46.5 -31 -76.5 -31z" />
    <glyph glyph-name="k" unicode="k" horiz-adv-x="1018" 
d="M1016 0h-230l-452 492h-4v-492h-164v1516h164v-961h4l430 469h215l-475 -494z" />
    <glyph glyph-name="l" unicode="l" horiz-adv-x="496" 
d="M330 0h-164v1516h164v-1516z" />
    <glyph glyph-name="m" unicode="m" horiz-adv-x="1764" 
d="M1620 0h-164v588c0 113.333 -17.5 195.333 -52.5 246s-93.833 76 -176.5 76c-70 0 -129.5 -32 -178.5 -96s-73.5 -140.667 -73.5 -230v-584h-164v608c0 201.333 -77.667 302 -233 302c-72 0 -131.333 -30.167 -178 -90.5s-70 -138.833 -70 -235.5v-584h-164v1024h164
v-162h4c72.667 124 178.667 186 318 186c70 0 131 -19.5 183 -58.5s87.667 -90.167 107 -153.5c76 141.333 189.333 212 340 212c225.333 0 338 -139 338 -417v-631z" />
    <glyph glyph-name="n" unicode="n" horiz-adv-x="1159" 
d="M1016 0h-164v584c0 217.333 -79.333 326 -238 326c-82 0 -149.833 -30.833 -203.5 -92.5s-80.5 -139.5 -80.5 -233.5v-584h-164v1024h164v-170h4c77.333 129.333 189.333 194 336 194c112 0 197.667 -36.167 257 -108.5s89 -176.833 89 -313.5v-626z" />
    <glyph glyph-name="o" unicode="o" horiz-adv-x="1200" 
d="M594 -24c-151.333 0 -272.169 47.832 -362.502 143.499s-135.5 222.5 -135.5 380.5c0 172 47 306.333 141 403s221 145 381 145c152.667 0 271.834 -47 357.501 -141s128.5 -224.333 128.5 -391c0 -163.333 -46.167 -294.166 -138.5 -392.499
s-216.166 -147.5 -371.499 -147.5zM605.997 909.999c-105.333 0 -188.667 -35.834 -250 -107.501s-92 -170.5 -92 -296.5c0 -121.333 31 -217 93 -287s145 -105 249 -105c106 0 187.5 34.333 244.5 103s85.5 166.334 85.5 293.001c0 128 -28.5 226.667 -85.5 296
s-138.5 104 -244.5 104z" />
    <glyph glyph-name="p" unicode="p" horiz-adv-x="1204" 
d="M334 148h-4v-619h-164v1495h164v-180h4c80.667 136 198.667 204 354 204c132 0 235 -45.833 309 -137.5s111 -214.5 111 -368.5c0 -171.333 -41.667 -308.5 -125 -411.5s-197.333 -154.5 -342 -154.5c-132.667 0 -235 57.333 -307 172zM330 561l0.000976562 -143
c0 -84.667 27.5 -156.5 82.5 -215.5s124.833 -88.5 209.5 -88.5c99.333 0 177.166 38 233.499 114s84.5 181.667 84.5 317c0 114 -26.333 203.333 -79 268s-124 97 -214 97c-95.333 0 -172 -33.167 -230 -99.5s-87 -149.5 -87 -249.5z" />
    <glyph glyph-name="q" unicode="q" horiz-adv-x="1206" 
d="M1040 -471h-163.999v647h-4c-71.333 -133.333 -188 -200 -350 -200c-128.667 0 -231.834 45.833 -309.501 137.5s-116.5 216.5 -116.5 374.5c0 170 42.667 305.833 128 407.5s200 152.5 344 152.5c140 0 241.333 -55.333 304 -166h4v142h164v-1495zM876.001 461
l0.000976562 149c0 84 -27.5 155 -82.5 213s-124.833 87 -209.5 87c-98.667 0 -176.667 -36.5 -234 -109.5s-86 -175.833 -86 -308.5c0 -118 27.667 -210.5 83 -277.5s126.666 -100.5 213.999 -100.5c96 0 172.5 32.833 229.5 98.5s85.5 148.5 85.5 248.5z" />
    <glyph glyph-name="r" unicode="r" horiz-adv-x="712" 
d="M700 858c-28.667 22 -70.001 33 -124.001 33c-70 0 -128.5 -33 -175.5 -99s-70.5 -156 -70.5 -270v-522h-164v1024h164v-211h4c23.333 72 59 128.167 107 168.5s101.667 60.5 161 60.5c42.667 0 75.334 -4.66699 98.001 -14v-170z" />
    <glyph glyph-name="s" unicode="s" horiz-adv-x="869" 
d="M104 37l-0.000976562 176c89.333 -66 187.666 -99 294.999 -99c144 0 216 48 216 144c0 27.333 -6.16699 50.5 -18.5 69.5s-29 35.833 -50 50.5s-45.667 27.834 -74 39.501l-91.5 36.5c-45.333 18 -85.166 36.167 -119.499 54.5s-63 39 -86 62s-40.333 49.167 -52 78.5
s-17.5 63.666 -17.5 102.999c0 48 11 90.5 33 127.5s51.333 68 88 93s78.5 43.833 125.5 56.5s95.5 19 145.5 19c88.667 0 168 -15.333 238 -46v-166c-75.333 49.333 -162 74 -260 74c-30.667 0 -58.334 -3.5 -83.001 -10.5s-45.834 -16.833 -63.501 -29.5
s-31.334 -27.834 -41.001 -45.501s-14.5 -37.167 -14.5 -58.5c0 -26.667 4.83301 -49 14.5 -67s23.834 -34 42.501 -48s41.334 -26.667 68.001 -38l91 -37c45.333 -17.333 86 -35.166 122 -53.499s66.667 -39 92 -62s44.833 -49.5 58.5 -79.5s20.5 -65.667 20.5 -107
c0 -50.667 -11.167 -94.667 -33.5 -132s-52.166 -68.333 -89.499 -93s-80.333 -43 -129 -55s-99.667 -18 -153 -18c-105.333 0 -196.666 20.333 -273.999 61z" />
    <glyph glyph-name="t" unicode="t" horiz-adv-x="694" 
d="M641 10c-38.667 -21.333 -89.667 -32 -153 -32c-179.333 0 -269 100 -269 300v606h-176v140h176v250l164 53v-303h258v-140h-258v-577c0 -68.667 11.667 -117.667 35 -147s62 -44 116 -44c41.333 0 77 11.333 107 34v-140z" />
    <glyph glyph-name="u" unicode="u" horiz-adv-x="1159" 
d="M994 0h-164v162h-4c-68 -124 -173.333 -186 -316 -186c-244 0 -366 145.333 -366 436v612h163v-586c0 -216 82.667 -324 248 -324c80 0 145.833 29.5 197.5 88.5s77.5 136.167 77.5 231.5v590h164v-1024z" />
    <glyph glyph-name="v" unicode="v" horiz-adv-x="981" 
d="M971 1024l-408.001 -1024h-161l-388 1024h180l260 -744c19.333 -54.667 31.333 -102.334 36 -143.001h4c6.66699 51.333 17.334 97.666 32.001 138.999l272 748h173z" />
    <glyph glyph-name="w" unicode="w" horiz-adv-x="1480" 
d="M1456 1024l-307.001 -1024h-170l-211 733c-8 28 -13.333 59.667 -16 95h-4c-2 -24 -9 -55 -21 -93l-229 -735h-164l-310 1024h172l212 -770c6.66699 -23.333 11.334 -54 14.001 -92h8c2 29.333 8 60.666 18 93.999l236 768h150l212 -772
c6.66699 -24.667 11.667 -55.334 15 -92.001h8c1.33301 26 7 56.667 17 92l208 772h162z" />
    <glyph glyph-name="x" unicode="x" horiz-adv-x="940" 
d="M914 1024l-344 -518l338 -506h-191l-201 332c-12.667 20.667 -27.667 46.667 -45 78h-4c-3.33301 -6 -19 -32 -47 -78l-205 -332h-189l349 502l-334 522h191l198 -350l43 -80h4l256 430h181z" />
    <glyph glyph-name="y" unicode="y" horiz-adv-x="991" 
d="M981 1024l-470.998 -1188c-84 -212 -202 -318 -354 -318c-42.667 0 -78.334 4.33301 -107.001 13v147c35.333 -12 67.666 -18 96.999 -18c82.667 0 144.667 49.333 186 148l82 194l-400 1022h182l277 -788c3.33301 -10 10.333 -36 21 -78h6c3.33301 16 10 41.333 20 76
l291 790h170z" />
    <glyph glyph-name="z" unicode="z" horiz-adv-x="926" 
d="M880 977l-606 -837h600v-140h-841v51l606 833h-549v140h790v-47z" />
    <glyph glyph-name="braceleft" unicode="{" horiz-adv-x="618" 
d="M555 -326c-204.667 2.66699 -307.001 105.998 -307.001 309.998v300c0 134.667 -52 205.334 -156 212.001v116c104 6.66699 156 78.667 156 216v292c0 206.667 102.333 311.334 307 314.001v-128c-106 -2.66699 -159 -68.667 -159 -198v-293c0 -140 -50 -226 -150 -258
v-4c100 -30 150 -115.333 150 -256v-289c0 -74 11.833 -126.833 35.5 -158.5s64.834 -48.167 123.501 -49.5v-126z" />
    <glyph glyph-name="bar" unicode="|" horiz-adv-x="490" 
d="M320 -482h-148v2048h148v-2048z" />
    <glyph glyph-name="braceright" unicode="}" horiz-adv-x="618" 
d="M528 496c-104 -6.66699 -156 -77.332 -156 -211.999v-300c0 -204 -102 -307.333 -306 -310v126c58 1.33301 99.167 18 123.5 50s36.5 84.667 36.5 158v289c0 140.667 49.667 226 149 256v4c-99.333 32 -149 118 -149 258v293c0 129.333 -53.333 195.333 -160 198v128
c204 -2.66699 306 -107.334 306 -314.001v-292c0 -137.333 52 -209.333 156 -216v-116z" />
    <glyph glyph-name="asciitilde" unicode="~" horiz-adv-x="1401" 
d="M1194 750c-4.66699 -98.667 -31.502 -175 -80.502 -229s-115.5 -81 -199.5 -81c-72.667 0 -161 36.333 -265 109c-64.667 44.667 -117.667 67 -159 67c-93.333 0 -142 -58.667 -146 -176h-135c3.33301 95.333 29.833 170.833 79.5 226.5s116.834 83.5 201.501 83.5
c70.667 0 149 -29.333 235 -88c88 -60 153.667 -90 197 -90c40.667 0 73.334 16.333 98.001 49s37.667 75.667 39 129h135z" />
    <glyph glyph-name="uni00A0" unicode="&#xa0;" horiz-adv-x="561" 
 />
    <glyph glyph-name="exclamdown" unicode="&#xa1;" horiz-adv-x="582" 
d="M291 826c-30.667 0 -56.834 10.667 -78.501 32s-32.5 47.333 -32.5 78s10.833 56.667 32.5 78s47.834 32 78.501 32c30 0 56 -10.667 78 -32s33 -47.333 33 -78s-11 -56.667 -33 -78s-48 -32 -78 -32zM379 -406h-172l19 1030h134z" />
    <glyph glyph-name="cent" unicode="&#xa2;" horiz-adv-x="1104" 
d="M952 209c-64 -39.333 -137.667 -62.334 -221 -69.001v-189h-125v191c-128.667 14.667 -231.167 68.334 -307.5 161.001s-114.5 208 -114.5 346c0 146 38.167 268.167 114.5 366.5s178.833 159.833 307.5 184.5v213h125v-203c82 -1.33301 155.667 -18.333 221 -51v-172
c-67.333 47.333 -141 73.333 -221 78v-785c81.333 8 155 36.667 221 86v-157zM606 290.999v761c-79.333 -20.667 -141.5 -65.167 -186.5 -133.5s-67.5 -152.5 -67.5 -252.5s22.667 -183 68 -249s107.333 -108 186 -126z" />
    <glyph glyph-name="sterling" unicode="&#xa3;" horiz-adv-x="1104" 
d="M1006 0h-900v135c145.333 46 218 150.333 218 313v187h-197v141h197v254c0 125.333 36.333 228 109 308s166.667 120 282 120c78 0 149 -13.667 213 -41v-155c-66.667 38 -137 57 -211 57c-152.667 0 -229 -102.333 -229 -307v-236h296v-141h-296v-156
c0 -161.333 -64.333 -274.333 -193 -339h711v-140z" />
    <glyph glyph-name="currency" unicode="&#xa4;" horiz-adv-x="1138" 
d="M1038 354l-92 -96l-137 138c-70 -50.667 -149.667 -76 -239 -76c-90.667 0 -170.667 25.333 -240 76l-138 -138l-92 96l138 134c-50.667 75.333 -76 154.333 -76 237c0 86 25.333 165 76 237l-138 136l92 96l138 -137c73.333 51.333 153.333 77 240 77
c86 0 165 -25.667 237 -77l139 137l92 -96l-137 -136c52 -74.667 78 -153.667 78 -237c0 -80.667 -26 -159.667 -78 -237zM570 1002c-77.333 0 -142.5 -27 -195.5 -81s-79.5 -118.667 -79.5 -194s26.833 -140 80.5 -194s118.5 -81 194.5 -81c75.333 0 140.166 27 194.499 81
s81.5 118.667 81.5 194s-27.667 140 -83 194s-119.666 81 -192.999 81z" />
    <glyph glyph-name="yen" unicode="&#xa5;" horiz-adv-x="1104" 
d="M1042 1434l-356.001 -656h285v-139h-334v-207h334v-139h-334v-293h-164v293h-344v139h344v207h-344v139h291l-352 656h192l250 -514c18.667 -38.667 34.334 -75.667 47.001 -111h4c8.66699 28 25 67 49 117l252 508h180z" />
    <glyph glyph-name="brokenbar" unicode="&#xa6;" horiz-adv-x="490" 
d="M320 715h-148v851h148v-851zM320 -482h-148v852h148v-852z" />
    <glyph glyph-name="section" unicode="&#xa7;" horiz-adv-x="918" 
d="M658 416c60 -49.333 90 -111.331 90 -185.998c0 -88 -33.333 -159.333 -100 -214s-151.667 -82 -255 -82c-87.333 0 -167 18.667 -239 56v158c86.667 -49.333 170 -74 250 -74c56 0 99.333 13.167 130 39.5s46 59.5 46 99.5c0 35.333 -11.833 65.166 -35.5 89.499
s-83.834 62.166 -180.501 113.499c-155.333 81.333 -233 187 -233 317c0 108.667 49 190 147 244c-70.667 55.333 -106 129.666 -106 222.999c0 84.667 31.167 154.334 93.5 209.001s144.5 82 246.5 82c86.667 0 159.667 -14.333 219 -43v-158
c-67.333 41.333 -141.666 62 -222.999 62c-112 0 -168 -48 -168 -144c0 -36.667 13.5 -70 40.5 -100s94.833 -71 203.5 -123c148.667 -71.333 223 -169 223 -293c0 -113.333 -49.667 -205.333 -149 -276zM398 905.002c-67.333 -34 -101 -87 -101 -159
c0 -48 18.833 -90.167 56.5 -126.5s103.5 -75.5 197.5 -117.5c58.667 45.333 88 102.666 88 171.999c0 48 -17.5 88.833 -52.5 122.5s-97.833 69.834 -188.5 108.501z" />
    <glyph glyph-name="dieresis" unicode="&#xa8;" horiz-adv-x="848" 
d="M610 1218c-26.667 0 -49.668 9.33105 -69.001 27.998s-29 42.334 -29 71.001c0 28 9.33301 51.333 28 70s41.334 28 68.001 28c28 0 51.667 -9.5 71 -28.5s29 -42.167 29 -69.5s-9.33301 -50.666 -28 -69.999s-42 -29 -70 -29zM225.999 1218
c-28 0 -51.833 9.83105 -71.5 29.498s-29.5 42.834 -29.5 69.501c0 28 9.5 51.333 28.5 70s42.167 28 69.5 28s51 -9.5 71 -28.5s30 -42.167 30 -69.5s-9.66699 -50.666 -29 -69.999s-42.333 -29 -69 -29z" />
    <glyph glyph-name="copyright" unicode="&#xa9;" horiz-adv-x="1823" 
d="M912 -33c-207.333 0 -384.166 73.167 -530.499 219.5s-219.5 323.166 -219.5 530.499s73.167 384.166 219.5 530.499s323.166 219.5 530.499 219.5c206.667 0 383.167 -73.167 529.5 -219.5s219.5 -323.166 219.5 -530.499s-73.167 -384.166 -219.5 -530.499
s-322.833 -219.5 -529.5 -219.5zM912 1379c-182.667 0 -338.667 -64.667 -468 -194s-194 -285.333 -194 -468s64.667 -338.5 194 -467.5s285.333 -193.5 468 -193.5s338.5 64.5 467.5 193.5s193.5 284.833 193.5 467.5s-64.5 338.667 -193.5 468s-284.833 194 -467.5 194z
M1213 266c-76 -46 -165.666 -68.999 -268.999 -68.999c-139.333 0 -256 47.167 -350 141.5s-141 212.166 -141 353.499c0 164.667 48.167 296 144.5 394s221.5 147 375.5 147c88 0 166.667 -17.667 236 -53v-150c-63.333 48 -148 72 -254 72
c-104 0 -189.833 -35.5 -257.5 -106.5s-101.5 -166.5 -101.5 -286.5c0 -116 34.5 -209.167 103.5 -279.5s156.833 -105.5 263.5 -105.5c97.333 0 180.666 26 249.999 78v-136z" />
    <glyph glyph-name="ordfeminine" unicode="&#xaa;" horiz-adv-x="803" 
d="M688 717h-128.999v100h-4c-52.667 -79.333 -129.667 -119 -231 -119c-72.667 0 -131.167 19.833 -175.5 59.5s-66.5 90.5 -66.5 152.5c0 134.667 82.667 213 248 235l229 31c0 112 -50.333 168 -151 168c-90.667 0 -175.334 -28.667 -254.001 -86v128
c74 46.667 162.667 70 266 70c84 0 149.667 -24 197 -72s71 -115.333 71 -202v-465zM559.001 1075l-180.002 -25.001c-112 -15.333 -168 -60 -168 -134c0 -34 12.833 -61.667 38.5 -83s59.834 -32 102.501 -32c54.667 0 102.834 20.333 144.501 61s62.5 89.334 62.5 146.001
v67z" />
    <glyph glyph-name="guillemotleft" unicode="&#xab;" horiz-adv-x="1036" 
d="M946 200h-168l-299 336l299 344h170l-307 -344zM557 200h-166l-299 336l299 344h166l-303 -344z" />
    <glyph glyph-name="logicalnot" unicode="&#xac;" horiz-adv-x="1401" 
d="M1172 254h-132v430h-808v133h940v-563z" />
    <glyph glyph-name="uni00AD" unicode="&#xad;" horiz-adv-x="819" 
d="M690 506h-546v129h546v-129z" />
    <glyph glyph-name="registered" unicode="&#xae;" horiz-adv-x="1823" 
d="M912 255c-166 0 -307.5 58.333 -424.5 175s-175.5 258 -175.5 424s58.5 307.5 175.5 424.5s258.5 175.5 424.5 175.5c165.333 0 306.5 -58.5 423.5 -175.5s175.5 -258.5 175.5 -424.5s-58.5 -307.333 -175.5 -424s-258.167 -175 -423.5 -175zM913 1360
c-140 0 -259.5 -49.333 -358.5 -148s-148.5 -218 -148.5 -358c0 -139.333 49.5 -258.333 148.5 -357s218.5 -148 358.5 -148c139.333 0 258.166 49.333 356.499 148s147.5 217.667 147.5 357c0 140 -49.167 259.333 -147.5 358s-217.166 148 -356.499 148zM1203 479h-138
l-83 183c-42 92 -87.333 138 -136 138h-52v-321h-117v763h215c88.667 0 157.167 -18.667 205.5 -56s72.5 -88 72.5 -152c0 -52 -17 -96.5 -51 -133.5s-81.333 -61.833 -142 -74.5v-3c42 -9.33301 84 -56.333 126 -141zM794 1143l-0.000976562 -245h94
c105.333 0 158 41 158 123c0 47.333 -14.167 79.5 -42.5 96.5s-73.166 25.5 -134.499 25.5h-75z" />
    <glyph glyph-name="macron" unicode="&#xaf;" horiz-adv-x="850" 
d="M850 1396h-850v120h850v-120z" />
    <glyph glyph-name="degree" unicode="&#xb0;" horiz-adv-x="772" 
d="M385 897c-76.667 0 -141.999 27.167 -195.999 81.5s-81 120.166 -81 197.499c0 76.667 26.667 141.5 80 194.5s118.333 79.5 195 79.5c77.333 0 143.166 -26.667 197.499 -80s81.5 -118 81.5 -194c0 -77.333 -27 -143.166 -81 -197.499s-119.333 -81.5 -196 -81.5z
M385.001 1333c-43.333 0 -80.332 -15.332 -110.999 -45.999s-46 -67.667 -46 -111c0 -44.667 15 -82.834 45 -114.501s66.667 -47.5 110 -47.5s80.666 16 111.999 48s47 70 47 114s-15.333 81.167 -46 111.5s-67.667 45.5 -111 45.5z" />
    <glyph glyph-name="plusminus" unicode="&#xb1;" horiz-adv-x="1401" 
d="M1172 652h-404v-404h-131v404h-405v132h405v404h131v-404h404v-132zM1172 0h-940v133h940v-133z" />
    <glyph glyph-name="uni00B2" unicode="&#xb2;" horiz-adv-x="750" 
d="M658 584h-554.001v114l240 236c69.333 68 113.333 120.167 132 156.5s28 72.833 28 109.5c0 38.667 -12.667 70.167 -38 94.5s-58.666 36.5 -99.999 36.5c-78.667 0 -150.667 -34 -216 -102v149c56 50.667 134.333 76 235 76c78.667 0 141 -22 187 -66s69 -102 69 -174
c0 -102 -68.333 -218 -205 -348l-164 -156v-4h386v-122z" />
    <glyph glyph-name="uni00B3" unicode="&#xb3;" horiz-adv-x="750" 
d="M129 616l0.000976562 142c68.667 -50.667 141 -76 217 -76c53.333 0 95.333 12.5 126 37.5s46 58.833 46 101.5c0 94 -73 141 -219 141h-84v118h80c131.333 0 197 44.667 197 134c0 79.333 -48 119 -144 119c-62.667 0 -124.667 -23 -186 -69v139c58 34 129 51 213 51
c75.333 0 135.333 -19.833 180 -59.5s67 -91.5 67 -155.5c0 -100.667 -48.333 -169 -145 -205v-4c118 -28 177 -95.333 177 -202c0 -78 -28.333 -141.667 -85 -191s-132.334 -74 -227.001 -74c-91.333 0 -162.333 17.667 -213 53z" />
    <glyph glyph-name="acute" unicode="&#xb4;" horiz-adv-x="578" 
d="M524 1546l-262 -328h-127l223 328h166z" />
    <glyph glyph-name="uni00B5" unicode="&#xb5;" horiz-adv-x="1182" 
d="M1048 0l-170.001 -0.000976562c-15.333 48 -23 104 -23 168h-5c-56 -127.333 -149 -191 -279 -191c-111.333 0 -190.666 41 -237.999 123h-4v-496h-163v1420h163v-626c0 -84.667 23 -152 69 -202s106 -75 180 -75c80.667 0 146.167 28.667 196.5 86
s75.5 134.333 75.5 231v586h166v-759c0 -125.333 10.667 -213.666 32 -264.999z" />
    <glyph glyph-name="paragraph" unicode="&#xb6;" horiz-adv-x="938" 
d="M834 1331l-128 -0.000976562v-1331h-106v1331h-158v-1331h-108v903c-72 0 -131.667 25.333 -179 76s-71 114.334 -71 191.001c0 78 24.833 141.5 74.5 190.5s110.167 73.5 181.5 73.5h494v-103z" />
    <glyph glyph-name="periodcentered" unicode="&#xb7;" horiz-adv-x="444" 
d="M223 510c-30.667 0 -56.834 11 -78.501 33s-32.5 48.333 -32.5 79c0 31.333 10.833 58 32.5 80s47.834 33 78.501 33c31.333 0 58 -11 80 -33s33 -48.667 33 -80c0 -30.667 -11 -57 -33 -79s-48.667 -33 -80 -33z" />
    <glyph glyph-name="cedilla" unicode="&#xb8;" horiz-adv-x="420" 
d="M391 -256c0 -117.333 -91.666 -176 -274.999 -176c-25.333 0 -47 0.666992 -65 2v90c28.667 -4 52 -6 70 -6c94 0 141 30 141 90c0 52 -43 78 -129 78c-6.66699 0 -20.334 -1.33301 -41.001 -4v182h108v-104c58.667 0 105.167 -13.333 139.5 -40s51.5 -64 51.5 -112z" />
    <glyph glyph-name="uni00B9" unicode="&#xb9;" horiz-adv-x="719" 
d="M639 584h-504v112h185v594l-193 -55v125l323 96v-760h189v-112z" />
    <glyph glyph-name="ordmasculine" unicode="&#xba;" horiz-adv-x="882" 
d="M436 696c-111.333 0 -198.834 33.5 -262.501 100.5s-95.5 157.833 -95.5 272.5c0 120.667 34.167 215 102.5 283s158.833 102 271.5 102c108.667 0 194.334 -33.167 257.001 -99.5s94 -156.5 94 -270.5c0 -118.667 -33.167 -213 -99.5 -283s-155.5 -105 -267.5 -105z
M443.999 1344c-70.667 0 -126.833 -23.999 -168.5 -71.999s-62.5 -114.333 -62.5 -199c0 -82.667 19.833 -147.334 59.5 -194.001s96.167 -70 169.5 -70c70 0 125.5 23.833 166.5 71.5s61.5 112.5 61.5 194.5c0 84 -20.167 149.833 -60.5 197.5s-95.5 71.5 -165.5 71.5z" />
    <glyph glyph-name="guillemotright" unicode="&#xbb;" horiz-adv-x="1036" 
d="M948 538l-301 -338h-165l302 338l-302 342h165zM559 538l-299 -338h-170l308 338l-308 342h170z" />
    <glyph glyph-name="onequarter" unicode="&#xbc;" horiz-adv-x="1856" 
d="M639 584h-504v112h185v594l-193 -55v125l323 96v-760h189v-112zM1393 1434l-858 -1434h-144l859 1434h143zM1706 204h-110v-204h-132v204h-393v92l369 554h156v-537h110v-109zM1468 724l-4 0.000976562c-8 -20.667 -20.667 -45 -38 -73l-218 -338h256v323
c0 21.333 1.33301 50.666 4 87.999z" />
    <glyph glyph-name="onehalf" unicode="&#xbd;" horiz-adv-x="1906" 
d="M639 584h-504v112h185v594l-193 -55v125l323 96v-760h189v-112zM1393 1434l-858 -1434h-144l859 1434h143zM1748 1h-554.001v114l240 236c69.333 68 113.333 120.167 132 156.5s28 72.833 28 109.5c0 38.667 -12.667 70.167 -38 94.5s-58.666 36.5 -99.999 36.5
c-78.667 0 -150.667 -34 -216 -102v149c56 50.667 134.333 76 235 76c78.667 0 141 -22 187 -66s69 -102 69 -174c0 -102 -68.333 -218 -205 -348l-164 -156v-4h386v-122z" />
    <glyph glyph-name="threequarters" unicode="&#xbe;" horiz-adv-x="1950" 
d="M129 616l0.000976562 142c68.667 -50.667 141 -76 217 -76c53.333 0 95.333 12.5 126 37.5s46 58.833 46 101.5c0 94 -73 141 -219 141h-84v118h80c131.333 0 197 44.667 197 134c0 79.333 -48 119 -144 119c-62.667 0 -124.667 -23 -186 -69v139c58 34 129 51 213 51
c75.333 0 135.333 -19.833 180 -59.5s67 -91.5 67 -155.5c0 -100.667 -48.333 -169 -145 -205v-4c118 -28 177 -95.333 177 -202c0 -78 -28.333 -141.667 -85 -191s-132.334 -74 -227.001 -74c-91.333 0 -162.333 17.667 -213 53zM1464 1434l-858 -1434h-144l859 1434h143z
M1771 204h-110v-204h-132v204h-393v92l369 554h156v-537h110v-109zM1533 724l-4 0.000976562c-8 -20.667 -20.667 -45 -38 -73l-218 -338h256v323c0 21.333 1.33301 50.666 4 87.999z" />
    <glyph glyph-name="questiondown" unicode="&#xbf;" horiz-adv-x="918" 
d="M625 630c6 -17.333 11.335 -39.8301 16.002 -67.4971s7 -55.167 7 -82.5c0 -42.667 -8.5 -81.167 -25.5 -115.5s-38.167 -66.5 -63.5 -96.5s-53 -58.833 -83 -86.5s-57.667 -55.667 -83 -84s-46.5 -58 -63.5 -89s-25.5 -65.167 -25.5 -102.5
c0 -32 6.16699 -60.333 18.5 -85s29.166 -45.334 50.499 -62.001s46 -29.167 74 -37.5s57.667 -12.5 89 -12.5c112.667 0 210.334 44.333 293.001 133v-176c-102 -64 -207.667 -96 -317 -96c-50.667 0 -98.334 6.66699 -143.001 20s-83.667 33.166 -117 59.499
s-59.833 59.166 -79.5 98.499s-29.5 85 -29.5 137c0 49.333 8.66699 93.333 26 132s39.166 74.167 65.499 106.5s54.833 62.5 85.5 90.5s59.167 55.833 85.5 83.5s48.166 56.5 65.499 86.5s26 63 26 99c0 30.667 -3.66699 58.5 -11 83.5s-14.666 46.167 -21.999 63.5h161z
M535.002 1046c29.333 0 55.333 -10.667 78 -32c22 -20.667 33 -46.667 33 -78c0 -30.667 -11 -56.667 -33 -78c-22 -22 -48 -33 -78 -33s-56 11 -78 33c-22 21.333 -33 47.333 -33 78c0 31.333 11 57.333 33 78c22.667 21.333 48.667 32 78 32z" />
    <glyph glyph-name="Agrave" unicode="&#xc0;" horiz-adv-x="1321" 
d="M1298 0h-186l-152 402h-608l-143 -402h-187l550 1434h174zM905 553l-225 611c-7.33301 20 -14.666 52 -21.999 96h-4c-6.66699 -40.667 -14.334 -72.667 -23.001 -96l-223 -611h497zM758 1566h-127l-262 328h168z" />
    <glyph glyph-name="Aacute" unicode="&#xc1;" horiz-adv-x="1321" 
d="M1298 0h-186l-152 402h-608l-143 -402h-187l550 1434h174zM905 553l-225 611c-7.33301 20 -14.666 52 -21.999 96h-4c-6.66699 -40.667 -14.334 -72.667 -23.001 -96l-223 -611h497zM867 1894l-262 -328h-127l223 328h166z" />
    <glyph glyph-name="Acircumflex" unicode="&#xc2;" horiz-adv-x="1321" 
d="M1298 0h-186l-152 402h-608l-143 -402h-187l550 1434h174zM905 553l-225 611c-7.33301 20 -14.666 52 -21.999 96h-4c-6.66699 -40.667 -14.334 -72.667 -23.001 -96l-223 -611h497zM927 1565h-122l-164 230l-165 -230h-113l215 332h133z" />
    <glyph glyph-name="Atilde" unicode="&#xc3;" horiz-adv-x="1321" 
d="M1298 0h-186l-152 402h-608l-143 -402h-187l550 1434h174zM905 553l-225 611c-7.33301 20 -14.666 52 -21.999 96h-4c-6.66699 -40.667 -14.334 -72.667 -23.001 -96l-223 -611h497zM977 1803c0 -70 -16 -127.167 -48 -171.5s-75.333 -66.5 -130 -66.5
c-47.333 0 -101.333 17.333 -162 52c-51.333 28.667 -91 43 -119 43c-58.667 0 -88 -37.667 -88 -113h-94c0 71.333 16 128.5 48 171.5s76.667 64.5 134 64.5c43.333 0 93 -17.333 149 -52c49.333 -29.333 92 -44 128 -44c56 0 84 38.667 84 116h98z" />
    <glyph glyph-name="Adieresis" unicode="&#xc4;" horiz-adv-x="1321" 
d="M1298 0h-186l-152 402h-608l-143 -402h-187l550 1434h174zM905 553l-225 611c-7.33301 20 -14.666 52 -21.999 96h-4c-6.66699 -40.667 -14.334 -72.667 -23.001 -96l-223 -611h497zM840 1565c-26.667 0 -49.668 9.33105 -69.001 27.998s-29 42.334 -29 71.001
c0 28 9.33301 51.333 28 70s41.334 28 68.001 28c28 0 51.667 -9.5 71 -28.5s29 -42.167 29 -69.5s-9.33301 -50.666 -28 -69.999s-42 -29 -70 -29zM455.999 1565c-28 0 -51.833 9.83105 -71.5 29.498s-29.5 42.834 -29.5 69.501c0 28 9.5 51.333 28.5 70s42.167 28 69.5 28
s51 -9.5 71 -28.5s30 -42.167 30 -69.5s-9.66699 -50.666 -29 -69.999s-42.333 -29 -69 -29z" />
    <glyph glyph-name="Aring" unicode="&#xc5;" horiz-adv-x="1321" 
d="M1298 0l-186 -0.000976562l-152 402h-608l-143 -402h-187l529 1378c-67.333 34.667 -101 89.334 -101 164.001c0 59.333 20 107.333 60 144s90.667 55 152 55c58.667 0 106.667 -18.167 144 -54.5s56 -82.5 56 -138.5c0 -74.667 -32 -130 -96 -166zM656 1659
c-33.333 0 -60.667 -10.501 -82 -31.501s-32 -47.5 -32 -79.5c0 -76 38 -114 114 -114c32 0 59 11 81 33s33 49 33 81c0 32.667 -11 59.334 -33 80.001s-49 31 -81 31zM904.999 552.998l-225 611c-7.33301 20 -14.666 52 -21.999 96h-4
c-6.66699 -40.667 -14.334 -72.667 -23.001 -96l-223 -611h497z" />
    <glyph glyph-name="AE" unicode="&#xc6;" horiz-adv-x="1762" 
d="M1667 0h-759v402h-510l-193 -402h-195l700 1434h924v-152h-559v-477h519v-151h-519v-502h592v-152zM908 553v729h-95l-346 -729h441z" />
    <glyph glyph-name="Ccedilla" unicode="&#xc7;" horiz-adv-x="1268" 
d="M1164 60c-106 -56 -238 -83.9971 -396 -83.9971c-204 0 -367.333 65.667 -490 197s-184 303.666 -184 516.999c0 229.333 69 414.666 207 555.999s313 212 525 212c136 0 248.667 -19.667 338 -59v-179c-102.667 57.333 -216 86 -340 86
c-164.667 0 -298.167 -55 -400.5 -165s-153.5 -257 -153.5 -441c0 -174.667 47.833 -313.834 143.5 -417.501s221.167 -155.5 376.5 -155.5c144 0 268.667 32 374 96v-163zM960 -255.997c0 -117.333 -91.666 -176 -274.999 -176c-25.333 0 -47 0.666992 -65 2v90
c28.667 -4 52 -6 70 -6c94 0 141 30 141 90c0 52 -43 78 -129 78c-6.66699 0 -20.334 -1.33301 -41.001 -4v182h108v-104c58.667 0 105.167 -13.333 139.5 -40s51.5 -64 51.5 -112z" />
    <glyph glyph-name="Egrave" unicode="&#xc8;" horiz-adv-x="1036" 
d="M948 0h-760v1434h728v-152h-560v-477h518v-151h-518v-502h592v-152zM703 1566h-127l-262 328h168z" />
    <glyph glyph-name="Eacute" unicode="&#xc9;" horiz-adv-x="1036" 
d="M948 0h-760v1434h728v-152h-560v-477h518v-151h-518v-502h592v-152zM803 1893l-262 -328h-127l223 328h166z" />
    <glyph glyph-name="Ecircumflex" unicode="&#xca;" horiz-adv-x="1036" 
d="M948 0h-760v1434h728v-152h-560v-477h518v-151h-518v-502h592v-152zM827 1567h-122l-164 230l-165 -230h-113l215 332h133z" />
    <glyph glyph-name="Edieresis" unicode="&#xcb;" horiz-adv-x="1036" 
d="M948 0h-760v1434h728v-152h-560v-477h518v-151h-518v-502h592v-152zM749 1566c-26.667 0 -49.668 9.33105 -69.001 27.998s-29 42.334 -29 71.001c0 28 9.33301 51.333 28 70s41.334 28 68.001 28c28 0 51.667 -9.5 71 -28.5s29 -42.167 29 -69.5
s-9.33301 -50.666 -28 -69.999s-42 -29 -70 -29zM364.999 1566c-28 0 -51.833 9.83105 -71.5 29.498s-29.5 42.834 -29.5 69.501c0 28 9.5 51.333 28.5 70s42.167 28 69.5 28s51 -9.5 71 -28.5s30 -42.167 30 -69.5s-9.66699 -50.666 -29 -69.999s-42.333 -29 -69 -29z" />
    <glyph glyph-name="Igrave" unicode="&#xcc;" horiz-adv-x="545" 
d="M356 0h-168v1434h168v-1434zM416 1566h-127l-262 328h168z" />
    <glyph glyph-name="Iacute" unicode="&#xcd;" horiz-adv-x="545" 
d="M356 0h-168v1434h168v-1434zM509 1894l-262 -328h-127l223 328h166z" />
    <glyph glyph-name="Icircumflex" unicode="&#xce;" horiz-adv-x="545" 
d="M356 0h-168v1434h168v-1434zM560 1567h-122l-164 230l-165 -230h-113l215 332h133z" />
    <glyph glyph-name="Idieresis" unicode="&#xcf;" horiz-adv-x="545" 
d="M356 0h-168v1434h168v-1434zM470 1566c-26.667 0 -49.668 9.33105 -69.001 27.998s-29 42.334 -29 71.001c0 28 9.33301 51.333 28 70s41.334 28 68.001 28c28 0 51.667 -9.5 71 -28.5s29 -42.167 29 -69.5s-9.33301 -50.666 -28 -69.999s-42 -29 -70 -29zM85.999 1566
c-28 0 -51.833 9.83105 -71.5 29.498s-29.5 42.834 -29.5 69.501c0 28 9.5 51.333 28.5 70s42.167 28 69.5 28s51 -9.5 71 -28.5s30 -42.167 30 -69.5s-9.66699 -50.666 -29 -69.999s-42.333 -29 -69 -29z" />
    <glyph glyph-name="Eth" unicode="&#xd0;" horiz-adv-x="1436" 
d="M188 0l-0.000976562 641.001h-160v155h160v638h396c505.333 0 758 -233 758 -699c0 -222.667 -70.167 -400.834 -210.5 -534.501s-328.166 -200.5 -563.499 -200.5h-380zM355.999 1282v-486.001h336v-155h-336v-489h214c188 0 334.333 50.333 439 151
s157 243.334 157 428.001c0 367.333 -195.333 551 -586 551h-224z" />
    <glyph glyph-name="Ntilde" unicode="&#xd1;" horiz-adv-x="1532" 
d="M1344 0l-206 0.00195312l-738 1143c-18.667 28.667 -34 58.667 -46 90h-6c5.33301 -30.667 8 -96.334 8 -197.001v-1036h-168v1434h218l718 -1125c30 -46.667 49.333 -78.667 58 -96h4c-6.66699 41.333 -10 111.666 -10 210.999v1010h168v-1434zM1113 1803
c0 -70 -16 -127.167 -48 -171.5s-75.333 -66.5 -130 -66.5c-47.333 0 -101.333 17.333 -162 52c-51.333 28.667 -91 43 -119 43c-58.667 0 -88 -37.667 -88 -113h-94c0 71.333 16 128.5 48 171.5s76.667 64.5 134 64.5c43.333 0 93 -17.333 149 -52
c49.333 -29.333 92 -44 128 -44c56 0 84 38.667 84 116h98z" />
    <glyph glyph-name="Ograve" unicode="&#xd2;" horiz-adv-x="1544" 
d="M766 -24c-203.333 0 -366.168 66.999 -488.501 200.999s-183.5 308.333 -183.5 523c0 230.667 62.333 414.667 187 552s294.334 206 509.001 206c198 0 357.5 -66.667 478.5 -200s181.5 -307.666 181.5 -522.999c0 -234 -62 -419 -186 -555s-290 -204 -498 -204z
M777.998 1306c-150.667 0 -273 -54.3311 -367 -162.998s-141 -251.334 -141 -428.001s45.833 -318.834 137.5 -426.501s211.167 -161.5 358.5 -161.5c157.333 0 281.333 51.333 372 154s136 246.334 136 431.001c0 189.333 -44 335.666 -132 438.999s-209.333 155 -364 155z
M879.998 1566h-127l-262 328h168z" />
    <glyph glyph-name="Oacute" unicode="&#xd3;" horiz-adv-x="1544" 
d="M766 -24c-203.333 0 -366.168 66.999 -488.501 200.999s-183.5 308.333 -183.5 523c0 230.667 62.333 414.667 187 552s294.334 206 509.001 206c198 0 357.5 -66.667 478.5 -200s181.5 -307.666 181.5 -522.999c0 -234 -62 -419 -186 -555s-290 -204 -498 -204z
M777.998 1306c-150.667 0 -273 -54.3311 -367 -162.998s-141 -251.334 -141 -428.001s45.833 -318.834 137.5 -426.501s211.167 -161.5 358.5 -161.5c157.333 0 281.333 51.333 372 154s136 246.334 136 431.001c0 189.333 -44 335.666 -132 438.999s-209.333 155 -364 155z
M1028 1894l-262 -328h-127l223 328h166z" />
    <glyph glyph-name="Ocircumflex" unicode="&#xd4;" horiz-adv-x="1544" 
d="M766 -24c-203.333 0 -366.168 66.999 -488.501 200.999s-183.5 308.333 -183.5 523c0 230.667 62.333 414.667 187 552s294.334 206 509.001 206c198 0 357.5 -66.667 478.5 -200s181.5 -307.666 181.5 -522.999c0 -234 -62 -419 -186 -555s-290 -204 -498 -204z
M777.998 1306c-150.667 0 -273 -54.3311 -367 -162.998s-141 -251.334 -141 -428.001s45.833 -318.834 137.5 -426.501s211.167 -161.5 358.5 -161.5c157.333 0 281.333 51.333 372 154s136 246.334 136 431.001c0 189.333 -44 335.666 -132 438.999s-209.333 155 -364 155z
M1063 1566h-122l-164 230l-165 -230h-113l215 332h133z" />
    <glyph glyph-name="Otilde" unicode="&#xd5;" horiz-adv-x="1544" 
d="M766 -24c-203.333 0 -366.168 66.999 -488.501 200.999s-183.5 308.333 -183.5 523c0 230.667 62.333 414.667 187 552s294.334 206 509.001 206c198 0 357.5 -66.667 478.5 -200s181.5 -307.666 181.5 -522.999c0 -234 -62 -419 -186 -555s-290 -204 -498 -204z
M777.998 1306c-150.667 0 -273 -54.3311 -367 -162.998s-141 -251.334 -141 -428.001s45.833 -318.834 137.5 -426.501s211.167 -161.5 358.5 -161.5c157.333 0 281.333 51.333 372 154s136 246.334 136 431.001c0 189.333 -44 335.666 -132 438.999s-209.333 155 -364 155z
M1103 1802c0 -70 -16 -127.167 -48 -171.5s-75.333 -66.5 -130 -66.5c-47.333 0 -101.333 17.333 -162 52c-51.333 28.667 -91 43 -119 43c-58.667 0 -88 -37.667 -88 -113h-94c0 71.333 16 128.5 48 171.5s76.667 64.5 134 64.5c43.333 0 93 -17.333 149 -52
c49.333 -29.333 92 -44 128 -44c56 0 84 38.667 84 116h98z" />
    <glyph glyph-name="Odieresis" unicode="&#xd6;" horiz-adv-x="1544" 
d="M766 -24c-203.333 0 -366.168 66.999 -488.501 200.999s-183.5 308.333 -183.5 523c0 230.667 62.333 414.667 187 552s294.334 206 509.001 206c198 0 357.5 -66.667 478.5 -200s181.5 -307.666 181.5 -522.999c0 -234 -62 -419 -186 -555s-290 -204 -498 -204z
M777.998 1306c-150.667 0 -273 -54.3311 -367 -162.998s-141 -251.334 -141 -428.001s45.833 -318.834 137.5 -426.501s211.167 -161.5 358.5 -161.5c157.333 0 281.333 51.333 372 154s136 246.334 136 431.001c0 189.333 -44 335.666 -132 438.999s-209.333 155 -364 155z
M967.998 1563c-26.667 0 -49.668 9.33105 -69.001 27.998s-29 42.334 -29 71.001c0 28 9.33301 51.333 28 70s41.334 28 68.001 28c28 0 51.667 -9.5 71 -28.5s29 -42.167 29 -69.5s-9.33301 -50.666 -28 -69.999s-42 -29 -70 -29zM583.997 1563
c-28 0 -51.833 9.83105 -71.5 29.498s-29.5 42.834 -29.5 69.501c0 28 9.5 51.333 28.5 70s42.167 28 69.5 28s51 -9.5 71 -28.5s30 -42.167 30 -69.5s-9.66699 -50.666 -29 -69.999s-42.333 -29 -69 -29z" />
    <glyph glyph-name="multiply" unicode="&#xd7;" horiz-adv-x="1401" 
d="M1134 258l-94 -94l-340 340l-338 -340l-94 94l340 338l-340 340l94 94l338 -340l340 340l94 -94l-340 -340z" />
    <glyph glyph-name="Oslash" unicode="&#xd8;" horiz-adv-x="1544" 
d="M324 131l-152 -182l-78 65l158 191c-105.333 130 -158 295 -158 495c0 228.667 62.167 412.167 186.5 550.5s294.166 207.5 509.499 207.5c156 0 290 -43 402 -129l135 162l78 -63l-139 -166c122.667 -133.333 184 -309 184 -527c0 -234 -62 -419 -186 -555
s-290 -204 -498 -204c-177.333 0 -324.666 51.667 -441.999 155zM1090 1204c-84 68 -188 101.999 -312 101.999c-151.333 0 -273.833 -54.667 -367.5 -164s-140.5 -251.666 -140.5 -426.999c0 -148.667 32.667 -273 98 -373zM1157 1130l-724.999 -865.999
c87.333 -91.333 198.666 -137 333.999 -137c157.333 0 281.333 51.5 372 154.5s136 246.5 136 430.5c0 173.333 -39 312.666 -117 417.999z" />
    <glyph glyph-name="Ugrave" unicode="&#xd9;" horiz-adv-x="1407" 
d="M1237 580c0 -402.667 -181.667 -604 -545 -604c-348 0 -522 193.667 -522 581v877h168v-866c0 -294 124 -441 372 -441c239.333 0 359 142 359 426v881h168v-854zM830 1566h-127l-262 328h168z" />
    <glyph glyph-name="Uacute" unicode="&#xda;" horiz-adv-x="1407" 
d="M1237 580c0 -402.667 -181.667 -604 -545 -604c-348 0 -522 193.667 -522 581v877h168v-866c0 -294 124 -441 372 -441c239.333 0 359 142 359 426v881h168v-854zM960 1893l-262 -328h-127l223 328h166z" />
    <glyph glyph-name="Ucircumflex" unicode="&#xdb;" horiz-adv-x="1407" 
d="M1237 580c0 -402.667 -181.667 -604 -545 -604c-348 0 -522 193.667 -522 581v877h168v-866c0 -294 124 -441 372 -441c239.333 0 359 142 359 426v881h168v-854zM987 1567h-122l-164 230l-165 -230h-113l215 332h133z" />
    <glyph glyph-name="Udieresis" unicode="&#xdc;" horiz-adv-x="1407" 
d="M1237 580c0 -402.667 -181.667 -604 -545 -604c-348 0 -522 193.667 -522 581v877h168v-866c0 -294 124 -441 372 -441c239.333 0 359 142 359 426v881h168v-854zM895 1567c-26.667 0 -49.668 9.33105 -69.001 27.998s-29 42.334 -29 71.001c0 28 9.33301 51.333 28 70
s41.334 28 68.001 28c28 0 51.667 -9.5 71 -28.5s29 -42.167 29 -69.5s-9.33301 -50.666 -28 -69.999s-42 -29 -70 -29zM510.999 1567c-28 0 -51.833 9.83105 -71.5 29.498s-29.5 42.834 -29.5 69.501c0 28 9.5 51.333 28.5 70s42.167 28 69.5 28s51 -9.5 71 -28.5
s30 -42.167 30 -69.5s-9.66699 -50.666 -29 -69.999s-42.333 -29 -69 -29z" />
    <glyph glyph-name="Yacute" unicode="&#xdd;" horiz-adv-x="1132" 
d="M1120 1434l-473.001 -904v-530h-168v526l-461 908h191l321 -648c4 -8 15.667 -37.333 35 -88h3c6.66699 22.667 19.334 52 38.001 88l336 648h178zM830.999 1894l-262 -328h-127l223 328h166z" />
    <glyph glyph-name="Thorn" unicode="&#xde;" horiz-adv-x="1147" 
d="M356 318l-0.000976562 -318h-168v1434h168v-226h226c154.667 0 273.834 -37.167 357.501 -111.5s125.5 -179.833 125.5 -316.5c0 -136 -47.167 -247 -141.5 -333s-221.5 -129 -381.5 -129h-186zM355.999 1057l0.000976562 -588h176c115.333 0 203.666 26 264.999 78
s92 126.333 92 223c0 191.333 -112 287 -336 287h-197z" />
    <glyph glyph-name="germandbls" unicode="&#xdf;" horiz-adv-x="1114" 
d="M461 2v160.002c50 -32 106.667 -48 170 -48c72.667 0 131.667 24.5 177 73.5s68 114.833 68 197.5c0 100 -33.333 181.167 -100 243.5s-159.334 100.166 -278.001 113.499v130c78.667 13.333 143.334 47.666 194.001 102.999s76 121 76 197
c0 72 -18.333 127.833 -55 167.5s-87.334 59.5 -152.001 59.5c-154 0 -231 -103 -231 -309v-1090h-164v1114c0 128 36.667 230.667 110 308s172 116 296 116c110.667 0 199 -31.667 265 -95s99 -147 99 -251c0 -84.667 -25 -160.667 -75 -228s-115 -114 -195 -140v-5
c252 -50 378 -192 378 -426c0 -118 -37 -217 -111 -297s-172 -120 -294 -120c-67.333 0 -126.666 8.66699 -177.999 26z" />
    <glyph glyph-name="agrave" unicode="&#xe0;" horiz-adv-x="1042" 
d="M899 0l-164.001 0.000976562v160h-4c-71.333 -122.667 -176.333 -184 -315 -184c-102 0 -181.833 27 -239.5 81s-86.5 125.667 -86.5 215c0 191.333 112.667 302.666 338 333.999l307 43c0 174 -70.333 261 -211 261c-123.333 0 -234.666 -42 -333.999 -126v168
c100.667 64 216.667 96 348 96c240.667 0 361 -127.333 361 -382v-666zM734.999 518.001l-247 -34c-76 -10.667 -133.333 -29.5 -172 -56.5s-58 -74.833 -58 -143.5c0 -50 17.833 -90.833 53.5 -122.5s83.167 -47.5 142.5 -47.5c81.333 0 148.5 28.5 201.5 85.5
s79.5 129.167 79.5 216.5v102zM673.999 1218h-127l-262 328h168z" />
    <glyph glyph-name="aacute" unicode="&#xe1;" horiz-adv-x="1042" 
d="M899 0l-164.001 0.000976562v160h-4c-71.333 -122.667 -176.333 -184 -315 -184c-102 0 -181.833 27 -239.5 81s-86.5 125.667 -86.5 215c0 191.333 112.667 302.666 338 333.999l307 43c0 174 -70.333 261 -211 261c-123.333 0 -234.666 -42 -333.999 -126v168
c100.667 64 216.667 96 348 96c240.667 0 361 -127.333 361 -382v-666zM734.999 518.001l-247 -34c-76 -10.667 -133.333 -29.5 -172 -56.5s-58 -74.833 -58 -143.5c0 -50 17.833 -90.833 53.5 -122.5s83.167 -47.5 142.5 -47.5c81.333 0 148.5 28.5 201.5 85.5
s79.5 129.167 79.5 216.5v102zM756.999 1546l-262 -328h-127l223 328h166z" />
    <glyph glyph-name="acircumflex" unicode="&#xe2;" horiz-adv-x="1042" 
d="M899 0l-164.001 0.000976562v160h-4c-71.333 -122.667 -176.333 -184 -315 -184c-102 0 -181.833 27 -239.5 81s-86.5 125.667 -86.5 215c0 191.333 112.667 302.666 338 333.999l307 43c0 174 -70.333 261 -211 261c-123.333 0 -234.666 -42 -333.999 -126v168
c100.667 64 216.667 96 348 96c240.667 0 361 -127.333 361 -382v-666zM734.999 518.001l-247 -34c-76 -10.667 -133.333 -29.5 -172 -56.5s-58 -74.833 -58 -143.5c0 -50 17.833 -90.833 53.5 -122.5s83.167 -47.5 142.5 -47.5c81.333 0 148.5 28.5 201.5 85.5
s79.5 129.167 79.5 216.5v102zM805.999 1218h-122l-164 230l-165 -230h-113l215 332h133z" />
    <glyph glyph-name="atilde" unicode="&#xe3;" horiz-adv-x="1042" 
d="M899 0l-164.001 0.000976562v160h-4c-71.333 -122.667 -176.333 -184 -315 -184c-102 0 -181.833 27 -239.5 81s-86.5 125.667 -86.5 215c0 191.333 112.667 302.666 338 333.999l307 43c0 174 -70.333 261 -211 261c-123.333 0 -234.666 -42 -333.999 -126v168
c100.667 64 216.667 96 348 96c240.667 0 361 -127.333 361 -382v-666zM734.999 518.001l-247 -34c-76 -10.667 -133.333 -29.5 -172 -56.5s-58 -74.833 -58 -143.5c0 -50 17.833 -90.833 53.5 -122.5s83.167 -47.5 142.5 -47.5c81.333 0 148.5 28.5 201.5 85.5
s79.5 129.167 79.5 216.5v102zM843.999 1458c0 -70 -16 -127.167 -48 -171.5s-75.333 -66.5 -130 -66.5c-47.333 0 -101.333 17.333 -162 52c-51.333 28.667 -91 43 -119 43c-58.667 0 -88 -37.667 -88 -113h-94c0 71.333 16 128.5 48 171.5s76.667 64.5 134 64.5
c43.333 0 93 -17.333 149 -52c49.333 -29.333 92 -44 128 -44c56 0 84 38.667 84 116h98z" />
    <glyph glyph-name="adieresis" unicode="&#xe4;" horiz-adv-x="1042" 
d="M899 0l-164.001 0.000976562v160h-4c-71.333 -122.667 -176.333 -184 -315 -184c-102 0 -181.833 27 -239.5 81s-86.5 125.667 -86.5 215c0 191.333 112.667 302.666 338 333.999l307 43c0 174 -70.333 261 -211 261c-123.333 0 -234.666 -42 -333.999 -126v168
c100.667 64 216.667 96 348 96c240.667 0 361 -127.333 361 -382v-666zM734.999 518.001l-247 -34c-76 -10.667 -133.333 -29.5 -172 -56.5s-58 -74.833 -58 -143.5c0 -50 17.833 -90.833 53.5 -122.5s83.167 -47.5 142.5 -47.5c81.333 0 148.5 28.5 201.5 85.5
s79.5 129.167 79.5 216.5v102zM707.999 1218c-26.667 0 -49.668 9.33105 -69.001 27.998s-29 42.334 -29 71.001c0 28 9.33301 51.333 28 70s41.334 28 68.001 28c28 0 51.667 -9.5 71 -28.5s29 -42.167 29 -69.5s-9.33301 -50.666 -28 -69.999s-42 -29 -70 -29z
M323.998 1218c-28 0 -51.833 9.83105 -71.5 29.498s-29.5 42.834 -29.5 69.501c0 28 9.5 51.333 28.5 70s42.167 28 69.5 28s51 -9.5 71 -28.5s30 -42.167 30 -69.5s-9.66699 -50.666 -29 -69.999s-42.333 -29 -69 -29z" />
    <glyph glyph-name="aring" unicode="&#xe5;" horiz-adv-x="1042" 
d="M899 0l-164.001 0.000976562v160h-4c-71.333 -122.667 -176.333 -184 -315 -184c-102 0 -181.833 27 -239.5 81s-86.5 125.667 -86.5 215c0 191.333 112.667 302.666 338 333.999l307 43c0 174 -70.333 261 -211 261c-123.333 0 -234.666 -42 -333.999 -126v168
c100.667 64 216.667 96 348 96c240.667 0 361 -127.333 361 -382v-666zM734.999 518.001l-247 -34c-76 -10.667 -133.333 -29.5 -172 -56.5s-58 -74.833 -58 -143.5c0 -50 17.833 -90.833 53.5 -122.5s83.167 -47.5 142.5 -47.5c81.333 0 148.5 28.5 201.5 85.5
s79.5 129.167 79.5 216.5v102zM516.999 1176c-58 0 -106.166 17.5 -144.499 52.5s-57.5 80.833 -57.5 137.5c0 60 19.667 108 59 144s89.333 54 150 54c59.333 0 108 -18 146 -54s57 -82 57 -138s-20.333 -102.667 -61 -140s-90.334 -56 -149.001 -56zM517 1483
c-32 0 -58.667 -10.833 -80 -32.5s-32 -48.5 -32 -80.5c0 -74.667 37.333 -112 112 -112c33.333 0 61 10.667 83 32s33 48 33 80c0 32.667 -11 59.667 -33 81s-49.667 32 -83 32z" />
    <glyph glyph-name="ae" unicode="&#xe6;" horiz-adv-x="1704" 
d="M1622 471h-725c2 -114 32.333 -202 91 -264s139 -93 241 -93c118 0 225 38 321 114v-154c-88 -65.333 -207.333 -98 -358 -98c-180 0 -307.667 76.333 -383 229h-4c-96.667 -152.667 -225.667 -229 -387 -229c-102 0 -182.167 26.833 -240.5 80.5
s-87.5 125.5 -87.5 215.5c0 200 127.667 308 383 324l262 16c0 198.667 -71.667 298 -215 298c-116.667 0 -226.667 -40.667 -330 -122v164c98.667 64 214.667 96 348 96c154.667 0 254.667 -66.667 300 -200h4c77.333 133.333 196 200 356 200
c134.667 0 239 -43.5 313 -130.5s111 -207.833 111 -362.5v-84zM1454 610c-1.33301 96 -24.1689 170.001 -68.502 222.001s-106.166 78 -185.499 78c-77.333 0 -143.666 -27.333 -198.999 -82s-89.333 -127.334 -102 -218.001h555zM734.997 410.001l0.000976562 62.999
l-203 -12c-92.667 -5.33301 -161.834 -21.666 -207.501 -48.999s-68.5 -72.666 -68.5 -135.999c0 -48.667 17.667 -87.834 53 -117.501s83 -44.5 143 -44.5c79.333 0 146.333 28.167 201 84.5s82 126.833 82 211.5z" />
    <glyph glyph-name="ccedilla" unicode="&#xe7;" horiz-adv-x="946" 
d="M864 47c-78.667 -47.333 -172 -71 -280 -71c-146 0 -263.833 47.5 -353.5 142.5s-134.5 218.167 -134.5 369.5c0 168.667 48.333 304.167 145 406.5s225.667 153.5 387 153.5c90 0 169.333 -16.667 238 -50v-168c-76 53.333 -157.333 80 -244 80
c-104.667 0 -190.5 -37.5 -257.5 -112.5s-100.5 -173.5 -100.5 -295.5c0 -120 31.5 -214.667 94.5 -284s147.5 -104 253.5 -104c89.333 0 173.333 29.667 252 89v-156zM778 -256c0 -117.333 -91.666 -176 -274.999 -176c-25.333 0 -47 0.666992 -65 2v90
c28.667 -4 52 -6 70 -6c94 0 141 30 141 90c0 52 -43 78 -129 78c-6.66699 0 -20.334 -1.33301 -41.001 -4v182h108v-104c58.667 0 105.167 -13.333 139.5 -40s51.5 -64 51.5 -112z" />
    <glyph glyph-name="egrave" unicode="&#xe8;" horiz-adv-x="1071" 
d="M989 471l-723.001 0.000976562c2.66699 -114 33.334 -202 92.001 -264s139.334 -93 242.001 -93c115.333 0 221.333 38 318 114v-154c-90 -65.333 -209 -98 -357 -98c-144.667 0 -258.334 46.5 -341.001 139.5s-124 223.833 -124 392.5
c0 159.333 45.167 289.166 135.5 389.499s202.5 150.5 336.5 150.5s237.667 -43.333 311 -130s110 -207 110 -361v-86zM820.999 610.001c-0.666992 94.667 -23.5 168.332 -68.5 220.999s-107.5 79 -187.5 79c-77.333 0 -143 -27.667 -197 -83
s-87.333 -127.666 -100 -216.999h553zM724.999 1218h-127l-262 328h168z" />
    <glyph glyph-name="eacute" unicode="&#xe9;" horiz-adv-x="1071" 
d="M989 471l-723.001 0.000976562c2.66699 -114 33.334 -202 92.001 -264s139.334 -93 242.001 -93c115.333 0 221.333 38 318 114v-154c-90 -65.333 -209 -98 -357 -98c-144.667 0 -258.334 46.5 -341.001 139.5s-124 223.833 -124 392.5
c0 159.333 45.167 289.166 135.5 389.499s202.5 150.5 336.5 150.5s237.667 -43.333 311 -130s110 -207 110 -361v-86zM820.999 610.001c-0.666992 94.667 -23.5 168.332 -68.5 220.999s-107.5 79 -187.5 79c-77.333 0 -143 -27.667 -197 -83
s-87.333 -127.666 -100 -216.999h553zM794.999 1546l-262 -328h-127l223 328h166z" />
    <glyph glyph-name="ecircumflex" unicode="&#xea;" horiz-adv-x="1071" 
d="M989 471l-723.001 0.000976562c2.66699 -114 33.334 -202 92.001 -264s139.334 -93 242.001 -93c115.333 0 221.333 38 318 114v-154c-90 -65.333 -209 -98 -357 -98c-144.667 0 -258.334 46.5 -341.001 139.5s-124 223.833 -124 392.5
c0 159.333 45.167 289.166 135.5 389.499s202.5 150.5 336.5 150.5s237.667 -43.333 311 -130s110 -207 110 -361v-86zM820.999 610.001c-0.666992 94.667 -23.5 168.332 -68.5 220.999s-107.5 79 -187.5 79c-77.333 0 -143 -27.667 -197 -83
s-87.333 -127.666 -100 -216.999h553zM839.999 1218h-122l-164 230l-165 -230h-113l215 332h133z" />
    <glyph glyph-name="edieresis" unicode="&#xeb;" horiz-adv-x="1071" 
d="M989 471l-723.001 0.000976562c2.66699 -114 33.334 -202 92.001 -264s139.334 -93 242.001 -93c115.333 0 221.333 38 318 114v-154c-90 -65.333 -209 -98 -357 -98c-144.667 0 -258.334 46.5 -341.001 139.5s-124 223.833 -124 392.5
c0 159.333 45.167 289.166 135.5 389.499s202.5 150.5 336.5 150.5s237.667 -43.333 311 -130s110 -207 110 -361v-86zM820.999 610.001c-0.666992 94.667 -23.5 168.332 -68.5 220.999s-107.5 79 -187.5 79c-77.333 0 -143 -27.667 -197 -83
s-87.333 -127.666 -100 -216.999h553zM745.999 1218c-26.667 0 -49.668 9.33105 -69.001 27.998s-29 42.334 -29 71.001c0 28 9.33301 51.333 28 70s41.334 28 68.001 28c28 0 51.667 -9.5 71 -28.5s29 -42.167 29 -69.5s-9.33301 -50.666 -28 -69.999s-42 -29 -70 -29z
M361.998 1218c-28 0 -51.833 9.83105 -71.5 29.498s-29.5 42.834 -29.5 69.501c0 28 9.5 51.333 28.5 70s42.167 28 69.5 28s51 -9.5 71 -28.5s30 -42.167 30 -69.5s-9.66699 -50.666 -29 -69.999s-42.333 -29 -69 -29z" />
    <glyph glyph-name="igrave" unicode="&#xec;" horiz-adv-x="496" 
d="M330 0h-164v1024h164v-1024zM369 1218h-127l-262 328h168z" />
    <glyph glyph-name="iacute" unicode="&#xed;" horiz-adv-x="496" 
d="M330 0h-164v1024h164v-1024zM477 1546l-262 -328h-127l223 328h166z" />
    <glyph glyph-name="icircumflex" unicode="&#xee;" horiz-adv-x="496" 
d="M330 0h-164v1024h164v-1024zM519 1218h-122l-164 230l-165 -230h-113l215 332h133z" />
    <glyph glyph-name="idieresis" unicode="&#xef;" horiz-adv-x="496" 
d="M330 0h-164v1024h164v-1024zM430 1218c-26.667 0 -49.668 9.33105 -69.001 27.998s-29 42.334 -29 71.001c0 28 9.33301 51.333 28 70s41.334 28 68.001 28c28 0 51.667 -9.5 71 -28.5s29 -42.167 29 -69.5s-9.33301 -50.666 -28 -69.999s-42 -29 -70 -29zM45.999 1218
c-28 0 -51.833 9.83105 -71.5 29.498s-29.5 42.834 -29.5 69.501c0 28 9.5 51.333 28.5 70s42.167 28 69.5 28s51 -9.5 71 -28.5s30 -42.167 30 -69.5s-9.66699 -50.666 -29 -69.999s-42.333 -29 -69 -29z" />
    <glyph glyph-name="eth" unicode="&#xf0;" horiz-adv-x="1145" 
d="M786 968l3.99902 3.00098c-60 108 -126 196.667 -198 266l-299 -151l-51 98l270 131c-78.667 70 -166.667 137 -264 201h221c50 -34.667 107.333 -80 172 -136l289 144l55 -94l-264 -130c218 -204.667 327 -462.667 327 -774c0 -160 -43 -291.333 -129 -394
s-203 -154 -351 -154s-263.667 46.667 -347 140s-125 220.666 -125 381.999c0 162 43.333 293.5 130 394.5s203.334 151.5 350.001 151.5c82 0 152 -26 210 -78zM581.999 910.001c-98.667 0 -176.333 -36.167 -233 -108.5s-85 -170.833 -85 -295.5
c0 -120.667 27.667 -216.167 83 -286.5s132.333 -105.5 231 -105.5c92.667 0 166.167 36 220.5 108s81.5 168 81.5 288c0 266.667 -99.333 400 -298 400z" />
    <glyph glyph-name="ntilde" unicode="&#xf1;" horiz-adv-x="1159" 
d="M1016 0h-164v584c0 217.333 -79.333 326 -238 326c-82 0 -149.833 -30.833 -203.5 -92.5s-80.5 -139.5 -80.5 -233.5v-584h-164v1024h164v-170h4c77.333 129.333 189.333 194 336 194c112 0 197.667 -36.167 257 -108.5s89 -176.833 89 -313.5v-626zM908 1458
c0 -70 -16 -127.167 -48 -171.5s-75.333 -66.5 -130 -66.5c-47.333 0 -101.333 17.333 -162 52c-51.333 28.667 -91 43 -119 43c-58.667 0 -88 -37.667 -88 -113h-94c0 71.333 16 128.5 48 171.5s76.667 64.5 134 64.5c43.333 0 93 -17.333 149 -52
c49.333 -29.333 92 -44 128 -44c56 0 84 38.667 84 116h98z" />
    <glyph glyph-name="ograve" unicode="&#xf2;" horiz-adv-x="1200" 
d="M594 -24c-151.333 0 -272.169 47.832 -362.502 143.499s-135.5 222.5 -135.5 380.5c0 172 47 306.333 141 403s221 145 381 145c152.667 0 271.834 -47 357.501 -141s128.5 -224.333 128.5 -391c0 -163.333 -46.167 -294.166 -138.5 -392.499
s-216.166 -147.5 -371.499 -147.5zM605.997 909.999c-105.333 0 -188.667 -35.834 -250 -107.501s-92 -170.5 -92 -296.5c0 -121.333 31 -217 93 -287s145 -105 249 -105c106 0 187.5 34.333 244.5 103s85.5 166.334 85.5 293.001c0 128 -28.5 226.667 -85.5 296
s-138.5 104 -244.5 104zM746.996 1218h-127l-262 328h168z" />
    <glyph glyph-name="oacute" unicode="&#xf3;" horiz-adv-x="1200" 
d="M594 -24c-151.333 0 -272.169 47.832 -362.502 143.499s-135.5 222.5 -135.5 380.5c0 172 47 306.333 141 403s221 145 381 145c152.667 0 271.834 -47 357.501 -141s128.5 -224.333 128.5 -391c0 -163.333 -46.167 -294.166 -138.5 -392.499
s-216.166 -147.5 -371.499 -147.5zM605.997 909.999c-105.333 0 -188.667 -35.834 -250 -107.501s-92 -170.5 -92 -296.5c0 -121.333 31 -217 93 -287s145 -105 249 -105c106 0 187.5 34.333 244.5 103s85.5 166.334 85.5 293.001c0 128 -28.5 226.667 -85.5 296
s-138.5 104 -244.5 104zM845.996 1546l-262 -328h-127l223 328h166z" />
    <glyph glyph-name="ocircumflex" unicode="&#xf4;" horiz-adv-x="1200" 
d="M594 -24c-151.333 0 -272.169 47.832 -362.502 143.499s-135.5 222.5 -135.5 380.5c0 172 47 306.333 141 403s221 145 381 145c152.667 0 271.834 -47 357.501 -141s128.5 -224.333 128.5 -391c0 -163.333 -46.167 -294.166 -138.5 -392.499
s-216.166 -147.5 -371.499 -147.5zM605.997 909.999c-105.333 0 -188.667 -35.834 -250 -107.501s-92 -170.5 -92 -296.5c0 -121.333 31 -217 93 -287s145 -105 249 -105c106 0 187.5 34.333 244.5 103s85.5 166.334 85.5 293.001c0 128 -28.5 226.667 -85.5 296
s-138.5 104 -244.5 104zM884.996 1218h-122l-164 230l-165 -230h-113l215 332h133z" />
    <glyph glyph-name="otilde" unicode="&#xf5;" horiz-adv-x="1200" 
d="M594 -24c-151.333 0 -272.169 47.832 -362.502 143.499s-135.5 222.5 -135.5 380.5c0 172 47 306.333 141 403s221 145 381 145c152.667 0 271.834 -47 357.501 -141s128.5 -224.333 128.5 -391c0 -163.333 -46.167 -294.166 -138.5 -392.499
s-216.166 -147.5 -371.499 -147.5zM605.997 909.999c-105.333 0 -188.667 -35.834 -250 -107.501s-92 -170.5 -92 -296.5c0 -121.333 31 -217 93 -287s145 -105 249 -105c106 0 187.5 34.333 244.5 103s85.5 166.334 85.5 293.001c0 128 -28.5 226.667 -85.5 296
s-138.5 104 -244.5 104zM930.996 1458c0 -70 -16 -127.167 -48 -171.5s-75.333 -66.5 -130 -66.5c-47.333 0 -101.333 17.333 -162 52c-51.333 28.667 -91 43 -119 43c-58.667 0 -88 -37.667 -88 -113h-94c0 71.333 16 128.5 48 171.5s76.667 64.5 134 64.5
c43.333 0 93 -17.333 149 -52c49.333 -29.333 92 -44 128 -44c56 0 84 38.667 84 116h98z" />
    <glyph glyph-name="odieresis" unicode="&#xf6;" horiz-adv-x="1200" 
d="M594 -24c-151.333 0 -272.169 47.832 -362.502 143.499s-135.5 222.5 -135.5 380.5c0 172 47 306.333 141 403s221 145 381 145c152.667 0 271.834 -47 357.501 -141s128.5 -224.333 128.5 -391c0 -163.333 -46.167 -294.166 -138.5 -392.499
s-216.166 -147.5 -371.499 -147.5zM605.997 909.999c-105.333 0 -188.667 -35.834 -250 -107.501s-92 -170.5 -92 -296.5c0 -121.333 31 -217 93 -287s145 -105 249 -105c106 0 187.5 34.333 244.5 103s85.5 166.334 85.5 293.001c0 128 -28.5 226.667 -85.5 296
s-138.5 104 -244.5 104zM792.996 1218c-26.667 0 -49.668 9.33105 -69.001 27.998s-29 42.334 -29 71.001c0 28 9.33301 51.333 28 70s41.334 28 68.001 28c28 0 51.667 -9.5 71 -28.5s29 -42.167 29 -69.5s-9.33301 -50.666 -28 -69.999s-42 -29 -70 -29zM408.995 1218
c-28 0 -51.833 9.83105 -71.5 29.498s-29.5 42.834 -29.5 69.501c0 28 9.5 51.333 28.5 70s42.167 28 69.5 28s51 -9.5 71 -28.5s30 -42.167 30 -69.5s-9.66699 -50.666 -29 -69.999s-42.333 -29 -69 -29z" />
    <glyph glyph-name="divide" unicode="&#xf7;" horiz-adv-x="1401" 
d="M708 868c-29.333 0 -54 10.168 -74 30.501s-30 45.166 -30 74.499c0 30 9.66699 55.667 29 77s44.333 32 75 32c68.667 0 103 -35.667 103 -107c0 -31.333 -10.167 -57 -30.5 -77s-44.5 -30 -72.5 -30zM1172 530.001h-940v134h940v-134zM704 112.001
c-29.333 0 -54.333 10 -75 30s-31 44.333 -31 73c0 30 10 56 30 78s45.333 33 76 33c67.333 0 101 -36.333 101 -109c0 -30 -9.66699 -55 -29 -75s-43.333 -30 -72 -30z" />
    <glyph glyph-name="oslash" unicode="&#xf8;" horiz-adv-x="1200" 
d="M1174 1048l-168 -179.999c65.333 -92 98 -207.333 98 -346c0 -168 -46.333 -301 -139 -399s-216.334 -147 -371.001 -147c-128 0 -234 34 -318 102l-145 -160l-82 78l149 164c-68 91.333 -102 204.666 -102 339.999c0 172 47.333 306.333 142 403s222 145 382 145
c122.667 0 225.334 -32.667 308.001 -98l162 176zM821 836.001c-52.667 49.333 -124.333 74 -215 74c-106 0 -189.5 -35.833 -250.5 -107.5s-91.5 -170.5 -91.5 -296.5c0 -88 16.667 -162.667 50 -224zM891.001 742.001l-508 -552c58 -50.667 131.667 -76 221 -76
c108.667 0 191.5 34.667 248.5 104s85.5 167.333 85.5 294c0 89.333 -15.667 166 -47 230z" />
    <glyph glyph-name="ugrave" unicode="&#xf9;" horiz-adv-x="1159" 
d="M994 0h-164v162h-4c-68 -124 -173.333 -186 -316 -186c-244 0 -366 145.333 -366 436v612h163v-586c0 -216 82.667 -324 248 -324c80 0 145.833 29.5 197.5 88.5s77.5 136.167 77.5 231.5v590h164v-1024zM705 1218h-127l-262 328h168z" />
    <glyph glyph-name="uacute" unicode="&#xfa;" horiz-adv-x="1159" 
d="M994 0h-164v162h-4c-68 -124 -173.333 -186 -316 -186c-244 0 -366 145.333 -366 436v612h163v-586c0 -216 82.667 -324 248 -324c80 0 145.833 29.5 197.5 88.5s77.5 136.167 77.5 231.5v590h164v-1024zM840 1546l-262 -328h-127l223 328h166z" />
    <glyph glyph-name="ucircumflex" unicode="&#xfb;" horiz-adv-x="1159" 
d="M994 0h-164v162h-4c-68 -124 -173.333 -186 -316 -186c-244 0 -366 145.333 -366 436v612h163v-586c0 -216 82.667 -324 248 -324c80 0 145.833 29.5 197.5 88.5s77.5 136.167 77.5 231.5v590h164v-1024zM854 1218h-122l-164 230l-165 -230h-113l215 332h133z" />
    <glyph glyph-name="udieresis" unicode="&#xfc;" horiz-adv-x="1159" 
d="M994 0h-164v162h-4c-68 -124 -173.333 -186 -316 -186c-244 0 -366 145.333 -366 436v612h163v-586c0 -216 82.667 -324 248 -324c80 0 145.833 29.5 197.5 88.5s77.5 136.167 77.5 231.5v590h164v-1024zM770 1218c-26.667 0 -49.668 9.33105 -69.001 27.998
s-29 42.334 -29 71.001c0 28 9.33301 51.333 28 70s41.334 28 68.001 28c28 0 51.667 -9.5 71 -28.5s29 -42.167 29 -69.5s-9.33301 -50.666 -28 -69.999s-42 -29 -70 -29zM385.999 1218c-28 0 -51.833 9.83105 -71.5 29.498s-29.5 42.834 -29.5 69.501
c0 28 9.5 51.333 28.5 70s42.167 28 69.5 28s51 -9.5 71 -28.5s30 -42.167 30 -69.5s-9.66699 -50.666 -29 -69.999s-42.333 -29 -69 -29z" />
    <glyph glyph-name="yacute" unicode="&#xfd;" horiz-adv-x="991" 
d="M981 1024l-470.998 -1188c-84 -212 -202 -318 -354 -318c-42.667 0 -78.334 4.33301 -107.001 13v147c35.333 -12 67.666 -18 96.999 -18c82.667 0 144.667 49.333 186 148l82 194l-400 1022h182l277 -788c3.33301 -10 10.333 -36 21 -78h6c3.33301 16 10 41.333 20 76
l291 790h170zM762.002 1546l-262 -328h-127l223 328h166z" />
    <glyph glyph-name="thorn" unicode="&#xfe;" horiz-adv-x="1204" 
d="M334 148h-4v-619h-164v1987h164v-672h4c80.667 136 198.667 204 354 204c132 0 235 -45.833 309 -137.5s111 -214.5 111 -368.5c0 -171.333 -41.667 -308.5 -125 -411.5s-197.333 -154.5 -342 -154.5c-132.667 0 -235 57.333 -307 172zM330 561l0.000976562 -143
c0 -84.667 27.5 -156.5 82.5 -215.5s124.833 -88.5 209.5 -88.5c99.333 0 177.166 38 233.499 114s84.5 181.667 84.5 317c0 114 -26.333 203.333 -79 268s-124 97 -214 97c-95.333 0 -172 -33.167 -230 -99.5s-87 -149.5 -87 -249.5z" />
    <glyph glyph-name="ydieresis" unicode="&#xff;" horiz-adv-x="991" 
d="M981 1024l-470.998 -1188c-84 -212 -202 -318 -354 -318c-42.667 0 -78.334 4.33301 -107.001 13v147c35.333 -12 67.666 -18 96.999 -18c82.667 0 144.667 49.333 186 148l82 194l-400 1022h182l277 -788c3.33301 -10 10.333 -36 21 -78h6c3.33301 16 10 41.333 20 76
l291 790h170zM689.002 1218c-26.667 0 -49.668 9.33105 -69.001 27.998s-29 42.334 -29 71.001c0 28 9.33301 51.333 28 70s41.334 28 68.001 28c28 0 51.667 -9.5 71 -28.5s29 -42.167 29 -69.5s-9.33301 -50.666 -28 -69.999s-42 -29 -70 -29zM305.001 1218
c-28 0 -51.833 9.83105 -71.5 29.498s-29.5 42.834 -29.5 69.501c0 28 9.5 51.333 28.5 70s42.167 28 69.5 28s51 -9.5 71 -28.5s30 -42.167 30 -69.5s-9.66699 -50.666 -29 -69.999s-42.333 -29 -69 -29z" />
    <glyph glyph-name="Abreve" unicode="&#x102;" horiz-adv-x="1321" 
d="M1298 0h-186l-152 402h-608l-143 -402h-187l550 1434h174zM905 553l-225 611c-7.33301 20 -14.666 52 -21.999 96h-4c-6.66699 -40.667 -14.334 -72.667 -23.001 -96l-223 -611h497zM932 1819c-6.66699 -75.333 -36.167 -136.167 -88.5 -182.5
s-115.833 -69.5 -190.5 -69.5c-78 0 -141.667 23 -191 69s-75.666 107 -78.999 183h100c8 -103.333 65.333 -155 172 -155c45.333 0 84.166 14 116.499 42s51.833 65.667 58.5 113h102z" />
    <glyph glyph-name="abreve" unicode="&#x103;" horiz-adv-x="1042" 
d="M899 0l-164.001 0.000976562v160h-4c-71.333 -122.667 -176.333 -184 -315 -184c-102 0 -181.833 27 -239.5 81s-86.5 125.667 -86.5 215c0 191.333 112.667 302.666 338 333.999l307 43c0 174 -70.333 261 -211 261c-123.333 0 -234.666 -42 -333.999 -126v168
c100.667 64 216.667 96 348 96c240.667 0 361 -127.333 361 -382v-666zM734.999 518.001l-247 -34c-76 -10.667 -133.333 -29.5 -172 -56.5s-58 -74.833 -58 -143.5c0 -50 17.833 -90.833 53.5 -122.5s83.167 -47.5 142.5 -47.5c81.333 0 148.5 28.5 201.5 85.5
s79.5 129.167 79.5 216.5v102zM804.999 1470c-6.66699 -75.333 -36.167 -136.167 -88.5 -182.5s-115.833 -69.5 -190.5 -69.5c-78 0 -141.667 23 -191 69s-75.666 107 -78.999 183h100c8 -103.333 65.333 -155 172 -155c45.333 0 84.166 14 116.499 42
s51.833 65.667 58.5 113h102z" />
    <glyph glyph-name="Dcroat" unicode="&#x110;" horiz-adv-x="1436" 
d="M188 0l-0.000976562 641.001h-160v155h160v638h396c505.333 0 758 -233 758 -699c0 -222.667 -70.167 -400.834 -210.5 -534.501s-328.166 -200.5 -563.499 -200.5h-380zM355.999 1282v-486.001h336v-155h-336v-489h214c188 0 334.333 50.333 439 151
s157 243.334 157 428.001c0 367.333 -195.333 551 -586 551h-224z" />
    <glyph glyph-name="dcroat" unicode="&#x111;" horiz-adv-x="1206" 
d="M1040 0h-164v174h-4c-76 -132 -193.333 -198 -352 -198c-128.667 0 -231.5 45.833 -308.5 137.5s-115.5 216.5 -115.5 374.5c0 169.333 42.667 305 128 407s199 153 341 153c138.667 0 241 -55.333 307 -166h4v320h-331v134h331v180h164v-180h136v-134h-136v-1202z
M876 463v150.999c0 82.667 -27.333 152.667 -82 210s-124 86 -208 86c-100 0 -178.667 -36.667 -236 -110s-86 -174.666 -86 -303.999c0 -118 27.5 -211.167 82.5 -279.5s128.833 -102.5 221.5 -102.5c90.667 0 164.667 33 222 99s86 149.333 86 250z" />
    <glyph glyph-name="dotlessi" unicode="&#x131;" horiz-adv-x="496" 
d="M330 0h-164v1024h164v-1024z" />
    <glyph glyph-name="Lslash" unicode="&#x141;" horiz-adv-x="964" 
d="M932 0h-744v547l-155 -97v152l155 96v736h168v-631l328 203v-154l-328 -200v-500h576v-152z" />
    <glyph glyph-name="lslash" unicode="&#x142;" horiz-adv-x="561" 
d="M530 811l-174 -123v-688h-164v578l-170 -119v157l170 119v781h164v-670l174 122v-157z" />
    <glyph glyph-name="OE" unicode="&#x152;" horiz-adv-x="1906" 
d="M1810 0h-720c-10.667 -0 -56.667 -4.66699 -138 -14c-65.333 -6.66699 -126 -10 -182 -10c-208 0 -372.667 67 -494 201s-182 308.333 -182 523c0 230.667 63.167 414.667 189.5 552s297.833 206 514.5 206c60 0 119.333 -3.33301 178 -10
c74.667 -9.33301 112.667 -14 114 -14h688v-152h-560v-477h518v-151h-518v-502h592v-152zM1050 160l0.000976562 1118c-106.667 18.667 -196 28 -268 28c-152.667 0 -276.167 -55.333 -370.5 -166s-141.5 -252.334 -141.5 -425.001c0 -172 46.5 -313 139.5 -423
s215.167 -165 366.5 -165c77.333 0 168.666 11 273.999 33z" />
    <glyph glyph-name="oe" unicode="&#x153;" horiz-adv-x="1900" 
d="M1825 471l-724.999 0.00195312c2 -114 32.5 -202 91.5 -264s139.833 -93 242.5 -93c116.667 0 223 38 319 114v-154c-90.667 -65.333 -209.667 -98 -357 -98c-180 0 -307.333 79 -382 237h-4c-87.333 -158 -226 -237 -416 -237c-152.667 0 -273.834 47.667 -363.501 143
s-134.5 221.666 -134.5 378.999c0 172 47.333 306.667 142 404s222 146 382 146c196 0 330 -78.333 402 -235h4c79.333 156.667 207.666 235 384.999 235c130.667 0 232.334 -43.833 305.001 -131.5s109 -206.834 109 -357.501v-88zM1657 610.002
c-1.33301 94.667 -24.332 168.333 -68.999 221s-105.667 79 -183 79c-80 0 -147.833 -28.5 -203.5 -85.5s-88.834 -128.5 -99.501 -214.5h555zM606.002 910.001c-105.333 0 -188.666 -36.167 -249.999 -108.5s-92 -172.166 -92 -299.499c0 -120 30.667 -214.667 92 -284
s144 -104 248 -104c106 0 187.833 34.167 245.5 102.5s86.5 165.5 86.5 291.5c0 129.333 -28.833 228.666 -86.5 297.999s-138.834 104 -243.501 104z" />
    <glyph glyph-name="Scaron" unicode="&#x160;" horiz-adv-x="1088" 
d="M121 58l-0.000976562 198c22.667 -20 49.834 -38 81.501 -54s65 -29.5 100 -40.5s70.167 -19.5 105.5 -25.5s68 -9 98 -9c103.333 0 180.5 19.167 231.5 57.5s76.5 93.5 76.5 165.5c0 38.667 -8.5 72.334 -25.5 101.001s-40.5 54.834 -70.5 78.501
s-65.5 46.334 -106.5 68.001l-132.5 68.5c-50 25.333 -96.667 51 -140 77s-81 54.667 -113 86s-57.167 66.833 -75.5 106.5s-27.5 86.167 -27.5 139.5c0 65.333 14.333 122.166 43 170.499s66.334 88.166 113.001 119.499s99.834 54.666 159.501 69.999s120.5 23 182.5 23
c141.333 0 244.333 -17 309 -51v-189c-84.667 58.667 -193.334 88 -326.001 88c-36.667 0 -73.334 -3.83301 -110.001 -11.5s-69.334 -20.167 -98.001 -37.5s-52 -39.666 -70 -66.999s-27 -60.666 -27 -99.999c0 -36.667 6.83301 -68.334 20.5 -95.001
s33.834 -51 60.501 -73s59.167 -43.333 97.5 -64s82.5 -43.334 132.5 -68.001c51.333 -25.333 100 -52 146 -80s86.333 -59 121 -93s62.167 -71.667 82.5 -113s30.5 -88.666 30.5 -141.999c0 -70.667 -13.833 -130.5 -41.5 -179.5s-65 -88.833 -112 -119.5
s-101.167 -52.834 -162.5 -66.501s-126 -20.5 -194 -20.5c-22.667 0 -50.667 1.83301 -84 5.5s-67.333 9 -102 16s-67.5 15.667 -98.5 26s-55.833 21.833 -74.5 34.5zM825.999 1898l-214 -330h-132l-216 330h115l164 -229l164 229h119z" />
    <glyph glyph-name="scaron" unicode="&#x161;" horiz-adv-x="869" 
d="M104 37l-0.000976562 176c89.333 -66 187.666 -99 294.999 -99c144 0 216 48 216 144c0 27.333 -6.16699 50.5 -18.5 69.5s-29 35.833 -50 50.5s-45.667 27.834 -74 39.501l-91.5 36.5c-45.333 18 -85.166 36.167 -119.499 54.5s-63 39 -86 62s-40.333 49.167 -52 78.5
s-17.5 63.666 -17.5 102.999c0 48 11 90.5 33 127.5s51.333 68 88 93s78.5 43.833 125.5 56.5s95.5 19 145.5 19c88.667 0 168 -15.333 238 -46v-166c-75.333 49.333 -162 74 -260 74c-30.667 0 -58.334 -3.5 -83.001 -10.5s-45.834 -16.833 -63.501 -29.5
s-31.334 -27.834 -41.001 -45.501s-14.5 -37.167 -14.5 -58.5c0 -26.667 4.83301 -49 14.5 -67s23.834 -34 42.501 -48s41.334 -26.667 68.001 -38l91 -37c45.333 -17.333 86 -35.166 122 -53.499s66.667 -39 92 -62s44.833 -49.5 58.5 -79.5s20.5 -65.667 20.5 -107
c0 -50.667 -11.167 -94.667 -33.5 -132s-52.166 -68.333 -89.499 -93s-80.333 -43 -129 -55s-99.667 -18 -153 -18c-105.333 0 -196.666 20.333 -273.999 61zM681.999 1548l-214 -330h-132l-216 330h115l164 -229l164 229h119z" />
    <glyph glyph-name="Ydieresis" unicode="&#x178;" horiz-adv-x="1132" 
d="M1120 1434l-473.001 -904v-530h-168v526l-461 908h191l321 -648c4 -8 15.667 -37.333 35 -88h3c6.66699 22.667 19.334 52 38.001 88l336 648h178zM758.999 1565c-26.667 0 -49.668 9.33105 -69.001 27.998s-29 42.334 -29 71.001c0 28 9.33301 51.333 28 70
s41.334 28 68.001 28c28 0 51.667 -9.5 71 -28.5s29 -42.167 29 -69.5s-9.33301 -50.666 -28 -69.999s-42 -29 -70 -29zM374.998 1565c-28 0 -51.833 9.83105 -71.5 29.498s-29.5 42.834 -29.5 69.501c0 28 9.5 51.333 28.5 70s42.167 28 69.5 28s51 -9.5 71 -28.5
s30 -42.167 30 -69.5s-9.66699 -50.666 -29 -69.999s-42.333 -29 -69 -29z" />
    <glyph glyph-name="Zcaron" unicode="&#x17d;" horiz-adv-x="1168" 
d="M1124 1394l-840 -1242h820v-152h-1071v47l833 1235h-766v152h1024v-40zM900 1895l-214 -330h-132l-216 330h115l164 -229l164 229h119z" />
    <glyph glyph-name="zcaron" unicode="&#x17e;" horiz-adv-x="926" 
d="M880 977l-606 -837h600v-140h-841v51l606 833h-549v140h790v-47zM782 1548l-214 -330h-132l-216 330h115l164 -229l164 229h119z" />
    <glyph glyph-name="florin" unicode="&#x192;" horiz-adv-x="1104" 
d="M952 1266c-32 18.667 -67.999 28 -107.999 28c-97.333 0 -154 -53.333 -170 -160l-31 -208h166v-138h-187l-90 -648c-38.667 -278.667 -154.667 -418 -348 -418c-20.667 0 -50.667 5.33301 -90 16v143c24 -14 52.667 -21 86 -21c100 0 163.333 97.333 190 292l91 636
h-103v138h124l28 219c11.333 87.333 46.166 157.333 104.499 210s132.166 79 221.499 79c42.667 0 81.334 -6.33301 116.001 -19v-149z" />
    <glyph glyph-name="Ohorn" unicode="&#x1a0;" horiz-adv-x="1562" 
d="M1167 1347c32 -6 58.665 -9.00098 79.998 -9.00098c142.667 0 214 43.333 214 130c0 48 -7 91.333 -21 130h136c12 -36 18 -80.667 18 -134c0 -72 -23.333 -130.333 -70 -175s-110.667 -67 -192 -67h-34c101.333 -129.333 152 -291.666 152 -486.999
c0 -234 -62 -419 -186 -555s-290 -204 -498 -204c-203.333 0 -366.166 67 -488.499 201s-183.5 308.333 -183.5 523c0 230.667 62.333 414.667 187 552s294.334 206 509.001 206c144 0 269.667 -37 377 -111zM777.998 1306c-150.667 0 -273 -54.3311 -367 -162.998
s-141 -251.334 -141 -428.001s45.833 -318.834 137.5 -426.501s211.167 -161.5 358.5 -161.5c157.333 0 281.333 51.333 372 154s136 246.334 136 431.001c0 189.333 -44 335.666 -132 438.999s-209.333 155 -364 155z" />
    <glyph glyph-name="ohorn" unicode="&#x1a1;" horiz-adv-x="1223" 
d="M1040 1276l133.998 -0.00292969c12.667 -37.333 19 -82.666 19 -135.999c0 -128 -73 -205.333 -219 -232c86.667 -94 130 -224.667 130 -392c0 -163.333 -46.167 -294.166 -138.5 -392.499s-216.166 -147.5 -371.499 -147.5c-151.333 0 -272.166 47.833 -362.499 143.5
s-135.5 222.5 -135.5 380.5c0 172 47 306.333 141 403s221 145 381 145c32 0 76.667 -4.66699 134 -14c40.667 -6.66699 97.334 -10 170.001 -10c39.333 0 72.166 11.833 98.499 35.5s39.5 52.167 39.5 85.5c0 48.667 -6.66699 92.334 -20 131.001zM605.998 909.997
c-105.333 0 -188.667 -35.834 -250 -107.501s-92 -170.5 -92 -296.5c0 -121.333 31 -217 93 -287s145 -105 249 -105c106 0 187.5 34.333 244.5 103s85.5 166.334 85.5 293.001c0 128 -28.5 226.667 -85.5 296s-138.5 104 -244.5 104z" />
    <glyph glyph-name="Uhorn" unicode="&#x1af;" horiz-adv-x="1450" 
d="M1237 580c0 -402.667 -181.667 -604.002 -545 -604.002c-348 0 -522 193.667 -522 581v877h168v-866c0 -294 124 -441 372 -441c239.333 0 359 142 359 426v881h147c40 0 73.167 11.833 99.5 35.5s39.5 51.834 39.5 84.501c0 49.333 -7 93.333 -21 132h136
c12 -37.333 18 -82.666 18 -135.999c0 -140 -83.667 -220.333 -251 -241v-729z" />
    <glyph glyph-name="uhorn" unicode="&#x1b0;" horiz-adv-x="1204" 
d="M994 0l-163.999 -0.00195312v162h-4c-68 -124 -173.333 -186 -316 -186c-244 0 -366 145.333 -366 436v612h163v-586c0 -216 82.667 -324 248 -324c80 0 145.833 29.5 197.5 88.5s77.5 136.167 77.5 231.5v590h122c39.333 0 72.166 11.833 98.499 35.5
s39.5 52.167 39.5 85.5c0 48.667 -6.66699 92.334 -20 131.001h134c12.667 -37.333 19 -82.666 19 -135.999c0 -132 -76.333 -210 -229 -234v-906z" />
    <glyph glyph-name="circumflex" unicode="&#x2c6;" horiz-adv-x="760" 
d="M656 1218h-122l-164 230l-165 -230h-113l215 332h133z" />
    <glyph glyph-name="caron" unicode="&#x2c7;" horiz-adv-x="760" 
d="M664 1548l-214 -330h-132l-216 330h115l164 -229l164 229h119z" />
    <glyph glyph-name="uni02C9" unicode="&#x2c9;" horiz-adv-x="635" 
d="M570 1218h-508v109h508v-109z" />
    <glyph glyph-name="breve" unicode="&#x2d8;" horiz-adv-x="622" 
d="M586 1470c-6.66699 -75.333 -36.167 -136.167 -88.5 -182.5s-115.833 -69.5 -190.5 -69.5c-78 0 -141.667 23 -191 69s-75.666 107 -78.999 183h100c8 -103.333 65.333 -155 172 -155c45.333 0 84.166 14 116.499 42s51.833 65.667 58.5 113h102z" />
    <glyph glyph-name="dotaccent" unicode="&#x2d9;" horiz-adv-x="412" 
d="M207 1218c-26.667 0 -49.832 9.49707 -69.499 28.4971s-29.5 42.5 -29.5 70.5c0 26.667 9.66699 49.334 29 68.001s42.666 28 69.999 28s50.5 -9.16699 69.5 -27.5s28.5 -41.166 28.5 -68.499s-9.5 -50.666 -28.5 -69.999s-42.167 -29 -69.5 -29z" />
    <glyph glyph-name="ring" unicode="&#x2da;" horiz-adv-x="574" 
d="M284 1176c-58 0 -106.166 17.5 -144.499 52.5s-57.5 80.833 -57.5 137.5c0 60 19.667 108 59 144s89.333 54 150 54c59.333 0 108 -18 146 -54s57 -82 57 -138s-20.333 -102.667 -61 -140s-90.334 -56 -149.001 -56zM284.001 1483c-32 0 -58.667 -10.833 -80 -32.5
s-32 -48.5 -32 -80.5c0 -74.667 37.333 -112 112 -112c33.333 0 61 10.667 83 32s33 48 33 80c0 32.667 -11 59.667 -33 81s-49.667 32 -83 32z" />
    <glyph glyph-name="ogonek" unicode="&#x2db;" horiz-adv-x="379" 
d="M338 0c-100 -94 -149.999 -168.333 -149.999 -223c0 -46.667 22.667 -70 68 -70c20 0 38.667 4.33301 56 13v-107c-20 -8.66699 -47.333 -13 -82 -13c-50.667 0 -91.334 13.333 -122.001 40s-46 63.334 -46 110.001c0 81.333 52.333 164.666 157 249.999h119z" />
    <glyph glyph-name="tilde" unicode="&#x2dc;" horiz-adv-x="690" 
d="M676 1458c0 -70 -16 -127.167 -48 -171.5s-75.333 -66.5 -130 -66.5c-47.333 0 -101.333 17.333 -162 52c-51.333 28.667 -91 43 -119 43c-58.667 0 -88 -37.667 -88 -113h-94c0 71.333 16 128.5 48 171.5s76.667 64.5 134 64.5c43.333 0 93 -17.333 149 -52
c49.333 -29.333 92 -44 128 -44c56 0 84 38.667 84 116h98z" />
    <glyph glyph-name="hungarumlaut" unicode="&#x2dd;" horiz-adv-x="664" 
d="M647 1536l-245 -318h-97l209 318h133zM400 1536l-240 -318h-96l206 318h130z" />
    <glyph glyph-name="gravecomb" unicode="&#x300;" horiz-adv-x="549" 
d="M450 1218h-126l-222 246h168z" />
    <glyph glyph-name="acutecomb" unicode="&#x301;" horiz-adv-x="549" 
d="M100 1218l180 246h168l-220 -246h-128z" />
    <glyph glyph-name="tildecomb" unicode="&#x303;" 
d="M322 1458c0 -70 -15.999 -127.167 -47.999 -171.5s-75.333 -66.5 -130 -66.5c-47.333 0 -101.333 17.333 -162 52c-51.333 28.667 -91 43 -119 43c-59.333 0 -89 -37.667 -89 -113h-94c0 70.667 16.167 127.667 48.5 171s77.166 65 134.499 65
c43.333 0 93 -17.333 149 -52c49.333 -29.333 92 -44 128 -44c55.333 0 83 38.667 83 116h99z" />
    <glyph glyph-name="hookabovecomb" unicode="&#x309;" horiz-adv-x="622" 
d="M171 1571c24.667 2.66699 51.332 4 79.999 4c58.667 0 106.834 -14 144.501 -42s56.5 -65.667 56.5 -113c0 -40.667 -12.833 -75 -38.5 -103s-57.5 -44.333 -95.5 -49v-50h-108v115c74.667 0 112 25.333 112 76c0 42 -31.333 63 -94 63
c-11.333 0 -30.333 -2.66699 -57 -8v107z" />
    <glyph glyph-name="dotbelowcomb" unicode="&#x323;" horiz-adv-x="682" 
d="M341 -314c-27.333 0 -50.667 9.66699 -70 29s-29 42.666 -29 69.999s10 50.166 30 68.499s43 27.5 69 27.5c27.333 0 50.666 -9.16699 69.999 -27.5s29 -41.166 29 -68.499s-9.66699 -50.666 -29 -69.999s-42.666 -29 -69.999 -29z" />
    <glyph glyph-name="pi" unicode="&#x3c0;" horiz-adv-x="1284" 
d="M1199 891h-221.999v-619c0 -93.333 33.667 -140 101 -140c22.667 0 52 6.33301 88 19v-140c-40.667 -15.333 -81.334 -23 -122.001 -23c-154.667 0 -232 92.333 -232 277v626h-389v-611c0 -128 -10.667 -221.333 -32 -280h-167c24 58 36 151.333 36 280v611
c-82 -2 -163 -31.667 -243 -89v150c50 48 131.667 72 245 72h937v-133z" />
    <glyph glyph-name="uni0E01" unicode="&#xe01;" horiz-adv-x="1175" 
d="M143 0v375.001c0 58 16.833 104.667 50.5 140s81.5 61.666 143.5 78.999h-221v110c9.33301 47.333 25.833 91.5 49.5 132.5s54.5 76.833 92.5 107.5s83.333 54.667 136 72s112.667 26 180 26c82.667 0 153 -10.167 211 -30.5s105.333 -48.5 142 -84.5
s63.334 -79 80.001 -129s25 -105 25 -165v-633h-150v623c0 92 -25.167 162.833 -75.5 212.5s-127.5 74.5 -231.5 74.5c-48 0 -90.333 -6.16699 -127 -18.5s-67.834 -28.166 -93.501 -47.499s-46 -41 -61 -65s-24.5 -47.667 -28.5 -71h243v-118
c-71.333 -14 -125 -39.833 -161 -77.5s-54 -86.834 -54 -147.501v-365h-150z" />
    <glyph glyph-name="uni0E02" unicode="&#xe02;" horiz-adv-x="1235" 
d="M37 720c0 36 6.16504 73.0029 18.498 111.003s32.666 72.667 60.999 104s65.666 57 111.999 77s103.5 30 171.5 30c60.667 0 113 -6.66699 157 -20s80.833 -32 110.5 -56s52.667 -52.5 69 -85.5s27.833 -69.167 34.5 -108.5c-66 -20.667 -117 -61.167 -153 -121.5
s-54 -137.166 -54 -230.499v-286h203c51.333 0 91.666 13.167 120.999 39.5s44 63.166 44 110.499v740h150v-750c0 -32.667 -4.5 -65.334 -13.5 -98.001s-25.167 -62 -48.5 -88s-54.166 -47.167 -92.499 -63.5s-87.166 -24.5 -146.499 -24.5h-367v422
c0 93.333 17.333 168.666 52 225.999s86.334 99.333 155.001 126c-2 15.333 -7.16699 31.5 -15.5 48.5s-20.833 32.5 -37.5 46.5s-39.167 25.5 -67.5 34.5s-63.5 13.5 -105.5 13.5c-47.333 0 -89.666 -6.83301 -126.999 -20.5s-64 -33.167 -80 -58.5
c3.33301 1.33301 8.5 2.33301 15.5 3s13.167 1 18.5 1c24.667 0 47.5 -4.33301 68.5 -13s39.167 -20.667 54.5 -36s27.333 -33.5 36 -54.5s13 -43.833 13 -68.5s-4.33301 -47.5 -13 -68.5s-20.667 -39.333 -36 -55s-33.5 -27.834 -54.5 -36.501s-43.833 -13 -68.5 -13
c-30.667 0 -57.667 5.66699 -81 17s-42.666 26.833 -57.999 46.5s-26.833 43.167 -34.5 70.5s-11.5 57 -11.5 89zM298.998 669.003c0 21.333 -7.66895 39.668 -23.002 55.001s-33.666 23 -54.999 23c-10.667 0 -20.667 -2 -30 -6s-17.5 -9.5 -24.5 -16.5
s-12.5 -15.333 -16.5 -25s-6 -19.834 -6 -30.501c0 -21.333 7.5 -39.5 22.5 -54.5s33.167 -22.5 54.5 -22.5c10.667 0 20.834 2 30.501 6s18 9.5 25 16.5s12.5 15.167 16.5 24.5s6 19.333 6 30z" />
    <glyph glyph-name="uni0E03" unicode="&#xe03;" horiz-adv-x="1260" 
d="M37 655c0 40.667 4.83203 80.5029 14.499 119.503s23.5 75.167 41.5 108.5s40 63 66 89s55 46.667 87 62l149 -135l129 135c34 -3.33301 66.167 -11.166 96.5 -23.499s57 -29.333 80 -51s41.333 -48 55 -79s20.5 -67.167 20.5 -108.5
c-68 -20.667 -120.333 -61.167 -157 -121.5s-55 -137.166 -55 -230.499v-286h217c54.667 0 97.667 13.167 129 39.5s47 63.166 47 110.499v740h150v-750c0 -32.667 -4.66699 -65.334 -14 -98.001s-26 -62 -50 -88s-56 -47.167 -96 -63.5s-90.667 -24.5 -152 -24.5h-381v422
c0 93.333 17.833 168.666 53.5 225.999s88.5 99.333 158.5 126c0 13.333 -1.83301 27.166 -5.5 41.499s-9.66699 27.666 -18 39.999s-18.833 22.833 -31.5 31.5s-28 15.334 -46 20.001l-130 -133l-147 133c-10.667 -7.33301 -20.5 -15.333 -29.5 -24s-17 -18.167 -24 -28.5
s-12.5 -21 -16.5 -32s-6.66699 -22.833 -8 -35.5c6 3.33301 14.333 5.83301 25 7.5s19.667 2.5 27 2.5c24.667 0 47.5 -4.33301 68.5 -13s39.167 -20.667 54.5 -36s27.333 -33.5 36 -54.5s13 -43.833 13 -68.5s-4.33301 -47.5 -13 -68.5s-20.667 -39.333 -36 -55
s-33.5 -27.834 -54.5 -36.501s-43.833 -13 -68.5 -13c-30.667 0 -57.667 5 -81 15s-42.666 24.167 -57.999 42.5s-26.833 39.833 -34.5 64.5s-11.5 51.667 -11.5 81zM298.999 624.003c0 21.333 -7.66895 39.668 -23.002 55.001s-33.666 23 -54.999 23
c-10.667 0 -20.667 -2 -30 -6s-17.5 -9.5 -24.5 -16.5s-12.5 -15.333 -16.5 -25s-6 -19.834 -6 -30.501c0 -21.333 7.5 -39.5 22.5 -54.5s33.167 -22.5 54.5 -22.5c10.667 0 20.834 2 30.501 6s18 9.5 25 16.5s12.5 15.167 16.5 24.5s6 19.333 6 30z" />
    <glyph glyph-name="uni0E04" unicode="&#xe04;" horiz-adv-x="1177" 
d="M427 531c-10.667 -10.667 -21.9922 -25.168 -33.9922 -43.501s-23.333 -40 -34 -65s-19.5 -54.167 -26.5 -87.5s-10.5 -73 -10.5 -119v-216h-150v274c-0.666992 32 -4.83398 62.333 -12.501 91l-24.5 87.5c-8.66699 29.667 -16.667 61.334 -24 95.001
s-11 71.834 -11 114.501c0 62 10.833 116.667 32.5 164s52.667 87 93 119s89.166 56.167 146.499 72.5s121.666 24.5 192.999 24.5c152 0 268.167 -33.833 348.5 -101.5s120.5 -170.167 120.5 -307.5v-633h-150v623c0 37.333 -5.33301 73.333 -16 108
s-28.334 65.167 -53.001 91.5s-57.334 47.333 -98.001 63s-91.334 23.5 -152.001 23.5c-58 0 -107 -7.66699 -147 -23s-72.5 -34.833 -97.5 -58.5s-43 -50.167 -54 -79.5s-16.5 -58 -16.5 -86c0 -40 4.5 -77.833 13.5 -113.5l25.5 -98.5c15.333 32 32.333 62.667 51 92
s39.667 55.166 63 77.499s49.666 40.166 78.999 53.499s62 20 98 20c26.667 0 51.667 -3.83301 75 -11.5s43.5 -19 60.5 -34s30.333 -33.5 40 -55.5s14.5 -47 14.5 -75c0 -24.667 -4.33301 -47.5 -13 -68.5s-20.834 -39.167 -36.501 -54.5s-34 -27.333 -55 -36
s-43.833 -13 -68.5 -13s-47.5 4.33301 -68.5 13s-39.167 20.667 -54.5 36s-27.333 33.5 -36 54.5s-13 43.833 -13 68.5c0 6.66699 0.666992 11.334 2 14.001zM598.008 439.999c10.667 0 20.6689 1.99805 30.002 5.99805s17.5 9.5 24.5 16.5s12.5 15.333 16.5 25
s6 19.834 6 30.501c0 21.333 -7.5 39.5 -22.5 54.5s-33.167 22.5 -54.5 22.5c-10.667 0 -20.834 -2 -30.501 -6s-18 -9.5 -25 -16.5s-12.5 -15.167 -16.5 -24.5s-6 -19.333 -6 -30c0 -21.333 7.66699 -39.666 23 -54.999s33.666 -23 54.999 -23z" />
    <glyph glyph-name="uni0E05" unicode="&#xe05;" horiz-adv-x="1177" 
d="M322 0l-149.999 -0.00488281v274c-0.666992 32 -4.83398 62.333 -12.501 91l-24.5 87.5c-8.66699 29.667 -16.667 61.334 -24 95.001s-11 71.834 -11 114.501c0 61.333 8.83301 114 26.5 158s40.834 80.833 69.501 110.5s61 52.834 97 69.501s72.333 28 109 34l163 -165
l162 163c41.333 -5.33301 80.5 -16.166 117.5 -32.499s69.5 -40.333 97.5 -72s50.333 -71.5 67 -119.5s25 -106.333 25 -175v-633h-150v623c0 36 -2.5 69.167 -7.5 99.5s-13.167 57 -24.5 80s-26.333 41.833 -45 56.5s-41.667 24.334 -69 29.001l-173 -165l-174 165
c-24.667 -4.66699 -46 -14.167 -64 -28.5s-32.667 -31.833 -44 -52.5s-19.666 -43.5 -24.999 -68.5s-8 -50.5 -8 -76.5c0 -40 4.5 -77.833 13.5 -113.5l25.5 -98.5c15.333 25.333 32.333 49.666 51 72.999s39.667 43.833 63 61.5s49.666 31.834 78.999 42.501s62 16 98 16
c26.667 0 51.667 -3.83301 75 -11.5s43.5 -19 60.5 -34s30.333 -33.5 40 -55.5s14.5 -47 14.5 -75c0 -24.667 -4.33301 -47.5 -13 -68.5s-20.834 -39.167 -36.501 -54.5s-34 -27.333 -55 -36s-43.833 -13 -68.5 -13s-47.5 4.33301 -68.5 13s-39.167 20.667 -54.5 36
s-27.333 33.5 -36 54.5s-13 43.833 -13 68.5c0 6.66699 0.666992 11.334 2 14.001c-10.667 -8.66699 -22 -20.334 -34 -35.001s-23.333 -32.167 -34 -52.5s-19.5 -43.5 -26.5 -69.5s-10.5 -55 -10.5 -87v-237zM598.001 389.995c10.667 0 20.6689 1.99805 30.002 5.99805
s17.5 9.5 24.5 16.5s12.5 15.333 16.5 25s6 19.834 6 30.501c0 21.333 -7.5 39.5 -22.5 54.5s-33.167 22.5 -54.5 22.5c-10.667 0 -20.834 -2 -30.501 -6s-18 -9.5 -25 -16.5s-12.5 -15.167 -16.5 -24.5s-6 -19.333 -6 -30c0 -21.333 7.66699 -39.666 23 -54.999
s33.666 -23 54.999 -23z" />
    <glyph glyph-name="uni0E06" unicode="&#xe06;" horiz-adv-x="1268" 
d="M414 268c-16.667 -2 -31.999 -6.33203 -45.999 -12.999s-26 -15 -36 -25s-17.667 -21.5 -23 -34.5s-8 -26.833 -8 -41.5c0 -25.333 5.66699 -43.333 17 -54s24.333 -16 39 -16c15.333 0 28.666 5.16699 39.999 15.5s17 28.166 17 53.499v115zM395.001 774.001
l-147.004 133.002c-10.667 -7.33301 -20.5 -15.333 -29.5 -24s-17 -18.167 -24 -28.5s-12.5 -21 -16.5 -32s-6.66699 -22.833 -8 -35.5c6 3.33301 14.333 5.83301 25 7.5s19.667 2.5 27 2.5c24.667 0 47.5 -4.33301 68.5 -13s39.167 -20.667 54.5 -36s27.333 -33.5 36 -54.5
s13 -43.833 13 -68.5s-4.33301 -47.5 -13 -68.5s-20.667 -39.333 -36 -55s-33.5 -27.834 -54.5 -36.501s-43.833 -13 -68.5 -13c-30.667 0 -57.667 5 -81 15s-42.666 24.167 -57.999 42.5s-26.833 39.833 -34.5 64.5s-11.5 51.667 -11.5 81
c0 40.667 4.83301 80.5 14.5 119.5s23.5 75.167 41.5 108.5s40 63 66 89s55 46.667 87 62l149 -135l129 135c34 -3.33301 66.167 -11.166 96.5 -23.499s57 -29.333 80 -51s41.333 -48 55 -79s20.5 -67.167 20.5 -108.5c-68 -20.667 -120.333 -61.167 -157 -121.5
s-55 -137.166 -55 -230.499v-56c33.333 -4.66699 68.333 -12.334 105 -23.001s72.334 -24 107.001 -40s67.167 -34.333 97.5 -55s56.5 -43 78.5 -67v845h150v-1024h-150c-21.333 33.333 -48 64.666 -80 93.999s-65.833 55.5 -101.5 78.5s-71.667 42.5 -108 58.5
s-69.166 27 -98.499 33v-88c0 -30 -3.5 -56.833 -10.5 -80.5s-18.667 -43.667 -35 -60s-37.666 -29 -63.999 -38s-58.833 -13.5 -97.5 -13.5c-64 0 -111.667 15.5 -143 46.5s-47 72.167 -47 123.5c0 32 6.66699 60.667 20 86s31.333 47 54 65s49 32.333 79 43
s61.333 17.334 94 20.001v54c0 93.333 17.833 168.666 53.5 225.999s88.5 99.333 158.5 126c0 13.333 -1.83301 27.166 -5.5 41.499s-9.66699 27.666 -18 39.999s-18.833 22.833 -31.5 31.5s-28 15.334 -46 20.001zM298.997 624.003
c0 21.333 -7.66895 39.668 -23.002 55.001s-33.666 23 -54.999 23c-10.667 0 -20.667 -2 -30 -6s-17.5 -9.5 -24.5 -16.5s-12.5 -15.333 -16.5 -25s-6 -19.834 -6 -30.501c0 -21.333 7.5 -39.5 22.5 -54.5s33.167 -22.5 54.5 -22.5c10.667 0 20.834 2 30.501 6
s18 9.5 25 16.5s12.5 15.167 16.5 24.5s6 19.333 6 30z" />
    <glyph glyph-name="uni0E07" unicode="&#xe07;" horiz-adv-x="795" 
d="M294 861c0 24.667 4.33105 47.5 12.998 68.5s20.667 39.333 36 55s33.5 27.834 54.5 36.501s43.833 13 68.5 13s47.5 -4.33301 68.5 -13s39.333 -20.834 55 -36.501s27.834 -34 36.501 -55s13 -43.833 13 -68.5v-861h-153l-486 462v182l489 -466v512
c-3.33301 -0.666992 -7.16602 -1 -11.499 -1h-11.5c-24.667 0 -47.5 4.33301 -68.5 13s-39.167 20.667 -54.5 36s-27.333 33.5 -36 54.5s-13 43.833 -13 68.5zM388.998 862c0 -21.333 7.66895 -39.668 23.002 -55.001s33.666 -23 54.999 -23c10.667 0 20.667 2 30 6
s17.5 9.5 24.5 16.5s12.5 15.333 16.5 25s6 19.834 6 30.501c0 21.333 -7.5 39.5 -22.5 54.5s-33.167 22.5 -54.5 22.5c-10.667 0 -20.834 -2 -30.501 -6s-18 -9.5 -25 -16.5s-12.5 -15.167 -16.5 -24.5s-6 -19.333 -6 -30z" />
    <glyph glyph-name="uni0E08" unicode="&#xe08;" horiz-adv-x="1042" 
d="M759 217l-0.000976562 413.998c0 38 -5.66699 74 -17 108s-29 63.5 -53 88.5s-54.667 44.833 -92 59.5s-82 22 -134 22c-32.667 0 -66.167 -4.16699 -100.5 -12.5s-68.166 -20 -101.499 -35s-65.5 -32.833 -96.5 -53.5s-59.167 -43 -84.5 -67v170
c50 42 107.167 74.333 171.5 97s134.833 34 211.5 34c74 0 138.833 -10.167 194.5 -30.5s102.167 -48.666 139.5 -84.999s65.333 -79.5 84 -129.5s28 -104.667 28 -164v-633h-149l-243 341c-12 -24 -31.833 -44.833 -59.5 -62.5s-58.5 -26.5 -92.5 -26.5
c-24.667 0 -47.5 4.33301 -68.5 13s-39.167 20.667 -54.5 36s-27.333 33.5 -36 54.5s-13 43.833 -13 68.5s4.16699 47.5 12.5 68.5s20.5 39.333 36.5 55s35.5 27.834 58.5 36.501s48.833 13 77.5 13c34 0 66.667 -8.5 98 -25.5s62 -46.5 92 -88.5zM287.999 424.998
c0 -21.333 7.66797 -39.667 23.001 -55s33.666 -23 54.999 -23s39.5 7.5 54.5 22.5s22.5 33.5 22.5 55.5c0 21.333 -7.5 39.5 -22.5 54.5s-33.167 22.5 -54.5 22.5c-22 0 -40.5 -7.5 -55.5 -22.5s-22.5 -33.167 -22.5 -54.5z" />
    <glyph glyph-name="uni0E09" unicode="&#xe09;" horiz-adv-x="1267" 
d="M830 630c0 38 -5.50293 73.9951 -16.5029 107.995s-28.5 63.667 -52.5 89s-54.667 45.333 -92 60s-82 22 -134 22c-32.667 0 -66.167 -4.16699 -100.5 -12.5s-68.166 -20 -101.499 -35s-65.5 -32.833 -96.5 -53.5s-59.167 -43 -84.5 -67v170
c50 42 107.167 74.333 171.5 97s134.833 34 211.5 34c74 0 138.833 -10.167 194.5 -30.5s102 -48.666 139 -84.999s64.833 -79.5 83.5 -129.5s28 -104.667 28 -164v-265c32.667 -2.66699 64 -9.16699 94 -19.5s56.333 -24.333 79 -42s40.667 -39 54 -64s20 -53.5 20 -85.5
c0 -25.333 -4 -48.666 -12 -69.999s-19.833 -39.666 -35.5 -54.999s-35.334 -27.166 -59.001 -35.499s-51.5 -12.5 -83.5 -12.5c-38.667 0 -71.167 4.5 -97.5 13.5s-47.666 21.667 -63.999 38s-28 36.333 -35 60s-10.5 50.5 -10.5 80.5v83
c-36.667 -6 -73.5 -17.167 -110.5 -33.5s-72.333 -36.333 -106 -60s-64.834 -49.667 -93.501 -78s-53.667 -57.5 -75 -87.5h-150v342c-3.33301 -0.666992 -7.16602 -1 -11.499 -1h-11.5c-24.667 0 -47.5 4.33301 -68.5 13s-39.167 20.667 -54.5 36s-27.333 33.5 -36 54.5
s-13 43.833 -13 68.5s4.33301 47.5 13 68.5s20.667 39.333 36 55s33.5 27.834 54.5 36.501s43.833 13 68.5 13s47.5 -4.33301 68.5 -13s39.333 -20.834 55 -36.501s27.834 -34 36.501 -55s13 -43.833 13 -68.5v-342c23.333 24 48.833 46.667 76.5 68s57.5 40.5 89.5 57.5
s66.333 31.333 103 43s75.334 19.834 116.001 24.501v266zM194.997 513.995c0 -21.333 7.66895 -39.668 23.002 -55.001s33.666 -23 54.999 -23c10.667 0 20.667 2 30 6s17.5 9.5 24.5 16.5s12.5 15.333 16.5 25s6 19.834 6 30.501c0 21.333 -7.5 39.5 -22.5 54.5
s-33.167 22.5 -54.5 22.5c-10.667 0 -20.834 -2 -30.501 -6s-18 -9.5 -25 -16.5s-12.5 -15.167 -16.5 -24.5s-6 -19.333 -6 -30zM979.999 156.993c0 -27.333 5.66797 -46.5 17.001 -57.5s24.666 -16.5 39.999 -16.5c14.667 0 27.667 5.33301 39 16s17 28.667 17 54
c0 29.333 -10.333 54 -31 74s-48 31.667 -82 35v-105z" />
    <glyph glyph-name="uni0E0A" unicode="&#xe0a;" horiz-adv-x="1231" 
d="M400 1042c60.667 0 112.999 -6.66406 156.999 -19.9971s80.833 -32 110.5 -56s52.667 -52.5 69 -85.5s27.833 -69.167 34.5 -108.5c-66 -20.667 -117 -61.167 -153 -121.5s-54 -137.166 -54 -230.499v-286h240c42.667 0 76.334 13.167 101.001 39.5s37 63.166 37 110.499
v384c0 25.333 -2.83301 48.666 -8.5 69.999s-13.334 40.333 -23.001 57s-21 30.834 -34 42.501s-26.5 20.167 -40.5 25.5v61c54 14 96.333 36.833 127 68.5s51.667 70.167 63 115.5h156c-6 -28 -16.667 -53.5 -32 -76.5s-33.5 -43.333 -54.5 -61s-43.667 -33 -68 -46
s-48.833 -23.5 -73.5 -31.5c17.333 -4.66699 34.333 -13 51 -25s31.5 -27.5 44.5 -46.5s23.333 -41.333 31 -67s11.5 -54.5 11.5 -86.5v-394c0 -32.667 -4.16699 -65.334 -12.5 -98.001s-23 -62 -44 -88s-49 -47.167 -84 -63.5s-79.5 -24.5 -133.5 -24.5h-404v422
c0 93.333 17.333 168.666 52 225.999s86.334 99.333 155.001 126c-2 15.333 -7.16699 31.5 -15.5 48.5s-20.833 32.5 -37.5 46.5s-39.167 25.5 -67.5 34.5s-63.5 13.5 -105.5 13.5c-47.333 0 -89.666 -6.83301 -126.999 -20.5s-64 -33.167 -80 -58.5
c3.33301 1.33301 8.5 2.33301 15.5 3s13.167 1 18.5 1c24.667 0 47.5 -4.33301 68.5 -13s39.167 -20.667 54.5 -36s27.333 -33.5 36 -54.5s13 -43.833 13 -68.5s-4.33301 -47.5 -13 -68.5s-20.667 -39.333 -36 -55s-33.5 -27.834 -54.5 -36.501s-43.833 -13 -68.5 -13
c-30.667 0 -57.667 5.66699 -81 17s-42.666 26.833 -57.999 46.5s-26.833 43.167 -34.5 70.5s-11.5 57 -11.5 89c0 36 6.16699 73 18.5 111s32.666 72.667 60.999 104s65.666 57 111.999 77s103.5 30 171.5 30zM298.999 669.003c0 21.333 -7.66895 39.668 -23.002 55.001
s-33.666 23 -54.999 23c-10.667 0 -20.667 -2 -30 -6s-17.5 -9.5 -24.5 -16.5s-12.5 -15.333 -16.5 -25s-6 -19.834 -6 -30.501c0 -21.333 7.5 -39.5 22.5 -54.5s33.167 -22.5 54.5 -22.5c10.667 0 20.834 2 30.501 6s18 9.5 25 16.5s12.5 15.167 16.5 24.5s6 19.333 6 30z
" />
    <glyph glyph-name="uni0E0B" unicode="&#xe0b;" horiz-adv-x="1246" 
d="M395 774l-147.003 133.003c-10.667 -7.33301 -20.5 -15.333 -29.5 -24s-17 -18.167 -24 -28.5s-12.5 -21 -16.5 -32s-6.66699 -22.833 -8 -35.5c6 3.33301 14.333 5.83301 25 7.5s19.667 2.5 27 2.5c24.667 0 47.5 -4.33301 68.5 -13s39.167 -20.667 54.5 -36
s27.333 -33.5 36 -54.5s13 -43.833 13 -68.5s-4.33301 -47.5 -13 -68.5s-20.667 -39.333 -36 -55s-33.5 -27.834 -54.5 -36.501s-43.833 -13 -68.5 -13c-30.667 0 -57.667 5 -81 15s-42.666 24.167 -57.999 42.5s-26.833 39.833 -34.5 64.5s-11.5 51.667 -11.5 81
c0 40.667 4.83301 80.5 14.5 119.5s23.5 75.167 41.5 108.5s40 63 66 89s55 46.667 87 62l149 -135l129 135c34 -3.33301 66.167 -11.166 96.5 -23.499s57 -29.333 80 -51s41.333 -48 55 -79s20.5 -67.167 20.5 -108.5c-68 -20.667 -120.333 -61.167 -157 -121.5
s-55 -137.166 -55 -230.499v-286h255c42.667 0 76.334 13.167 101.001 39.5s37 63.166 37 110.499v384c0 25.333 -2.83301 48.666 -8.5 69.999s-13.334 40.333 -23.001 57s-21 30.834 -34 42.501s-26.5 20.167 -40.5 25.5v61c54 14 96.333 36.833 127 68.5
s51.667 70.167 63 115.5h156c-6 -28 -16.667 -53.5 -32 -76.5s-33.333 -43.333 -54 -61s-43.167 -33 -67.5 -46s-48.833 -23.5 -73.5 -31.5c17.333 -4.66699 34.333 -13 51 -25s31.334 -27.5 44.001 -46.5s22.834 -41.333 30.501 -67s11.5 -54.5 11.5 -86.5v-394
c0 -32.667 -4.16699 -65.334 -12.5 -98.001s-23 -62 -44 -88s-49 -47.167 -84 -63.5s-79.5 -24.5 -133.5 -24.5h-419v422c0 93.333 17.833 168.666 53.5 225.999s88.5 99.333 158.5 126c0 13.333 -1.83301 27.166 -5.5 41.499s-9.66699 27.666 -18 39.999
s-18.833 22.833 -31.5 31.5s-28 15.334 -46 20.001zM298.997 624.003c0 21.333 -7.66895 39.668 -23.002 55.001s-33.666 23 -54.999 23c-10.667 0 -20.667 -2 -30 -6s-17.5 -9.5 -24.5 -16.5s-12.5 -15.333 -16.5 -25s-6 -19.834 -6 -30.501
c0 -21.333 7.5 -39.5 22.5 -54.5s33.167 -22.5 54.5 -22.5c10.667 0 20.834 2 30.501 6s18 9.5 25 16.5s12.5 15.167 16.5 24.5s6 19.333 6 30z" />
    <glyph glyph-name="uni0E0C" unicode="&#xe0c;" horiz-adv-x="1702" 
d="M848 623c0 46 -5.16895 86.668 -15.502 122.001s-27 65.333 -50 90s-52.667 43.334 -89 56.001s-80.5 19 -132.5 19c-47.333 0 -88.333 -6.16699 -123 -18.5s-63.667 -28.166 -87 -47.499s-41.5 -41 -54.5 -65s-21.5 -47.667 -25.5 -71h238v-118
c-71.333 -14 -125 -39.833 -161 -77.5s-54 -86.834 -54 -147.501v-37c3.33301 0.666992 7.16602 1 11.499 1h11.5c24.667 0 47.5 -4.33301 68.5 -13s39.167 -20.667 54.5 -36s27.333 -33.5 36 -54.5s13 -43.833 13 -68.5s-4.33301 -47.5 -13 -68.5s-20.667 -39.333 -36 -55
s-33.5 -27.834 -54.5 -36.501s-43.833 -13 -68.5 -13s-47.5 4.33301 -68.5 13s-39.333 20.834 -55 36.501s-27.834 34 -36.501 55s-13 43.833 -13 68.5v218c0 58 16.667 104.667 50 140s81 61.666 143 78.999h-215v110c9.33301 47.333 24.833 91.5 46.5 132.5
s50.334 76.833 86.001 107.5s78.834 54.667 129.501 72s109.334 26 176.001 26c83.333 0 153 -10.167 209 -30.5s101 -48.5 135 -84.5s58.167 -79 72.5 -129s21.5 -105 21.5 -165v-269c30 -4.66699 62.667 -11.834 98 -21.501s70.333 -22.334 105 -38.001
s68.167 -34 100.5 -55s60.5 -44.833 84.5 -71.5v846h150v-1024h-150c-18.667 30.667 -43.667 60.5 -75 89.5s-65.333 55.5 -102 79.5s-73.5 44.333 -110.5 61s-70.5 28 -100.5 34v-88c0 -30 -3.5 -56.833 -10.5 -80.5s-18.667 -43.667 -35 -60s-37.666 -29 -63.999 -38
s-58.833 -13.5 -97.5 -13.5c-64 0 -111.667 15.5 -143 46.5s-47 72.167 -47 123.5c0 32 6.66699 60.667 20 86s31.333 47 54 65s49 32.333 79 43s61.333 17.334 94 20.001v255zM393.998 156.001c0 21.333 -7.66895 39.668 -23.002 55.001s-33.666 23 -54.999 23
c-10.667 0 -20.667 -2 -30 -6s-17.5 -9.5 -24.5 -16.5s-12.5 -15.333 -16.5 -25s-6 -19.834 -6 -30.501c0 -21.333 7.5 -39.5 22.5 -54.5s33.167 -22.5 54.5 -22.5c10.667 0 20.834 2 30.501 6s18 9.5 25 16.5s12.5 15.167 16.5 24.5s6 19.333 6 30zM847.996 268.003
c-16.667 -2 -31.999 -6.33203 -45.999 -12.999s-26 -15 -36 -25s-17.667 -21.5 -23 -34.5s-8 -26.833 -8 -41.5c0 -25.333 5.66699 -43.333 17 -54s24.333 -16 39 -16c15.333 0 28.666 5.16699 39.999 15.5s17 28.166 17 53.499v115z" />
    <glyph glyph-name="uni0E0D" unicode="&#xe0d;" horiz-adv-x="1689" 
d="M1201 -213c0 -9.33301 -1.33203 -20.3359 -3.99902 -33.0029s-7.66699 -23.667 -15 -33c26 6 54.167 16.833 84.5 32.5s60 34.834 89 57.501s56 48 81 76s45.5 57.333 61.5 88v-168c-18.667 -23.333 -41.667 -46.333 -69 -69s-58.333 -43.167 -93 -61.5
s-73 -33.166 -115 -44.499s-87 -17 -135 -17c-34.667 0 -65.167 4.33301 -91.5 13s-48.5 20.834 -66.5 36.501s-31.5 34 -40.5 55s-13.5 43.5 -13.5 67.5c0 23.333 4.16699 45 12.5 65s19.666 37.333 33.999 52s31.5 26.167 51.5 34.5s41.667 12.5 65 12.5
s45 -4.16699 65 -12.5s37.333 -19.833 52 -34.5s26.167 -32 34.5 -52s12.5 -41.667 12.5 -65zM968.001 -212.003c0 -20 6.66699 -36.667 20 -50s30 -20 50 -20c19.333 0 35.666 6.66699 48.999 20s20 30 20 50c0 19.333 -6.66699 35.666 -20 48.999s-29.666 20 -48.999 20
c-20 0 -36.667 -6.66699 -50 -20s-20 -29.666 -20 -48.999zM394.001 155.997c0 21.333 -7.66895 39.668 -23.002 55.001s-33.666 23 -54.999 23c-10.667 0 -20.667 -2 -30 -6s-17.5 -9.5 -24.5 -16.5s-12.5 -15.333 -16.5 -25s-6 -19.834 -6 -30.501
c0 -21.333 7.5 -39.5 22.5 -54.5s33.167 -22.5 54.5 -22.5c10.667 0 20.834 2 30.501 6s18 9.5 25 16.5s12.5 15.167 16.5 24.5s6 19.333 6 30zM997.999 133.999l249.998 0.00195312c42.667 0 76.334 13.167 101.001 39.5s37 63.166 37 110.499v740h150v-750
c0 -32.667 -4.16699 -65.334 -12.5 -98.001s-23 -62 -44 -88s-49 -47.167 -84 -63.5s-79.5 -24.5 -133.5 -24.5h-414v623c0 46 -5.16699 86.667 -15.5 122s-27 65.333 -50 90s-52.667 43.334 -89 56.001s-80.5 19 -132.5 19c-47.333 0 -88.333 -6.16699 -123 -18.5
s-63.667 -28.166 -87 -47.499s-41.5 -41 -54.5 -65s-21.5 -47.667 -25.5 -71h238v-118c-71.333 -14 -125 -39.833 -161 -77.5s-54 -86.834 -54 -147.501v-37c3.33301 0.666992 7.16602 1 11.499 1h11.5c24.667 0 47.5 -4.33301 68.5 -13s39.167 -20.667 54.5 -36
s27.333 -33.5 36 -54.5s13 -43.833 13 -68.5s-4.33301 -47.5 -13 -68.5s-20.667 -39.333 -36 -55s-33.5 -27.834 -54.5 -36.501s-43.833 -13 -68.5 -13s-47.5 4.33301 -68.5 13s-39.333 20.834 -55 36.501s-27.834 34 -36.501 55s-13 43.833 -13 68.5v218
c0 58 16.667 104.667 50 140s81 61.666 143 78.999h-215v110c9.33301 47.333 24.833 91.5 46.5 132.5s50.334 76.833 86.001 107.5s78.834 54.667 129.501 72s109.334 26 176.001 26c83.333 0 153 -10.167 209 -30.5s101 -48.5 135 -84.5s58.167 -79 72.5 -129
s21.5 -105 21.5 -165v-499z" />
    <glyph glyph-name="uni0E0E" unicode="&#xe0e;" horiz-adv-x="1225" 
d="M553 -190c-5.33301 1.33301 -13.8311 2.83496 -25.498 4.50195s-22.167 2.5 -31.5 2.5c-21.333 0 -39.5 -2 -54.5 -6s-27.167 -9.33301 -36.5 -16s-16 -14.5 -20 -23.5s-6 -18.167 -6 -27.5c0 -16 5.16699 -29.167 15.5 -39.5s24.166 -15.5 41.499 -15.5
s32.666 3.5 45.999 10.5s24.833 16.167 34.5 27.5s17.5 24.166 23.5 38.499s10.333 29.166 13 44.499zM1082 -409.998l-166.002 0.000976562c-41.333 56 -85.333 99.667 -132 131s-93 53.666 -139 66.999c-4 -22 -11.333 -44.167 -22 -66.5s-24.5 -42.5 -41.5 -60.5
s-37.667 -32.833 -62 -44.5s-52.166 -17.5 -83.499 -17.5c-21.333 0 -41.166 3 -59.499 9s-34.333 15.167 -48 27.5s-24.5 27.5 -32.5 45.5s-12 39 -12 63c0 24.667 5 47 15 67s24.333 37.167 43 51.5s41.167 25.333 67.5 33s55.833 11.5 88.5 11.5
c4.66699 0 10.334 -0.166992 17.001 -0.5s13.5 -0.833008 20.5 -1.5s13.333 -1.33398 19 -2.00098s9.83398 -1.33398 12.501 -2.00098c5.33301 27.333 14.666 51.333 27.999 72s29.666 35.667 48.999 45h133c-33.333 -12 -59.5 -30.167 -78.5 -54.5
s-31.833 -51.166 -38.5 -80.499c55.333 -14 106.833 -33.667 154.5 -59s86.834 -52.333 117.501 -81v880c0 46 -5.16699 86.667 -15.5 122s-27 65.333 -50 90s-52.667 43.334 -89 56.001s-80.5 19 -132.5 19c-48 0 -89.333 -6.16699 -124 -18.5s-63.667 -28.166 -87 -47.499
s-41.333 -41 -54 -65s-21 -47.667 -25 -71h238v-118c-71.333 -14 -123.333 -39.833 -156 -77.5s-49 -86.834 -49 -147.501v-208c0 -24.667 -4.33301 -47.5 -13 -68.5s-20.834 -39.333 -36.501 -55s-34 -27.834 -55 -36.501s-43.833 -13 -68.5 -13s-47.5 4.33301 -68.5 13
s-39.167 20.834 -54.5 36.501s-27.333 34 -36 55s-13 43.833 -13 68.5s4.33301 47.5 13 68.5s20.667 39.167 36 54.5s33.5 27.333 54.5 36s43.833 13 68.5 13h11.5c4.33301 0 8.16602 -0.333008 11.499 -1v47c0 58.667 15.833 105.5 47.5 140.5s78.834 61.167 141.501 78.5
h-221v110c9.33301 47.333 24.666 91.5 45.999 132.5s49.833 76.833 85.5 107.5s78.834 54.667 129.501 72s109.667 26 177 26c82.667 0 152 -10.167 208 -30.5s101 -48.5 135 -84.5s58.333 -79 73 -129s22 -105 22 -165v-1043zM138 156.003
c0 -10.667 1.99805 -20.6689 5.99805 -30.002s9.5 -17.5 16.5 -24.5s15.333 -12.5 25 -16.5s19.834 -6 30.501 -6c21.333 0 39.5 7.5 54.5 22.5s22.5 33.167 22.5 54.5c0 10.667 -2 20.834 -6 30.501s-9.5 18 -16.5 25s-15.167 12.5 -24.5 16.5s-19.333 6 -30 6
c-21.333 0 -39.666 -7.66699 -54.999 -23s-23 -33.666 -23 -54.999z" />
    <glyph glyph-name="uni0E0F" unicode="&#xe0f;" horiz-adv-x="1225" 
d="M479 -140c-4 1.33301 -10.332 2.33398 -18.999 3.00098s-17.334 1 -26.001 1c-35.333 0 -61.833 -10 -79.5 -30s-26.5 -43 -26.5 -69c0 -18 4.66699 -32.667 14 -44s23.333 -17 42 -17c18 0 32.667 5 44 15s20.5 22.667 27.5 38s12.167 32.166 15.5 50.499
s6 35.833 8 52.5zM932.001 -409.999c-3.33301 16.667 -7.50195 33.665 -12.502 50.998s-11.167 33.166 -18.5 47.499s-16.5 26 -27.5 35s-24.167 13.5 -39.5 13.5c-16 0 -29.167 -4.5 -39.5 -13.5s-18.666 -20 -24.999 -33s-11 -26.333 -14 -40
s-5.16699 -24.834 -6.5 -33.501h-92c-9.33301 55.333 -21 100.833 -35 136.5s-32.333 59.167 -55 70.5c-3.33301 -28 -9.16602 -54.833 -17.499 -80.5s-19.666 -48 -33.999 -67s-32.333 -34.167 -54 -45.5s-47.5 -17 -77.5 -17c-46 0 -82.667 12.833 -110 38.5
s-41 63.167 -41 112.5c0 31.333 5.5 58.833 16.5 82.5s25.667 43.334 44 59.001s39.5 27.5 63.5 35.5s49.333 12 76 12c9.33301 0 19.5 -0.666992 30.5 -2s19.5 -2.66602 25.5 -3.99902c11.333 49.333 29.5 89.666 54.5 120.999s56.5 56 94.5 74h160
c-26.667 -10 -52 -21.333 -76 -34s-45.5 -27.667 -64.5 -45s-35.167 -37.666 -48.5 -60.999s-23 -50.666 -29 -81.999c29.333 -14 55.833 -35.5 79.5 -64.5s40.5 -66.5 50.5 -112.5c14.667 30 32.834 51 54.501 63s44.167 18 67.5 18c18.667 0 37.167 -4.16699 55.5 -12.5
s33.166 -19.5 44.499 -33.5v844c0 46 -5.16699 86.667 -15.5 122s-27 65.333 -50 90s-52.667 43.334 -89 56.001s-80.5 19 -132.5 19c-48 0 -89.333 -6.16699 -124 -18.5s-63.667 -28.166 -87 -47.499s-41.333 -41 -54 -65s-21 -47.667 -25 -71h238v-118
c-71.333 -14 -123.333 -39.833 -156 -77.5s-49 -86.834 -49 -147.501v-208c0 -24.667 -4.33301 -47.5 -13 -68.5s-20.834 -39.333 -36.501 -55s-34 -27.834 -55 -36.501s-43.833 -13 -68.5 -13s-47.5 4.33301 -68.5 13s-39.167 20.834 -54.5 36.501s-27.333 34 -36 55
s-13 43.833 -13 68.5s4.33301 47.5 13 68.5s20.667 39.167 36 54.5s33.5 27.333 54.5 36s43.833 13 68.5 13h11.5c4.33301 0 8.16602 -0.333008 11.499 -1v47c0 58.667 15.833 105.5 47.5 140.5s78.834 61.167 141.501 78.5h-221v110
c9.33301 47.333 24.666 91.5 45.999 132.5s49.833 76.833 85.5 107.5s78.834 54.667 129.501 72s109.667 26 177 26c82.667 0 152 -10.167 208 -30.5s101 -48.5 135 -84.5s58.333 -79 73 -129s22 -105 22 -165v-1043h-150zM137.999 155.999
c0 -10.667 1.99805 -20.6689 5.99805 -30.002s9.5 -17.5 16.5 -24.5s15.333 -12.5 25 -16.5s19.834 -6 30.501 -6c21.333 0 39.5 7.5 54.5 22.5s22.5 33.167 22.5 54.5c0 10.667 -2 20.834 -6 30.501s-9.5 18 -16.5 25s-15.167 12.5 -24.5 16.5s-19.333 6 -30 6
c-21.333 0 -39.666 -7.66699 -54.999 -23s-23 -33.666 -23 -54.999z" />
    <glyph glyph-name="uni0E10" unicode="&#xe10;" horiz-adv-x="997" 
d="M796 -410l-119.999 51.998l-113 -52h-89c-4.66699 30 -9.16699 55.167 -13.5 75.5s-9 37.166 -14 50.499s-10.167 23.833 -15.5 31.5s-11.666 13.834 -18.999 18.501c-5.33301 -30 -13.833 -56 -25.5 -78s-25.667 -40.333 -42 -55s-34.666 -25.5 -54.999 -32.5
s-41.833 -10.5 -64.5 -10.5c-44 0 -79.5 12.5 -106.5 37.5s-40.5 60.5 -40.5 106.5c0 47.333 16.667 85.5 50 114.5s81.333 43.5 144 43.5c9.33301 0 20.666 -0.666992 33.999 -2s22 -2.66602 26 -3.99902c2 11.333 4.5 23 7.5 35s7.5 24 13.5 36h103
c-8 -15.333 -14.333 -30.666 -19 -45.999s-8.66699 -30.666 -12 -45.999c11.333 -4.66699 23.333 -11.667 36 -21s25 -21.833 37 -37.5s23.167 -34.5 33.5 -56.5s18.833 -48 25.5 -78l119 55l143 -62v89c-3.33301 -2 -9.83301 -4.33301 -19.5 -7s-20.167 -4 -31.5 -4
c-16 0 -30.833 3 -44.5 9s-25.667 14 -36 24s-18.333 22 -24 36s-8.5 29 -8.5 45c0 14.667 2.66699 28.667 8 42s13.166 25.166 23.499 35.499s23 18.666 38 24.999s32.167 9.5 51.5 9.5c39.333 0 69.666 -11.167 90.999 -33.5s32 -50.166 32 -83.499v-262h-103z
M319.001 -206.002c-4 1.33301 -10.832 2.66699 -20.499 4s-19.167 2 -28.5 2c-64 0 -96 -22 -96 -66c0 -15.333 4.66699 -27.333 14 -36s22.333 -13 39 -13c17.333 0 31.666 4.16699 42.999 12.5s20.5 18.333 27.5 30s12.167 23.667 15.5 36s5.33301 22.5 6 30.5z
M275.002 774.999c11.333 3.33301 25.4971 6.5 42.4971 9.5s35.333 5.66699 55 8s40 4.33301 61 6s41.167 2.5 60.5 2.5c66.667 0 123.834 -6 171.501 -18s87 -31 118 -57s53.833 -59.167 68.5 -99.5s22 -88.833 22 -145.5v-241c0 -38 -5.66699 -72.5 -17 -103.5
s-29 -57.667 -53 -80s-54.5 -39.666 -91.5 -51.999s-81.167 -18.5 -132.5 -18.5c-53.333 0 -98.5 5.5 -135.5 16.5s-67 26.667 -90 47s-39.667 44.666 -50 72.999s-15.5 59.5 -15.5 93.5v8c-3.33301 -0.666992 -7.16602 -1 -11.499 -1h-11.5
c-24.667 0 -47.5 4.33301 -68.5 13s-39.167 20.667 -54.5 36s-27.333 33.5 -36 54.5s-13 43.833 -13 68.5s4.33301 47.5 13 68.5s20.667 39.333 36 55s33.5 27.834 54.5 36.501s43.833 13 68.5 13s47.5 -4.33301 68.5 -13s39.333 -20.834 55 -36.501s27.834 -34 36.501 -55
s13 -43.833 13 -68.5v-151c0 -24 3.5 -44.167 10.5 -60.5s16.833 -29.166 29.5 -38.499s27.667 -16 45 -20s36 -6 56 -6c21.333 0 40.833 2 58.5 6s32.834 11 45.501 21s22.5 23.833 29.5 41.5s10.5 39.834 10.5 66.501v225c0 34.667 -4.33301 64 -13 88
s-22.334 43.5 -41.001 58.5s-43 25.833 -73 32.5s-66.667 10 -110 10c-36 0 -71.167 -1.33301 -105.5 -4s-66.666 -5.83398 -96.999 -9.50098s-58.333 -7.83398 -84 -12.501s-47.834 -9 -66.501 -13v119c0 42 4 81 12 117s22.833 67.167 44.5 93.5
s51.334 46.833 89.001 61.5s86.167 22 145.5 22c26 0 56.333 -1 91 -3s69.834 -4.33301 105.501 -7s69.667 -5 102 -7s58.833 -3 79.5 -3c9.33301 0 20.333 0.333008 33 1s25 1.5 37 2.5s23 2 33 3s17 2.16699 21 3.5v-140c-4.66699 -2 -12.167 -3.5 -22.5 -4.5
s-21.5 -1.66699 -33.5 -2l-36.5 -1c-12.333 -0.333008 -22.833 -0.5 -31.5 -0.5c-19.333 0 -45 1.33301 -77 4l-101 8.5l-103.5 8.5c-33.667 2.66699 -61.834 4 -84.501 4c-39.333 0 -69.833 -4.66699 -91.5 -14s-37.834 -20.666 -48.501 -33.999s-17 -27.833 -19 -43.5
s-3 -29.834 -3 -42.501zM188.999 395.999c0 -21.333 7.66895 -39.668 23.002 -55.001s33.666 -23 54.999 -23c10.667 0 20.667 2 30 6s17.5 9.5 24.5 16.5s12.5 15.333 16.5 25s6 19.834 6 30.501c0 21.333 -7.5 39.5 -22.5 54.5s-33.167 22.5 -54.5 22.5
c-10.667 0 -20.834 -2 -30.501 -6s-18 -9.5 -25 -16.5s-12.5 -15.167 -16.5 -24.5s-6 -19.333 -6 -30zM717.001 -143.003c0 -14 5 -26 15 -36s22 -15 36 -15c14.667 0 26.834 5 36.501 15s14.5 22 14.5 36s-4.83301 26 -14.5 36s-21.834 15 -36.501 15c-14 0 -26 -5 -36 -15
s-15 -22 -15 -36z" />
    <glyph glyph-name="uni0E11" unicode="&#xe11;" horiz-adv-x="1390" 
d="M395 899l128.998 135c34 -3.33301 66.167 -11.166 96.5 -23.499s57 -29.333 80 -51s41.333 -48 55 -79s20.5 -67.167 20.5 -108.5c-68 -20.667 -120.333 -61.167 -157 -121.5s-55 -137.166 -55 -230.499v-257l442 861h41c25.333 0 49.333 -3.5 72 -10.5
s42.834 -17.667 60.501 -32s31.667 -32.5 42 -54.5s15.5 -48 15.5 -78v-849h-150v849c0 16.667 -4.5 27.334 -13.5 32.001s-16.5 7 -22.5 7l-457 -888h-180v422c0 93.333 17.833 168.666 53.5 225.999s88.5 99.333 158.5 126c0 13.333 -1.83301 27.166 -5.5 41.499
s-9.66699 27.666 -18 39.999s-18.833 22.833 -31.5 31.5s-28 15.334 -46 20.001l-130 -133l-147 133c-10.667 -7.33301 -20.5 -15.333 -29.5 -24s-17 -18.167 -24 -28.5s-12.5 -21 -16.5 -32s-6.66699 -22.833 -8 -35.5c6 3.33301 14.333 5.83301 25 7.5s19.667 2.5 27 2.5
c24.667 0 47.5 -4.33301 68.5 -13s39.167 -20.667 54.5 -36s27.333 -33.5 36 -54.5s13 -43.833 13 -68.5s-4.33301 -47.5 -13 -68.5s-20.667 -39.333 -36 -55s-33.5 -27.834 -54.5 -36.501s-43.833 -13 -68.5 -13c-30.667 0 -57.667 5 -81 15s-42.666 24.167 -57.999 42.5
s-26.833 39.833 -34.5 64.5s-11.5 51.667 -11.5 81c0 40.667 4.83301 80.5 14.5 119.5s23.5 75.167 41.5 108.5s40 63 66 89s55 46.667 87 62zM298.998 624c0 21.333 -7.66895 39.668 -23.002 55.001s-33.666 23 -54.999 23c-10.667 0 -20.667 -2 -30 -6
s-17.5 -9.5 -24.5 -16.5s-12.5 -15.333 -16.5 -25s-6 -19.834 -6 -30.501c0 -21.333 7.5 -39.5 22.5 -54.5s33.167 -22.5 54.5 -22.5c10.667 0 20.834 2 30.501 6s18 9.5 25 16.5s12.5 15.167 16.5 24.5s6 19.333 6 30z" />
    <glyph glyph-name="uni0E12" unicode="&#xe12;" horiz-adv-x="1738" 
d="M884 268c-34 -4 -61.332 -16.499 -81.999 -37.499s-31 -46.5 -31 -76.5c0 -25.333 5.66699 -43.333 17 -54s24.333 -16 39 -16c15.333 0 28.666 5.16699 39.999 15.5s17 28.166 17 53.499v115zM448.001 509.001c0 -21.333 7.66797 -39.667 23.001 -55
s33.666 -23 54.999 -23s39.5 7.5 54.5 22.5s22.5 33.5 22.5 55.5c0 21.333 -7.5 39.5 -22.5 54.5s-33.167 22.5 -54.5 22.5c-22 0 -40.5 -7.5 -55.5 -22.5s-22.5 -33.167 -22.5 -54.5zM172.002 0l-0.00292969 194.992c0 51.333 -3.66699 96.5 -11 135.5s-15.5 76 -24.5 111
s-17.333 69.833 -25 104.5s-11.5 73.334 -11.5 116.001c0 61.333 8.83301 114 26.5 158s40.834 80.833 69.501 110.5s61 52.834 97 69.501s72.333 28 109 34l163 -165l162 163c41.333 -5.33301 80.5 -16.166 117.5 -32.499s69.5 -40.333 97.5 -72s50.333 -71.5 67 -119.5
s25 -106.333 25 -175v-269c30 -4.66699 62.667 -12 98 -22s70.333 -22.667 105 -38s68.167 -33.333 100.5 -54s60.5 -44.667 84.5 -72v846h150v-1024h-150c-18.667 30.667 -43.667 60.5 -75 89.5s-65.166 55.5 -101.499 79.5s-73.166 44.333 -110.499 61s-71 28 -101 34v-88
c0 -30 -3.5 -56.833 -10.5 -80.5s-18.667 -43.667 -35 -60s-37.666 -29 -63.999 -38s-58.833 -13.5 -97.5 -13.5c-64 0 -111.667 15.5 -143 46.5s-47 72.167 -47 123.5c0 32 6.66699 60.667 20 86s31.333 47 54 65s49 32.333 79 43s61.333 17.334 94 20.001v255
c0 36 -2.5 69.167 -7.5 99.5s-13.167 57 -24.5 80s-26.333 41.833 -45 56.5s-41.667 24.334 -69 29.001l-173 -165l-174 165c-24.667 -4.66699 -46 -14.167 -64 -28.5s-32.667 -31.833 -44 -52.5s-19.666 -43.667 -24.999 -69s-8 -51.333 -8 -78
c0 -41.333 3.83301 -80.5 11.5 -117.5s16 -74.5 25 -112.5s17.167 -77.5 24.5 -118.5s11 -86.167 11 -135.5v-38c46 32.667 84.333 67.334 115 104.001s52 69 64 97c-20.667 3.33301 -40 9.5 -58 18.5s-33.667 20.667 -47 35s-23.833 31.166 -31.5 50.499s-11.5 41 -11.5 65
c0 24.667 4.33301 47.5 13 68.5s20.667 39.333 36 55s33.5 27.834 54.5 36.501s43.833 13 68.5 13c28 0 53 -4.83301 75 -14.5s40.5 -23 55.5 -40s26.333 -37 34 -60s11.5 -48.167 11.5 -75.5c0 -36 -6.33301 -71.333 -19 -106s-29.334 -67.667 -50.001 -99
s-44.334 -61.166 -71.001 -89.499s-54.167 -54.666 -82.5 -78.999s-56 -46.333 -83 -66l-73.5 -51.5h-150z" />
    <glyph glyph-name="uni0E13" unicode="&#xe13;" horiz-adv-x="1826" 
d="M394 156c0 21.333 -7.66895 39.668 -23.002 55.001s-33.666 23 -54.999 23c-10.667 0 -20.667 -2 -30 -6s-17.5 -9.5 -24.5 -16.5s-12.5 -15.333 -16.5 -25s-6 -19.834 -6 -30.501c0 -21.333 7.5 -39.5 22.5 -54.5s33.167 -22.5 54.5 -22.5c10.667 0 20.834 2 30.501 6
s18 9.5 25 16.5s12.5 15.167 16.5 24.5s6 19.333 6 30zM997.998 178.002c24 26.667 52.165 50.499 84.498 71.499s65.833 39.333 100.5 55s69.667 28.334 105 38.001s68 16.834 98 21.501v660h150v-656c32.667 -2.66699 64 -9.33398 94 -20.001s56.333 -25 79 -43
s40.667 -39.667 54 -65s20 -54 20 -86c0 -51.333 -15.667 -92.5 -47 -123.5s-79 -46.5 -143 -46.5c-38.667 0 -71.167 4.5 -97.5 13.5s-47.666 21.667 -63.999 38s-28 36.333 -35 60s-10.5 50.5 -10.5 80.5v88c-30 -6 -63.5 -17.333 -100.5 -34s-73.833 -37 -110.5 -61
s-70.667 -50.5 -102 -79.5s-56.333 -58.833 -75 -89.5h-150v623c0 46 -5.16699 86.667 -15.5 122s-27 65.333 -50 90s-52.667 43.334 -89 56.001s-80.5 19 -132.5 19c-47.333 0 -88.333 -6.16699 -123 -18.5s-63.667 -28.166 -87 -47.499s-41.5 -41 -54.5 -65
s-21.5 -47.667 -25.5 -71h238v-118c-71.333 -14 -125 -39.833 -161 -77.5s-54 -86.834 -54 -147.501v-37c3.33301 0.666992 7.16602 1 11.499 1h11.5c24.667 0 47.5 -4.33301 68.5 -13s39.167 -20.667 54.5 -36s27.333 -33.5 36 -54.5s13 -43.833 13 -68.5
s-4.33301 -47.5 -13 -68.5s-20.667 -39.333 -36 -55s-33.5 -27.834 -54.5 -36.501s-43.833 -13 -68.5 -13s-47.5 4.33301 -68.5 13s-39.333 20.834 -55 36.501s-27.834 34 -36.501 55s-13 43.833 -13 68.5v218c0 58 16.667 104.667 50 140s81 61.666 143 78.999h-215v110
c9.33301 47.333 24.833 91.5 46.5 132.5s50.334 76.833 86.001 107.5s78.834 54.667 129.501 72s109.334 26 176.001 26c83.333 0 153 -10.167 209 -30.5s101 -48.5 135 -84.5s58.167 -79 72.5 -129s21.5 -105 21.5 -165v-455zM1536 153.001
c0 -25.333 5.66797 -43.167 17.001 -53.5s24.666 -15.5 39.999 -15.5c14.667 0 27.667 5.33301 39 16s17 28.667 17 54c0 14.667 -2.66699 28.5 -8 41.5s-13 24.5 -23 34.5s-21.833 18.333 -35.5 25s-29.167 11 -46.5 13v-115z" />
    <glyph glyph-name="uni0E14" unicode="&#xe14;" horiz-adv-x="1177" 
d="M535 339c-41.333 6.66699 -75.3311 24.4912 -101.998 53.4912s-40 67.5 -40 115.5c0 24.667 4.33301 47.5 13 68.5s20.667 39.333 36 55s33.5 27.834 54.5 36.501s43.833 13 68.5 13c28 0 53 -4.83301 75 -14.5s40.5 -23 55.5 -40s26.333 -37.167 34 -60.5
s11.5 -48.333 11.5 -75c0 -36.667 -7.33301 -72.167 -22 -106.5s-33.834 -67.166 -57.501 -98.499s-50.667 -61.166 -81 -89.499s-61 -54.5 -92 -78.5s-61 -46 -90 -66l-76.5 -52h-150v195c0 51.333 -3.66699 96.5 -11 135.5s-15.5 76 -24.5 111s-17.333 69.833 -25 104.5
s-11.5 73.334 -11.5 116.001c0 62 11 116.667 33 164s53.333 87 94 119s89.667 56.167 147 72.5s121 24.5 191 24.5c152 0 268.167 -33.833 348.5 -101.5s120.5 -170.167 120.5 -307.5v-633h-150v623c0 41.333 -5.83301 79.333 -17.5 114s-30.334 64.834 -56.001 90.501
s-58.667 45.667 -99 60s-89.166 21.5 -146.499 21.5c-54.667 0 -101.834 -7 -141.501 -21s-72.334 -32.667 -98.001 -56s-44.667 -49.666 -57 -78.999s-18.5 -59.666 -18.5 -90.999c0 -41.333 3.83301 -80.666 11.5 -117.999s16 -75 25 -113s17.167 -77.667 24.5 -119
s11 -86.666 11 -135.999v-38c56.667 37.333 103.334 73.333 140.001 108s61 65.667 73 93zM488.002 508.991c0 -21.333 7.66895 -39.668 23.002 -55.001s33.666 -23 54.999 -23c10.667 0 20.667 2 30 6s17.5 9.5 24.5 16.5s12.5 15.333 16.5 25s6 19.834 6 30.501
c0 21.333 -7.5 39.5 -22.5 54.5s-33.167 22.5 -54.5 22.5c-10.667 0 -20.834 -2 -30.501 -6s-18 -9.5 -25 -16.5s-12.5 -15.167 -16.5 -24.5s-6 -19.333 -6 -30z" />
    <glyph glyph-name="uni0E15" unicode="&#xe15;" horiz-adv-x="1177" 
d="M322 138c56.667 37.333 103.332 73.3242 139.999 107.991s61 65.667 73 93c-41.333 6.66699 -75.333 24.5 -102 53.5s-40 67.5 -40 115.5c0 24.667 4.33301 47.5 13 68.5s20.667 39.333 36 55s33.5 27.834 54.5 36.501s43.833 13 68.5 13c28 0 53 -4.83301 75 -14.5
s40.5 -23 55.5 -40s26.333 -37.167 34 -60.5s11.5 -48.333 11.5 -75c0 -36.667 -7.33301 -72.167 -22 -106.5s-33.834 -67.166 -57.501 -98.499s-50.667 -61.166 -81 -89.499s-61 -54.5 -92 -78.5s-61 -46 -90 -66l-76.5 -52h-150v195c0 51.333 -3.66699 96.5 -11 135.5
s-15.5 76 -24.5 111s-17.333 69.833 -25 104.5s-11.5 73.334 -11.5 116.001c0 61.333 8.83301 114 26.5 158s40.834 80.833 69.501 110.5s61 52.834 97 69.501s72.333 28 109 34l163 -165l162 163c41.333 -5.33301 80.5 -16.166 117.5 -32.499s69.5 -40.333 97.5 -72
s50.333 -71.5 67 -119.5s25 -106.333 25 -175v-633h-150v623c0 36 -2.5 69.167 -7.5 99.5s-13.167 57 -24.5 80s-26.333 41.833 -45 56.5s-41.667 24.334 -69 29.001l-173 -165l-174 165c-24.667 -4.66699 -46 -14.167 -64 -28.5s-32.667 -31.833 -44 -52.5
s-19.666 -43.5 -24.999 -68.5s-8 -50.5 -8 -76.5c0 -41.333 3.83301 -80.666 11.5 -117.999s16 -75 25 -113s17.167 -77.667 24.5 -119s11 -86.666 11 -135.999v-38zM487.998 508.991c0 -21.333 7.66895 -39.668 23.002 -55.001s33.666 -23 54.999 -23
c10.667 0 20.667 2 30 6s17.5 9.5 24.5 16.5s12.5 15.333 16.5 25s6 19.834 6 30.501c0 21.333 -7.5 39.5 -22.5 54.5s-33.167 22.5 -54.5 22.5c-10.667 0 -20.834 -2 -30.501 -6s-18 -9.5 -25 -16.5s-12.5 -15.167 -16.5 -24.5s-6 -19.333 -6 -30z" />
    <glyph glyph-name="uni0E16" unicode="&#xe16;" horiz-adv-x="1175" 
d="M882 0l0.00292969 623c0 92 -25.333 162.833 -76 212.5s-128 74.5 -232 74.5c-48 0 -90.333 -6.16699 -127 -18.5s-67.834 -28.166 -93.501 -47.499s-45.834 -41 -60.501 -65s-24 -47.667 -28 -71h238v-118c-71.333 -14 -124.166 -39.833 -158.499 -77.5
s-51.5 -86.834 -51.5 -147.501v-37c3.33301 0.666992 7.16602 1 11.499 1h11.5c24.667 0 47.5 -4.33301 68.5 -13s39.167 -20.667 54.5 -36s27.333 -33.5 36 -54.5s13 -43.833 13 -68.5s-4.33301 -47.5 -13 -68.5s-20.667 -39.333 -36 -55s-33.5 -27.834 -54.5 -36.501
s-43.833 -13 -68.5 -13s-47.5 4.33301 -68.5 13s-39.333 20.834 -55 36.501s-27.834 34 -36.501 55s-13 43.833 -13 68.5v218c0 58 16.833 104.667 50.5 140s81.5 61.666 143.5 78.999h-221v115c9.33301 47.333 25.666 91.333 48.999 132s54 75.834 92 105.501
s83.333 53 136 70s112.667 25.5 180 25.5c82.667 0 153.167 -10.167 211.5 -30.5s105.833 -48.5 142.5 -84.5s63.334 -79 80.001 -129s25 -105 25 -165v-633h-150zM393.003 156c0 21.333 -7.66895 39.668 -23.002 55.001s-33.666 23 -54.999 23c-10.667 0 -20.667 -2 -30 -6
s-17.5 -9.5 -24.5 -16.5s-12.5 -15.333 -16.5 -25s-6 -19.834 -6 -30.501c0 -21.333 7.5 -39.5 22.5 -54.5s33.167 -22.5 54.5 -22.5c10.667 0 20.834 2 30.501 6s18 9.5 25 16.5s12.5 15.167 16.5 24.5s6 19.333 6 30z" />
    <glyph glyph-name="uni0E17" unicode="&#xe17;" horiz-adv-x="1208" 
d="M388 178l440.997 845.999h36c25.333 0 49.333 -3.66699 72 -11s42.834 -18.5 60.501 -33.5s31.667 -33.833 42 -56.5s15.5 -49 15.5 -79v-844h-150v844c0 16.667 -4.33301 27.334 -13 32.001s-16 7 -22 7l-458 -883h-174v690c-3.33301 -0.666992 -7.16602 -1 -11.499 -1
h-11.5c-24.667 0 -47.5 4.33301 -68.5 13s-39.167 20.667 -54.5 36s-27.333 33.5 -36 54.5s-13 43.833 -13 68.5s4.33301 47.5 13 68.5s20.667 39.333 36 55s33.5 27.834 54.5 36.501s43.833 13 68.5 13s47.5 -4.33301 68.5 -13s39.333 -20.834 55 -36.501
s27.834 -34 36.501 -55s13 -43.833 13 -68.5v-683zM137.997 861.999c0 -21.333 7.66895 -39.668 23.002 -55.001s33.666 -23 54.999 -23c10.667 0 20.667 2 30 6s17.5 9.5 24.5 16.5s12.5 15.333 16.5 25s6 19.834 6 30.501c0 21.333 -7.5 39.5 -22.5 54.5
s-33.167 22.5 -54.5 22.5c-10.667 0 -20.834 -2 -30.501 -6s-18 -9.5 -25 -16.5s-12.5 -15.167 -16.5 -24.5s-6 -19.333 -6 -30z" />
    <glyph glyph-name="uni0E18" unicode="&#xe18;" horiz-adv-x="1044" 
d="M921 274c0 -32.667 -4.16895 -65.3311 -12.502 -97.998s-23 -62 -44 -88s-49 -47.167 -84 -63.5s-79.5 -24.5 -133.5 -24.5h-524v470h150v-336h360c42.667 0 76.334 13.167 101.001 39.5s37 63.166 37 110.499v155c0 34.667 -4.5 63.834 -13.5 87.501
s-24.333 42.667 -46 57s-50.167 24.5 -85.5 30.5s-79.666 9 -132.999 9c-36 0 -72.833 -1.33301 -110.5 -4s-73.5 -5.83398 -107.5 -9.50098s-65.333 -7.83398 -94 -12.501s-52.334 -9 -71.001 -13v124c0 47.333 4 91.333 12 132s22.833 76 44.5 106
s51.334 53.5 89.001 70.5s86.167 25.5 145.5 25.5c26 0 56.333 -1 91 -3s69.834 -4.33301 105.501 -7s69.667 -5 102 -7s58.833 -3 79.5 -3c9.33301 0 20.333 0.333008 33 1s25 1.5 37 2.5s23 2 33 3s17 2.16699 21 3.5v-140c-4.66699 -2 -12.167 -3.5 -22.5 -4.5
s-21.5 -1.66699 -33.5 -2l-36.5 -1c-12.333 -0.333008 -22.833 -0.5 -31.5 -0.5c-19.333 0 -45 1.33301 -77 4l-101 8.5l-103.5 8.5c-33.667 2.66699 -61.834 4 -84.501 4c-36 0 -64.167 -6.16699 -84.5 -18.5s-35.666 -27.5 -45.999 -45.5s-16.833 -37 -19.5 -57
s-4 -37.667 -4 -53c11.333 3.33301 26.666 6.5 45.999 9.5s40.333 5.66699 63 8s45.5 4.33301 68.5 6s44.167 2.5 63.5 2.5c76.667 0 141.667 -6 195 -18s96.833 -31 130.5 -57s58 -59.167 73 -99.5s22.5 -88.833 22.5 -145.5v-167z" />
    <glyph glyph-name="uni0E19" unicode="&#xe19;" horiz-adv-x="1216" 
d="M138 862c0 -21.333 7.66895 -39.668 23.002 -55.001s33.666 -23 54.999 -23c10.667 0 20.667 2 30 6s17.5 9.5 24.5 16.5s12.5 15.333 16.5 25s6 19.834 6 30.501c0 21.333 -7.5 39.5 -22.5 54.5s-33.167 22.5 -54.5 22.5c-10.667 0 -20.834 -2 -30.501 -6
s-18 -9.5 -25 -16.5s-12.5 -15.167 -16.5 -24.5s-6 -19.333 -6 -30zM388.002 177.998c24 26.667 52.1641 50.499 84.4971 71.499s65.833 39.333 100.5 55s69.667 28.334 105 38.001s68 16.834 98 21.501v660h150v-656c32.667 -2.66699 64 -9.33398 94 -20.001
s56.333 -25 79 -43s40.667 -39.667 54 -65s20 -54 20 -86c0 -51.333 -15.667 -92.5 -47 -123.5s-79 -46.5 -143 -46.5c-38.667 0 -71.167 4.5 -97.5 13.5s-47.666 21.667 -63.999 38s-28 36.333 -35 60s-10.5 50.5 -10.5 80.5v88c-30 -6 -63.5 -17.333 -100.5 -34
s-73.833 -37 -110.5 -61s-70.667 -50.5 -102 -79.5s-56.333 -58.833 -75 -89.5h-150v690c-3.33301 -0.666992 -7.16602 -1 -11.499 -1h-11.5c-24.667 0 -47.5 4.33301 -68.5 13s-39.167 20.667 -54.5 36s-27.333 33.5 -36 54.5s-13 43.833 -13 68.5s4.33301 47.5 13 68.5
s20.667 39.333 36 55s33.5 27.834 54.5 36.501s43.833 13 68.5 13s47.5 -4.33301 68.5 -13s39.333 -20.834 55 -36.501s27.834 -34 36.501 -55s13 -43.833 13 -68.5v-683zM925.999 152.997c0 -25.333 5.66797 -43.167 17.001 -53.5s24.666 -15.5 39.999 -15.5
c14.667 0 27.667 5.33301 39 16s17 28.667 17 54c0 14.667 -2.66699 28.5 -8 41.5s-13 24.5 -23 34.5s-21.833 18.333 -35.5 25s-29.167 11 -46.5 13v-115z" />
    <glyph glyph-name="uni0E1A" unicode="&#xe1a;" horiz-adv-x="1165" 
d="M138 862c0 -21.333 7.66895 -39.668 23.002 -55.001s33.666 -23 54.999 -23c10.667 0 20.667 2 30 6s17.5 9.5 24.5 16.5s12.5 15.333 16.5 25s6 19.834 6 30.501c0 21.333 -7.5 39.5 -22.5 54.5s-33.167 22.5 -54.5 22.5c-10.667 0 -20.834 -2 -30.501 -6
s-18 -9.5 -25 -16.5s-12.5 -15.167 -16.5 -24.5s-6 -19.333 -6 -30zM724.002 133.998c42.667 0 76.3311 13.1689 100.998 39.502s37 63.166 37 110.499v740h150v-750c0 -32.667 -4.16699 -65.334 -12.5 -98.001s-23 -62 -44 -88s-49 -47.167 -84 -63.5
s-79.5 -24.5 -133.5 -24.5h-500v690c-3.33301 -0.666992 -7.16602 -1 -11.499 -1h-11.5c-24.667 0 -47.5 4.33301 -68.5 13s-39.167 20.667 -54.5 36s-27.333 33.5 -36 54.5s-13 43.833 -13 68.5s4.33301 47.5 13 68.5s20.667 39.333 36 55s33.5 27.834 54.5 36.501
s43.833 13 68.5 13s47.5 -4.33301 68.5 -13s39.333 -20.834 55 -36.501s27.834 -34 36.501 -55s13 -43.833 13 -68.5v-727h336z" />
    <glyph glyph-name="uni0E1B" unicode="&#xe1b;" horiz-adv-x="1165" 
d="M138 862c0 -21.333 7.66895 -39.668 23.002 -55.001s33.666 -23 54.999 -23c10.667 0 20.667 2 30 6s17.5 9.5 24.5 16.5s12.5 15.333 16.5 25s6 19.834 6 30.501c0 21.333 -7.5 39.5 -22.5 54.5s-33.167 22.5 -54.5 22.5c-10.667 0 -20.834 -2 -30.501 -6
s-18 -9.5 -25 -16.5s-12.5 -15.167 -16.5 -24.5s-6 -19.333 -6 -30zM724.002 133.998c42.667 0 76.3311 13.1689 100.998 39.502s37 63.166 37 110.499v1150h150v-1160c0 -32.667 -4.16699 -65.334 -12.5 -98.001s-23 -62 -44 -88s-49 -47.167 -84 -63.5
s-79.5 -24.5 -133.5 -24.5h-500v690c-3.33301 -0.666992 -7.16602 -1 -11.499 -1h-11.5c-24.667 0 -47.5 4.33301 -68.5 13s-39.167 20.667 -54.5 36s-27.333 33.5 -36 54.5s-13 43.833 -13 68.5s4.33301 47.5 13 68.5s20.667 39.333 36 55s33.5 27.834 54.5 36.501
s43.833 13 68.5 13s47.5 -4.33301 68.5 -13s39.333 -20.834 55 -36.501s27.834 -34 36.501 -55s13 -43.833 13 -68.5v-727h336z" />
    <glyph glyph-name="uni0E1C" unicode="&#xe1c;" horiz-adv-x="1225" 
d="M406 862c0 10.667 -1.99805 20.6689 -5.99805 30.002s-9.5 17.5 -16.5 24.5s-15.333 12.5 -25 16.5s-19.834 6 -30.501 6c-21.333 0 -39.5 -7.5 -54.5 -22.5s-22.5 -33.167 -22.5 -54.5c0 -10.667 2 -20.834 6 -30.501s9.5 -18 16.5 -25s15.167 -12.5 24.5 -16.5
s19.333 -6 30 -6c21.333 0 39.666 7.66699 54.999 23s23 33.666 23 54.999zM608.002 608.002l300.998 -414v830h150v-1024h-155l-296 420l-297 -420h-155v861c0 24.667 4.33301 47.5 13 68.5s20.834 39.333 36.501 55s34 27.834 55 36.501s43.833 13 68.5 13
s47.5 -4.33301 68.5 -13s39.167 -20.834 54.5 -36.501s27.333 -34 36 -55s13 -43.833 13 -68.5s-4.33301 -47.5 -13 -68.5s-20.667 -39.167 -36 -54.5s-33.5 -27.333 -54.5 -36s-43.833 -13 -68.5 -13h-11.5c-4.33301 0 -8.16602 0.333008 -11.499 1v-496z" />
    <glyph glyph-name="uni0E1D" unicode="&#xe1d;" horiz-adv-x="1225" 
d="M406 862c0 10.667 -1.99805 20.6689 -5.99805 30.002s-9.5 17.5 -16.5 24.5s-15.333 12.5 -25 16.5s-19.834 6 -30.501 6c-21.333 0 -39.5 -7.5 -54.5 -22.5s-22.5 -33.167 -22.5 -54.5c0 -10.667 2 -20.834 6 -30.501s9.5 -18 16.5 -25s15.167 -12.5 24.5 -16.5
s19.333 -6 30 -6c21.333 0 39.666 7.66699 54.999 23s23 33.666 23 54.999zM608.002 608.002l300.998 -414v1240h150v-1434h-155l-296 420l-297 -420h-155v861c0 24.667 4.33301 47.5 13 68.5s20.834 39.333 36.501 55s34 27.834 55 36.501s43.833 13 68.5 13
s47.5 -4.33301 68.5 -13s39.167 -20.834 54.5 -36.501s27.333 -34 36 -55s13 -43.833 13 -68.5s-4.33301 -47.5 -13 -68.5s-20.667 -39.167 -36 -54.5s-33.5 -27.333 -54.5 -36s-43.833 -13 -68.5 -13h-11.5c-4.33301 0 -8.16602 0.333008 -11.499 1v-496z" />
    <glyph glyph-name="uni0E1E" unicode="&#xe1e;" horiz-adv-x="1367" 
d="M385 200c4 17.333 8.83301 36.667 14.5 58l17 62.5l16.5 57c5.33301 17.667 9.66602 30.834 12.999 39.501l214 607h118l212 -607c3.33301 -8.66699 7.66602 -21.834 12.999 -39.501l17 -57.5c6 -20.667 11.667 -41.667 17 -63l14 -58v825h150v-1024h-193l-229 662
c-5.33301 16 -11.5 35.833 -18.5 59.5l-20.5 68.5l-22 81l-22 -81l-20.5 -69.5c-7 -23.667 -13.167 -43.5 -18.5 -59.5l-229 -661h-193v690c-3.33301 -0.666992 -7.16602 -1 -11.499 -1h-11.5c-24.667 0 -47.5 4.33301 -68.5 13s-39.167 20.667 -54.5 36
s-27.333 33.5 -36 54.5s-13 43.833 -13 68.5s4.33301 47.5 13 68.5s20.667 39.333 36 55s33.5 27.834 54.5 36.501s43.833 13 68.5 13s47.5 -4.33301 68.5 -13s39.333 -20.834 55 -36.501s27.834 -34 36.501 -55s13 -43.833 13 -68.5v-661zM135 862.001
c0 -21.333 7.66895 -39.668 23.002 -55.001s33.666 -23 54.999 -23c10.667 0 20.667 2 30 6s17.5 9.5 24.5 16.5s12.5 15.333 16.5 25s6 19.834 6 30.501c0 21.333 -7.5 39.5 -22.5 54.5s-33.167 22.5 -54.5 22.5c-10.667 0 -20.834 -2 -30.501 -6s-18 -9.5 -25 -16.5
s-12.5 -15.167 -16.5 -24.5s-6 -19.333 -6 -30z" />
    <glyph glyph-name="uni0E1F" unicode="&#xe1f;" horiz-adv-x="1367" 
d="M385 200c4 17.333 8.83301 36.667 14.5 58l17 62.5l16.5 57c5.33301 17.667 9.66602 30.834 12.999 39.501l214 607h118l212 -607c3.33301 -8.66699 7.66602 -21.834 12.999 -39.501l17 -57.5c6 -20.667 11.667 -41.667 17 -63l14 -58v1235h150v-1434h-193l-229 662
c-5.33301 16 -11.5 35.833 -18.5 59.5l-20.5 68.5l-22 81l-22 -81l-20.5 -69.5c-7 -23.667 -13.167 -43.5 -18.5 -59.5l-229 -661h-193v690c-3.33301 -0.666992 -7.16602 -1 -11.499 -1h-11.5c-24.667 0 -47.5 4.33301 -68.5 13s-39.167 20.667 -54.5 36
s-27.333 33.5 -36 54.5s-13 43.833 -13 68.5s4.33301 47.5 13 68.5s20.667 39.333 36 55s33.5 27.834 54.5 36.501s43.833 13 68.5 13s47.5 -4.33301 68.5 -13s39.333 -20.834 55 -36.501s27.834 -34 36.501 -55s13 -43.833 13 -68.5v-661zM135 862.001
c0 -21.333 7.66895 -39.668 23.002 -55.001s33.666 -23 54.999 -23c10.667 0 20.667 2 30 6s17.5 9.5 24.5 16.5s12.5 15.333 16.5 25s6 19.834 6 30.501c0 21.333 -7.5 39.5 -22.5 54.5s-33.167 22.5 -54.5 22.5c-10.667 0 -20.834 -2 -30.501 -6s-18 -9.5 -25 -16.5
s-12.5 -15.167 -16.5 -24.5s-6 -19.333 -6 -30z" />
    <glyph glyph-name="uni0E20" unicode="&#xe20;" horiz-adv-x="1225" 
d="M932 623c0 46 -5.16602 86.666 -15.499 121.999s-27 65.333 -50 90s-52.667 43.334 -89 56.001s-80.5 19 -132.5 19c-48 0 -89.333 -6.16699 -124 -18.5s-63.667 -28.166 -87 -47.499s-41.333 -41 -54 -65s-21 -47.667 -25 -71h238v-118
c-71.333 -14 -123.333 -39.833 -156 -77.5s-49 -86.834 -49 -147.501v-208c0 -24.667 -4.33301 -47.5 -13 -68.5s-20.834 -39.333 -36.501 -55s-34 -27.834 -55 -36.501s-43.833 -13 -68.5 -13s-47.5 4.33301 -68.5 13s-39.167 20.834 -54.5 36.501s-27.333 34 -36 55
s-13 43.833 -13 68.5s4.33301 47.5 13 68.5s20.667 39.167 36 54.5s33.5 27.333 54.5 36s43.833 13 68.5 13h11.5c4.33301 0 8.16602 -0.333008 11.499 -1v47c0 58.667 15.833 105.5 47.5 140.5s78.834 61.167 141.501 78.5h-221v110
c9.33301 47.333 24.666 91.5 45.999 132.5s49.833 76.833 85.5 107.5s78.834 54.667 129.501 72s109.667 26 177 26c82.667 0 152 -10.167 208 -30.5s101 -48.5 135 -84.5s58.333 -79 73 -129s22 -105 22 -165v-633h-150v623zM138.001 155.999
c0 -10.667 1.99805 -20.6689 5.99805 -30.002s9.5 -17.5 16.5 -24.5s15.333 -12.5 25 -16.5s19.834 -6 30.501 -6c21.333 0 39.5 7.5 54.5 22.5s22.5 33.167 22.5 54.5c0 10.667 -2 20.834 -6 30.501s-9.5 18 -16.5 25s-15.167 12.5 -24.5 16.5s-19.333 6 -30 6
c-21.333 0 -39.666 -7.66699 -54.999 -23s-23 -33.666 -23 -54.999z" />
    <glyph glyph-name="uni0E21" unicode="&#xe21;" horiz-adv-x="1149" 
d="M295 690c-3.33301 -0.666992 -7.16895 -0.999023 -11.502 -0.999023h-11.5c-24.667 0 -47.5 4.33301 -68.5 13s-39.167 20.667 -54.5 36s-27.333 33.5 -36 54.5s-13 43.833 -13 68.5s4.33301 47.5 13 68.5s20.667 39.333 36 55s33.5 27.834 54.5 36.501
s43.833 13 68.5 13s47.5 -4.33301 68.5 -13s39.333 -20.834 55 -36.501s27.834 -34 36.501 -55s13 -43.833 13 -68.5v-497c30 -4.66699 62.667 -11.834 98 -21.501s70.333 -22.334 105 -38.001s68.167 -34 100.5 -55s60.5 -44.833 84.5 -71.5v846h150v-1024h-150
c-18.667 30.667 -43.667 60.5 -75 89.5s-65.333 55.5 -102 79.5s-73.5 44.333 -110.5 61s-70.5 28 -100.5 34v-88c0 -30 -3.5 -56.833 -10.5 -80.5s-18.667 -43.667 -35 -60s-37.666 -29 -63.999 -38s-58.833 -13.5 -97.5 -13.5c-64 0 -111.667 15.5 -143 46.5
s-47 72.167 -47 123.5c0 32 6.66699 60.667 20 86s31.333 47 54 65s49 32.333 79 43s61.333 17.334 94 20.001v322zM194.997 862.001c0 -21.333 7.66895 -39.668 23.002 -55.001s33.666 -23 54.999 -23c10.667 0 20.667 2 30 6s17.5 9.5 24.5 16.5s12.5 15.333 16.5 25
s6 19.834 6 30.501c0 21.333 -7.5 39.5 -22.5 54.5s-33.167 22.5 -54.5 22.5c-10.667 0 -20.834 -2 -30.501 -6s-18 -9.5 -25 -16.5s-12.5 -15.167 -16.5 -24.5s-6 -19.333 -6 -30zM294.999 267.999c-16.667 -2 -31.999 -6.33203 -45.999 -12.999s-26 -15 -36 -25
s-17.667 -21.5 -23 -34.5s-8 -26.833 -8 -41.5c0 -25.333 5.66699 -43.333 17 -54s24.333 -16 39 -16c15.333 0 28.666 5.16699 39.999 15.5s17 28.166 17 53.499v115z" />
    <glyph glyph-name="uni0E22" unicode="&#xe22;" horiz-adv-x="1073" 
d="M391 862c0 10.667 -1.99805 20.6689 -5.99805 30.002s-9.5 17.5 -16.5 24.5s-15.333 12.5 -25 16.5s-19.834 6 -30.501 6c-21.333 0 -39.5 -7.5 -54.5 -22.5s-22.5 -33.167 -22.5 -54.5c0 -10.667 2 -20.834 6 -30.501s9.5 -18 16.5 -25s15.167 -12.5 24.5 -16.5
s19.333 -6 30 -6c21.333 0 39.666 7.66699 54.999 23s23 33.666 23 54.999zM141.002 861.002c0 24.667 4.33105 47.5068 12.998 68.5068s20.834 39.333 36.501 55s34 27.834 55 36.501s43.833 13 68.5 13s47.5 -4.33301 68.5 -13s39.167 -20.834 54.5 -36.501
s27.333 -34 36 -55s13 -43.833 13 -68.5s-4.33301 -47.5 -13 -68.5s-20.667 -39.167 -36 -54.5s-33.5 -27.333 -54.5 -36s-43.833 -13 -68.5 -13h-11.5c-4.33301 0 -8.16602 0.333008 -11.499 1c0 -28.667 6 -52.667 18 -72s26.667 -35.333 44 -48s35.333 -22.167 54 -28.5
s35 -10.833 49 -13.5v-81c-14 -2.66699 -30.333 -7.16699 -49 -13.5s-36.667 -15.5 -54 -27.5s-32 -27.333 -44 -46s-18 -41.667 -18 -69v-157h346c42.667 0 75.5 13.167 98.5 39.5s34.5 63.166 34.5 110.499v740h150v-750c0 -32.667 -4.16699 -65.334 -12.5 -98.001
s-23 -62 -44 -88s-49 -47.167 -84 -63.5s-79.5 -24.5 -133.5 -24.5h-505v293c0 31.333 4.33301 58.166 13 80.499s20 41.166 34 56.499s29.667 27.5 47 36.5s34.333 15.833 51 20.5c-16.667 4.66699 -33.667 11.667 -51 21s-33 21.666 -47 36.999s-25.333 34.166 -34 56.499
s-13 49.166 -13 80.499v179z" />
    <glyph glyph-name="uni0E23" unicode="&#xe23;" horiz-adv-x="879" 
d="M734 157c0 -24.667 -4.32617 -47.499 -12.9932 -68.499s-20.834 -39.333 -36.501 -55s-34 -27.834 -55 -36.501s-43.833 -13 -68.5 -13s-47.5 4.33301 -68.5 13s-39.167 20.834 -54.5 36.501s-27.333 34 -36 55s-13 43.833 -13 68.5s4.33301 47.5 13 68.5
s20.667 39.167 36 54.5s33.5 27.333 54.5 36s43.833 13 68.5 13h11.5c4.33301 0 8.16602 -0.333008 11.499 -1v111c0 34.667 -4.33301 64 -13 88s-22.5 43.5 -41.5 58.5s-43.5 25.833 -73.5 32.5s-66.667 10 -110 10c-22 0 -46.5 -1 -73.5 -3s-54.333 -4.83301 -82 -8.5
s-54.334 -7.83398 -80.001 -12.501s-48.167 -9.66699 -67.5 -15v119c0 47.333 3.5 91.333 10.5 132s20.667 76 41 106s48.833 53.5 85.5 70.5s84.667 25.5 144 25.5c26 0 53.833 -1 83.5 -3s59.167 -4.33301 88.5 -7s57.5 -5 84.5 -7s50.833 -3 71.5 -3
c9.33301 0 23.333 0.333008 42 1s37.834 1.5 57.501 2.5s37.667 2 54 3s26.5 2.16699 30.5 3.5v-140c-4.66699 -2 -15.334 -3.5 -32.001 -4.5s-34.667 -1.66699 -54 -2l-57 -1c-18.667 -0.333008 -32.334 -0.5 -41.001 -0.5c-19.333 0 -42.333 1.33301 -69 4l-83.5 8.5
c-29 3 -57.833 5.83301 -86.5 8.5s-54.334 4 -77.001 4c-36 0 -63.333 -5.83301 -82 -17.5s-32.334 -26 -41.001 -43s-13.5 -35 -14.5 -54s-1.5 -36.167 -1.5 -51.5c53.333 12 115.333 18 186 18c61.333 0 114.166 -6 158.499 -18s80.833 -31 109.5 -57
s49.667 -59.167 63 -99.5s20 -88.833 20 -145.5v-284zM484.007 156.001c0 -10.667 1.99805 -20.6689 5.99805 -30.002s9.5 -17.5 16.5 -24.5s15.333 -12.5 25 -16.5s19.834 -6 30.501 -6c21.333 0 39.5 7.5 54.5 22.5s22.5 33.167 22.5 54.5c0 10.667 -2 20.834 -6 30.501
s-9.5 18 -16.5 25s-15.167 12.5 -24.5 16.5s-19.333 6 -30 6c-21.333 0 -39.666 -7.66699 -54.999 -23s-23 -33.666 -23 -54.999z" />
    <glyph glyph-name="uni0E24" unicode="&#xe24;" horiz-adv-x="1175" 
d="M882 -410l0.00292969 1033c0 92 -25.333 162.833 -76 212.5s-128 74.5 -232 74.5c-48 0 -90.333 -6.16699 -127 -18.5s-67.834 -28.166 -93.501 -47.499s-45.834 -41 -60.501 -65s-24 -47.667 -28 -71h238v-118c-71.333 -14 -124.166 -39.833 -158.499 -77.5
s-51.5 -86.834 -51.5 -147.501v-37c3.33301 0.666992 7.16602 1 11.499 1h11.5c24.667 0 47.5 -4.33301 68.5 -13s39.167 -20.667 54.5 -36s27.333 -33.5 36 -54.5s13 -43.833 13 -68.5s-4.33301 -47.5 -13 -68.5s-20.667 -39.333 -36 -55s-33.5 -27.834 -54.5 -36.501
s-43.833 -13 -68.5 -13s-47.5 4.33301 -68.5 13s-39.333 20.834 -55 36.501s-27.834 34 -36.501 55s-13 43.833 -13 68.5v218c0 58 16.833 104.667 50.5 140s81.5 61.666 143.5 78.999h-221v115c9.33301 47.333 25.666 91.333 48.999 132s54 75.834 92 105.501
s83.333 53 136 70s112.667 25.5 180 25.5c82.667 0 153.167 -10.167 211.5 -30.5s105.833 -48.5 142.5 -84.5s63.334 -79 80.001 -129s25 -105 25 -165v-1043h-150zM393.003 156c0 21.333 -7.66895 39.668 -23.002 55.001s-33.666 23 -54.999 23
c-10.667 0 -20.667 -2 -30 -6s-17.5 -9.5 -24.5 -16.5s-12.5 -15.333 -16.5 -25s-6 -19.834 -6 -30.501c0 -21.333 7.5 -39.5 22.5 -54.5s33.167 -22.5 54.5 -22.5c10.667 0 20.834 2 30.501 6s18 9.5 25 16.5s12.5 15.167 16.5 24.5s6 19.333 6 30z" />
    <glyph glyph-name="uni0E25" unicode="&#xe25;" horiz-adv-x="1104" 
d="M961 0h-150.995v253c0 37.333 -6.33301 72.166 -19 104.499s-31.5 60.833 -56.5 85.5s-55.833 44 -92.5 58s-79.334 21 -128.001 21c-160.667 0 -241 -60.333 -241 -181v-14c3.33301 0.666992 7.16602 1.16699 11.499 1.5s8.16602 0.5 11.499 0.5
c24.667 0 47.5 -4.33301 68.5 -13s39.167 -20.667 54.5 -36s27.333 -33.5 36 -54.5s13 -43.833 13 -68.5s-4.33301 -47.5 -13 -68.5s-20.667 -39.333 -36 -55s-33.5 -27.834 -54.5 -36.501s-43.833 -13 -68.5 -13s-47.5 4.33301 -68.5 13s-39.333 20.834 -55 36.501
s-27.834 34 -36.501 55s-13 43.833 -13 68.5v192c0 46 8.33301 88 25 126s40.667 70.5 72 97.5s70 47.833 116 62.5s98.333 22 157 22c76.667 0 141.667 -15.833 195 -47.5s92.666 -74.5 117.999 -128.5h4v150c0 38 -5.5 74 -16.5 108s-28.5 63.5 -52.5 88.5
s-54.667 44.833 -92 59.5s-82 22 -134 22c-32 0 -64.833 -3.66699 -98.5 -11s-67.167 -17.833 -100.5 -31.5s-65.5 -30.5 -96.5 -50.5s-60.167 -43 -87.5 -69v170c50 42 108.167 73.333 174.5 94s135.833 31 208.5 31c74 0 138.833 -10.167 194.5 -30.5
s102.167 -48.666 139.5 -84.999s65.333 -79.5 84 -129.5s28 -104.667 28 -164v-633zM373.005 156c0 21.333 -7.66895 39.668 -23.002 55.001s-33.666 23 -54.999 23c-10.667 0 -20.667 -2 -30 -6s-17.5 -9.5 -24.5 -16.5s-12.5 -15.333 -16.5 -25s-6 -19.834 -6 -30.501
c0 -21.333 7.5 -39.5 22.5 -54.5s33.167 -22.5 54.5 -22.5c10.667 0 20.834 2 30.501 6s18 9.5 25 16.5s12.5 15.167 16.5 24.5s6 19.333 6 30z" />
    <glyph glyph-name="uni0E26" unicode="&#xe26;" horiz-adv-x="1225" 
d="M932 623c0 46 -5.16602 86.666 -15.499 121.999s-27 65.333 -50 90s-52.667 43.334 -89 56.001s-80.5 19 -132.5 19c-48 0 -89.333 -6.16699 -124 -18.5s-63.667 -28.166 -87 -47.499s-41.333 -41 -54 -65s-21 -47.667 -25 -71h238v-118
c-71.333 -14 -123.333 -39.833 -156 -77.5s-49 -86.834 -49 -147.501v-208c0 -24.667 -4.33301 -47.5 -13 -68.5s-20.834 -39.333 -36.501 -55s-34 -27.834 -55 -36.501s-43.833 -13 -68.5 -13s-47.5 4.33301 -68.5 13s-39.167 20.834 -54.5 36.501s-27.333 34 -36 55
s-13 43.833 -13 68.5s4.33301 47.5 13 68.5s20.667 39.167 36 54.5s33.5 27.333 54.5 36s43.833 13 68.5 13h11.5c4.33301 0 8.16602 -0.333008 11.499 -1v47c0 58.667 15.833 105.5 47.5 140.5s78.834 61.167 141.501 78.5h-221v110
c9.33301 47.333 24.666 91.5 45.999 132.5s49.833 76.833 85.5 107.5s78.834 54.667 129.501 72s109.667 26 177 26c82.667 0 152 -10.167 208 -30.5s101 -48.5 135 -84.5s58.333 -79 73 -129s22 -105 22 -165v-1043h-150v1033zM138.001 155.999
c0 -10.667 1.99805 -20.6689 5.99805 -30.002s9.5 -17.5 16.5 -24.5s15.333 -12.5 25 -16.5s19.834 -6 30.501 -6c21.333 0 39.5 7.5 54.5 22.5s22.5 33.167 22.5 54.5c0 10.667 -2 20.834 -6 30.501s-9.5 18 -16.5 25s-15.167 12.5 -24.5 16.5s-19.333 6 -30 6
c-21.333 0 -39.666 -7.66699 -54.999 -23s-23 -33.666 -23 -54.999z" />
    <glyph glyph-name="uni0E27" unicode="&#xe27;" horiz-adv-x="932" 
d="M638 638c0 95.333 -22.3301 164.501 -66.9971 207.501s-110.667 64.5 -198 64.5c-30.667 0 -62.834 -3.5 -96.501 -10.5s-66.334 -16.333 -98.001 -28s-61.334 -24.667 -89.001 -39s-50.834 -28.5 -69.501 -42.5v170c18.667 12 40.834 23 66.501 33
s53.834 18.667 84.501 26s63.167 13.166 97.5 17.499s69.166 6.5 104.499 6.5c142.667 0 247.667 -32.5 315 -97.5s101 -166.833 101 -305.5v-483c0 -24.667 -4.5 -47.5 -13.5 -68.5s-21.167 -39.333 -36.5 -55s-33.666 -27.834 -54.999 -36.501s-44.333 -13 -69 -13
s-47.5 4.33301 -68.5 13s-39.167 20.834 -54.5 36.501s-27.333 34 -36 55s-13 43.833 -13 68.5s4.33301 47.5 13 68.5s20.667 39.167 36 54.5s33.5 27.333 54.5 36s43.833 13 68.5 13h11.5c4.33301 0 8.16602 -0.333008 11.499 -1v310zM538.003 156.001
c0 -10.667 1.99805 -20.6689 5.99805 -30.002s9.5 -17.5 16.5 -24.5s15.333 -12.5 25 -16.5s19.834 -6 30.501 -6c21.333 0 39.5 7.5 54.5 22.5s22.5 33.167 22.5 54.5c0 10.667 -2 20.834 -6 30.501s-9.5 18 -16.5 25s-15.167 12.5 -24.5 16.5s-19.333 6 -30 6
c-21.333 0 -39.666 -7.66699 -54.999 -23s-23 -33.666 -23 -54.999z" />
    <glyph glyph-name="uni0E28" unicode="&#xe28;" horiz-adv-x="1180" 
d="M322 0h-149.997v274c-0.666992 32 -4.83398 62.333 -12.501 91l-24.5 87.5c-8.66699 29.667 -16.667 61.334 -24 95.001s-11 71.834 -11 114.501c0 62 10.833 116.667 32.5 164s52.667 87 93 119s89.166 56.167 146.499 72.5s121.666 24.5 192.999 24.5
c99.333 0 184 -14.667 254 -44c15.333 22 27.666 44 36.999 66s16 42.667 20 62h161c-20.667 -76.667 -55.667 -144.334 -105 -203.001c34 -34 59.5 -75 76.5 -123s25.5 -103.667 25.5 -167v-633h-150v623c0 38 -5.5 74.5 -16.5 109.5s-29.5 65.833 -55.5 92.5
c-19.333 -14 -40.166 -28.333 -62.499 -43s-44.833 -28.334 -67.5 -41.001h-143c10.667 6.66699 23.167 15.167 37.5 25.5l46 34.5c16.333 12.667 32.833 26.167 49.5 40.5s32.334 28.5 47.001 42.5c-20.667 8 -43.667 14.167 -69 18.5s-53.666 6.5 -84.999 6.5
c-58 0 -107 -7.66699 -147 -23s-72.5 -34.833 -97.5 -58.5s-43 -50.167 -54 -79.5s-16.5 -58 -16.5 -86c0 -40 4.5 -77.833 13.5 -113.5l25.5 -98.5c15.333 25.333 32.333 49.666 51 72.999s39.667 43.833 63 61.5s49.666 31.834 78.999 42.501s62 16 98 16
c26.667 0 51.667 -3.83301 75 -11.5s43.5 -19 60.5 -34s30.333 -33.5 40 -55.5s14.5 -47 14.5 -75c0 -24.667 -4.33301 -47.5 -13 -68.5s-20.834 -39.167 -36.501 -54.5s-34 -27.333 -55 -36s-43.833 -13 -68.5 -13s-47.5 4.33301 -68.5 13s-39.167 20.667 -54.5 36
s-27.333 33.5 -36 54.5s-13 43.833 -13 68.5c0 6.66699 0.666992 11.334 2 14.001c-10.667 -8.66699 -22 -20.334 -34 -35.001s-23.333 -32.167 -34 -52.5s-19.5 -43.5 -26.5 -69.5s-10.5 -55 -10.5 -87v-237zM598.003 390c10.667 0 20.6689 1.99805 30.002 5.99805
s17.5 9.5 24.5 16.5s12.5 15.333 16.5 25s6 19.834 6 30.501c0 21.333 -7.5 39.5 -22.5 54.5s-33.167 22.5 -54.5 22.5c-10.667 0 -20.834 -2 -30.501 -6s-18 -9.5 -25 -16.5s-12.5 -15.167 -16.5 -24.5s-6 -19.333 -6 -30c0 -21.333 7.66699 -39.666 23 -54.999
s33.666 -23 54.999 -23z" />
    <glyph glyph-name="uni0E29" unicode="&#xe29;" horiz-adv-x="1209" 
d="M793 547c0 -9.33301 -1.33496 -20.333 -4.00195 -33s-7.66699 -23.667 -15 -33c29.333 8 58.666 18 87.999 30v513h150v-425c66.667 50.667 122 108.667 166 174v-168c-19.333 -23.333 -43.166 -46.5 -71.499 -69.5s-59.833 -44.5 -94.5 -64.5v-197
c0 -32.667 -4.16699 -65.334 -12.5 -98.001s-23 -62 -44 -88s-49 -47.167 -84 -63.5s-79.5 -24.5 -133.5 -24.5h-500v690c-3.33301 -0.666992 -7.16602 -1 -11.499 -1h-11.5c-24.667 0 -47.5 4.33301 -68.5 13s-39.167 20.667 -54.5 36s-27.333 33.5 -36 54.5
s-13 43.833 -13 68.5s4.33301 47.5 13 68.5s20.667 39.333 36 55s33.5 27.834 54.5 36.501s43.833 13 68.5 13s47.5 -4.33301 68.5 -13s39.333 -20.834 55 -36.501s27.834 -34 36.501 -55s13 -43.833 13 -68.5v-727h336c42.667 0 76.334 13.167 101.001 39.5
s37 63.166 37 110.499v121c-30 -9.33301 -60.333 -16.666 -91 -21.999s-61.667 -8 -93 -8c-34.667 0 -65.167 4.33301 -91.5 13s-48.5 20.834 -66.5 36.501s-31.5 34 -40.5 55s-13.5 43.5 -13.5 67.5c0 23.333 4.16699 45 12.5 65s19.666 37.333 33.999 52
s31.5 26.167 51.5 34.5s41.667 12.5 65 12.5s45 -4.16699 65 -12.5s37.333 -19.833 52 -34.5s26.167 -32 34.5 -52s12.5 -41.667 12.5 -65zM137.998 862c0 -21.333 7.66895 -39.668 23.002 -55.001s33.666 -23 54.999 -23c10.667 0 20.667 2 30 6s17.5 9.5 24.5 16.5
s12.5 15.333 16.5 25s6 19.834 6 30.501c0 21.333 -7.5 39.5 -22.5 54.5s-33.167 22.5 -54.5 22.5c-10.667 0 -20.834 -2 -30.501 -6s-18 -9.5 -25 -16.5s-12.5 -15.167 -16.5 -24.5s-6 -19.333 -6 -30zM560 547.998c0 -20 6.66699 -36.667 20 -50s30 -20 50 -20
c19.333 0 35.666 6.66699 48.999 20s20 30 20 50c0 19.333 -6.66699 35.666 -20 48.999s-29.666 20 -48.999 20c-20 0 -36.667 -6.66699 -50 -20s-20 -29.666 -20 -48.999z" />
    <glyph glyph-name="uni0E2A" unicode="&#xe2a;" horiz-adv-x="1104" 
d="M961 0l-150.995 -0.000976562v253c0 37.333 -6.33301 72.166 -19 104.499s-31.5 60.833 -56.5 85.5s-55.833 44 -92.5 58s-79.334 21 -128.001 21c-160.667 0 -241 -60.333 -241 -181v-14c3.33301 0.666992 7.16602 1.16699 11.499 1.5s8.16602 0.5 11.499 0.5
c24.667 0 47.5 -4.33301 68.5 -13s39.167 -20.667 54.5 -36s27.333 -33.5 36 -54.5s13 -43.833 13 -68.5s-4.33301 -47.5 -13 -68.5s-20.667 -39.333 -36 -55s-33.5 -27.834 -54.5 -36.501s-43.833 -13 -68.5 -13s-47.5 4.33301 -68.5 13s-39.333 20.834 -55 36.501
s-27.834 34 -36.501 55s-13 43.833 -13 68.5v192c0 46 8.33301 88 25 126s40.667 70.5 72 97.5s70 47.833 116 62.5s98.333 22 157 22c76.667 0 141.667 -15.833 195 -47.5s92.666 -74.5 117.999 -128.5h4v150c0 38 -5.5 73.833 -16.5 107.5s-28.5 63.167 -52.5 88.5
c-19.333 -14.667 -40.333 -29.667 -63 -45s-45.334 -29 -68.001 -41h-143c10.667 6.66699 23.5 15.334 38.5 26.001s30.667 22.5 47 35.5l50 41c17 14.333 32.833 28.833 47.5 43.5c-19.333 7.33301 -40.166 12.833 -62.499 16.5s-46.5 5.5 -72.5 5.5
c-32 0 -64.833 -3.66699 -98.5 -11s-67.167 -17.833 -100.5 -31.5s-65.5 -30.5 -96.5 -50.5s-60.167 -43 -87.5 -69v170c50 42 108.167 73.333 174.5 94s135.833 31 208.5 31c89.333 0 166.333 -15.333 231 -46c14.667 22 27 44.5 37 67.5s17 43.833 21 62.5h161
c-10 -38 -24.5 -74.833 -43.5 -110.5s-40.5 -68.167 -64.5 -97.5c34.667 -36 60.667 -78.167 78 -126.5s26 -101.166 26 -158.499v-633zM373.005 155.999c0 21.333 -7.66895 39.668 -23.002 55.001s-33.666 23 -54.999 23c-10.667 0 -20.667 -2 -30 -6
s-17.5 -9.5 -24.5 -16.5s-12.5 -15.333 -16.5 -25s-6 -19.834 -6 -30.501c0 -21.333 7.5 -39.5 22.5 -54.5s33.167 -22.5 54.5 -22.5c10.667 0 20.834 2 30.501 6s18 9.5 25 16.5s12.5 15.167 16.5 24.5s6 19.333 6 30z" />
    <glyph glyph-name="uni0E2B" unicode="&#xe2b;" horiz-adv-x="1207" 
d="M388 0l-150.006 -0.00390625v691c-3.33301 -0.666992 -7.16602 -1.16699 -11.499 -1.5s-8.16602 -0.5 -11.499 -0.5c-24.667 0 -47.5 4.33301 -68.5 13s-39.167 20.667 -54.5 36s-27.333 33.5 -36 54.5s-13 43.833 -13 68.5s4.33301 47.5 13 68.5s20.667 39.333 36 55
s33.5 27.834 54.5 36.501s43.833 13 68.5 13s47.5 -4.33301 68.5 -13s39.333 -20.834 55 -36.501s27.834 -34 36.501 -55s13 -43.833 13 -68.5v-549c22 32 48 65.333 78 100l94.5 104c33 34.667 66.667 68.334 101 101.001l96.5 89l-37 29.5
c-13.333 11 -25.833 23.5 -37.5 37.5s-21.334 29.833 -29.001 47.5s-11.5 37.167 -11.5 58.5c0 24 4.5 45.5 13.5 64.5s21.833 35.333 38.5 49s36.334 24 59.001 31s47.334 10.5 74.001 10.5c60.667 0 108.667 -12.833 144 -38.5s53 -61.167 53 -106.5
c0 -18 -3.33301 -35.167 -10 -51.5s-14.834 -31.666 -24.501 -45.999s-20 -27.5 -31 -39.5l-29.5 -31c48 -33.333 80.667 -68.666 98 -105.999s26 -78 26 -122v-493h-150v491c0 21.333 -2.16699 40.333 -6.5 57s-9.66602 31.167 -15.999 43.5s-13.166 22.5 -20.499 30.5
s-13.666 14.333 -18.999 19l-75 -72l-95.5 -98l-101 -113.5c-33.667 -39.667 -64 -79 -91 -118s-49 -76.667 -66 -113s-25.5 -69.166 -25.5 -98.499v-28zM137.994 861.996c0 -21.333 7.66895 -39.668 23.002 -55.001s33.666 -23 54.999 -23c10.667 0 20.667 2 30 6
s17.5 9.5 24.5 16.5s12.5 15.333 16.5 25s6 19.834 6 30.501c0 21.333 -7.5 39.5 -22.5 54.5s-33.167 22.5 -54.5 22.5c-10.667 0 -20.834 -2 -30.501 -6s-18 -9.5 -25 -16.5s-12.5 -15.167 -16.5 -24.5s-6 -19.333 -6 -30zM893.996 873.994
c0 17.333 -5.33203 31.667 -15.999 43s-27 17 -49 17c-18 0 -33 -5.33301 -45 -16s-18 -24.667 -18 -42c0 -19.333 7.16699 -37 21.5 -53s32.166 -30 53.499 -42c12.667 11.333 24.667 24.833 36 40.5s17 33.167 17 52.5z" />
    <glyph glyph-name="uni0E2C" unicode="&#xe2c;" horiz-adv-x="1371" 
d="M385 200c4 17.333 8.83398 36.668 14.501 58.001l17 62.5l16.5 57c5.33301 17.667 9.66602 30.834 12.999 39.501l214 607h118l212 -607c3.33301 -8.66699 7.66602 -21.834 12.999 -39.501l17 -57.5c6 -20.667 11.667 -41.667 17 -63l14 -58v741
c-3.33301 -0.666992 -7.16602 -1 -11.499 -1h-11.5c-24.667 0 -47.5 4.33301 -68.5 13s-39.167 20.667 -54.5 36s-27.333 33.5 -36 54.5s-13 43.833 -13 68.5s4.33301 47.5 13 68.5s20.667 39.333 36 55s33.5 27.834 54.5 36.501s43.833 13 68.5 13s47.5 -4.33301 68.5 -13
s39.333 -20.834 55 -36.501s27.834 -34 36.501 -55s13 -43.833 13 -68.5c15.333 10 30.666 22.833 45.999 38.5s30.333 33.167 45 52.5s28.667 39.833 42 61.5s25.666 43.5 36.999 65.5v-178c-23.333 -30.667 -48.833 -58.334 -76.5 -83.001s-58.834 -44 -93.501 -58v-1010
h-193l-229 662c-5.33301 15.333 -11.5 34.5 -18.5 57.5s-13.5 45.333 -19.5 67l-15.5 56.5c-4.33301 16 -6.83301 25 -7.5 27c-0.666992 -2 -3.16699 -11 -7.5 -27l-16 -57l-19.5 -67.5c-6.66699 -23 -12.667 -42.167 -18 -57.5l-229 -661h-193v690
c-3.33301 -0.666992 -7.16602 -1 -11.499 -1h-11.5c-24.667 0 -47.5 4.33301 -68.5 13s-39.167 20.667 -54.5 36s-27.333 33.5 -36 54.5s-13 43.833 -13 68.5s4.33301 47.5 13 68.5s20.667 39.333 36 55s33.5 27.834 54.5 36.501s43.833 13 68.5 13s47.5 -4.33301 68.5 -13
s39.333 -20.834 55 -36.501s27.834 -34 36.501 -55s13 -43.833 13 -68.5v-661zM135.001 862.002c0 -21.333 7.66895 -39.668 23.002 -55.001s33.666 -23 54.999 -23c10.667 0 20.667 2 30 6s17.5 9.5 24.5 16.5s12.5 15.333 16.5 25s6 19.834 6 30.501
c0 21.333 -7.5 39.5 -22.5 54.5s-33.167 22.5 -54.5 22.5c-10.667 0 -20.834 -2 -30.501 -6s-18 -9.5 -25 -16.5s-12.5 -15.167 -16.5 -24.5s-6 -19.333 -6 -30zM951.003 1112c0 -21.333 7.66895 -39.668 23.002 -55.001s33.666 -23 54.999 -23c10.667 0 20.667 2 30 6
s17.5 9.5 24.5 16.5s12.5 15.333 16.5 25s6 19.834 6 30.501c0 21.333 -7.5 39.5 -22.5 54.5s-33.167 22.5 -54.5 22.5c-10.667 0 -20.834 -2 -30.501 -6s-18 -9.5 -25 -16.5s-12.5 -15.167 -16.5 -24.5s-6 -19.333 -6 -30z" />
    <glyph glyph-name="uni0E2D" unicode="&#xe2d;" horiz-adv-x="1082" 
d="M293 291c0 -58.667 20.832 -101.997 62.499 -129.997s103.5 -42 185.5 -42c84.667 0 147 15.667 187 47s60 76.666 60 135.999v329c0 38 -5.5 74 -16.5 108s-28.5 63.5 -52.5 88.5s-54.667 44.833 -92 59.5s-82 22 -134 22c-32 0 -64.833 -3.66699 -98.5 -11
s-67.167 -17.833 -100.5 -31.5s-65.5 -30.5 -96.5 -50.5s-60.167 -43 -87.5 -69v170c50 42 108.167 73.333 174.5 94s135.833 31 208.5 31c74 0 138.833 -10.167 194.5 -30.5s102.167 -48.666 139.5 -84.999s65.333 -79.5 84 -129.5s28 -104.667 28 -164v-338
c0 -44.667 -7.83301 -85.834 -23.5 -123.501s-39.834 -70.334 -72.501 -98.001s-74 -49.167 -124 -64.5s-109.333 -23 -178 -23c-70.667 0 -131.167 7.66699 -181.5 23s-91.5 36.833 -123.5 64.5s-55.5 60.667 -70.5 99s-22.5 80.166 -22.5 125.499v170
c0 24.667 4.33301 47.5 13 68.5s20.834 39.333 36.501 55s34 27.834 55 36.501s43.833 13 68.5 13s47.5 -4.33301 68.5 -13s39.167 -20.834 54.5 -36.501s27.333 -34 36 -55s13 -43.833 13 -68.5s-4.33301 -47.5 -13 -68.5s-20.667 -39.167 -36 -54.5
s-33.5 -27.333 -54.5 -36s-43.833 -13 -68.5 -13h-11.5c-4.33301 0 -8.16602 0.333008 -11.499 1v-6zM392.999 469.003c0 10.667 -1.99805 20.6689 -5.99805 30.002s-9.5 17.5 -16.5 24.5s-15.333 12.5 -25 16.5s-19.834 6 -30.501 6c-21.333 0 -39.5 -7.5 -54.5 -22.5
s-22.5 -33.167 -22.5 -54.5c0 -10.667 2 -20.834 6 -30.501s9.5 -18 16.5 -25s15.167 -12.5 24.5 -16.5s19.333 -6 30 -6c21.333 0 39.666 7.66699 54.999 23s23 33.666 23 54.999z" />
    <glyph glyph-name="uni0E2E" unicode="&#xe2e;" horiz-adv-x="1101" 
d="M482 927c-40.667 0 -74.167 -2.16797 -100.5 -6.50098s-47 -10 -62 -17s-25.333 -14.5 -31 -22.5s-8.5 -16 -8.5 -24s2.66699 -16 8 -24s14.5 -15.167 27.5 -21.5s30.167 -11.5 51.5 -15.5s48 -6 80 -6c25.333 0 51.833 1.16699 79.5 3.5s55 5.5 82 9.5
s52.833 8.83301 77.5 14.5s47 11.834 67 18.501c-10 14.667 -24 27.667 -42 39s-38.833 20.833 -62.5 28.5s-49.5 13.5 -77.5 17.5s-57.667 6 -89 6zM939 294.999c0 -44.667 -7.83301 -85.832 -23.5 -123.499s-39.834 -70.167 -72.501 -97.5s-74 -48.833 -124 -64.5
s-109.333 -23.5 -178 -23.5c-70.667 0 -131.167 7.83301 -181.5 23.5s-91.5 37.334 -123.5 65.001s-55.5 60.5 -70.5 98.5s-22.5 79.667 -22.5 125v150c0 24.667 4.33301 47.5 13 68.5s20.834 39.333 36.501 55s34 27.834 55 36.501s43.833 13 68.5 13
s47.5 -4.33301 68.5 -13s39.167 -20.834 54.5 -36.501s27.333 -34 36 -55s13 -43.833 13 -68.5s-4.33301 -47.5 -13 -68.5s-20.667 -39.167 -36 -54.5s-33.5 -27.333 -54.5 -36s-43.833 -13 -68.5 -13h-11.5c-4.33301 0 -8.16602 0.333008 -11.499 1
c1.33301 -48.667 21.333 -87.167 60 -115.5s101.334 -42.5 188.001 -42.5c84.667 0 147 15.5 187 46.5s60 75.5 60 133.5v360c0 13.333 -0.5 25.833 -1.5 37.5s-2.5 21.167 -4.5 28.5c-44 -16 -95.167 -29.167 -153.5 -39.5s-119.833 -15.5 -184.5 -15.5
c-53.333 0 -99.833 4.66699 -139.5 14s-72.834 22.166 -99.501 38.499s-46.5 36 -59.5 59s-19.5 48.167 -19.5 75.5c0 26.667 7 51.334 21 74.001s35.667 42.167 65 58.5s66.333 29.166 111 38.499s97.667 14 159 14c96.667 0 178.167 -12.667 244.5 -38
s116.5 -61 150.5 -107c26 16.667 52.167 36.5 78.5 59.5s51.166 46.833 74.499 71.5v-159c-18.667 -17.333 -35.5 -32 -50.5 -44s-32.833 -24 -53.5 -36c5.33301 -17.333 8.83301 -36.833 10.5 -58.5s2.5 -44.834 2.5 -69.501v-366zM393 449.001
c0 10.667 -1.99805 20.6689 -5.99805 30.002s-9.5 17.5 -16.5 24.5s-15.333 12.5 -25 16.5s-19.834 6 -30.501 6c-21.333 0 -39.5 -7.5 -54.5 -22.5s-22.5 -33.167 -22.5 -54.5c0 -10.667 2 -20.834 6 -30.501s9.5 -18 16.5 -25s15.167 -12.5 24.5 -16.5s19.333 -6 30 -6
c21.333 0 39.666 7.66699 54.999 23s23 33.666 23 54.999z" />
    <glyph glyph-name="uni0E2F" unicode="&#xe2f;" horiz-adv-x="1035" 
d="M869 1024l-0.000976562 -1023.99h-150v803h-4c-20.667 -36.667 -45.167 -72.334 -73.5 -107.001s-60.333 -65.5 -96 -92.5s-74.667 -48.5 -117 -64.5s-87.833 -24 -136.5 -24c-71.333 0 -127.333 19 -168 57s-61 91.333 -61 160c0 37.333 6.33301 69.666 19 96.999
s29.167 49.666 49.5 66.999s43.333 30.166 69 38.499s51.5 12.5 77.5 12.5c36 0 68 -5.66699 96 -17v-141c-13.333 6 -28.166 11.333 -44.499 16s-33.5 7 -51.5 7c-23.333 0 -43.5 -6.83301 -60.5 -20.5s-25.5 -33.5 -25.5 -59.5c0 -26.667 9 -48.667 27 -66
s46.667 -26 86 -26c52 0 100.167 10.333 144.5 31s83.833 48.667 118.5 84s64.667 76.166 90 122.499s45 95.166 59 146.499h152z" />
    <glyph glyph-name="uni0E30" unicode="&#xe30;" horiz-adv-x="700" 
d="M365 280c0 -9.33301 -1.33203 -20.3359 -3.99902 -33.0029s-7.66699 -23.667 -15 -33c26 6 54.167 16.833 84.5 32.5s60 34.834 89 57.501s56 48 81 76s45.5 57.333 61.5 88v-168c-18.667 -22.667 -41.667 -45.5 -69 -68.5s-58.333 -43.667 -93 -62
s-73 -33.166 -115 -44.499s-87 -17 -135 -17c-34.667 0 -65.167 4.33301 -91.5 13s-48.5 20.834 -66.5 36.501s-31.5 34 -40.5 55s-13.5 43.5 -13.5 67.5c0 23.333 4.16699 45 12.5 65s19.666 37.333 33.999 52s31.5 26.167 51.5 34.5s41.667 12.5 65 12.5
s45 -4.16699 65 -12.5s37.333 -19.833 52 -34.5s26.167 -32 34.5 -52s12.5 -41.667 12.5 -65zM132.001 280.997c0 -20 6.66699 -36.667 20 -50s30 -20 50 -20c19.333 0 35.666 6.66699 48.999 20s20 30 20 50c0 19.333 -6.66699 35.666 -20 48.999s-29.666 20 -48.999 20
c-20 0 -36.667 -6.66699 -50 -20s-20 -29.666 -20 -48.999zM365.001 808.997c0 -9.33301 -1.33203 -20.3359 -3.99902 -33.0029s-7.66699 -23.667 -15 -33c26 6 54.167 16.833 84.5 32.5s60 34.834 89 57.501s56 48 81 76s45.5 57.333 61.5 88v-168
c-18.667 -22.667 -41.667 -45.5 -69 -68.5s-58.333 -43.667 -93 -62s-73 -33.166 -115 -44.499s-87 -17 -135 -17c-34.667 0 -65.167 4.33301 -91.5 13s-48.5 20.834 -66.5 36.501s-31.5 34 -40.5 55s-13.5 43.5 -13.5 67.5c0 23.333 4.16699 45 12.5 65
s19.666 37.333 33.999 52s31.5 26.167 51.5 34.5s41.667 12.5 65 12.5s45 -4.16699 65 -12.5s37.333 -19.833 52 -34.5s26.167 -32 34.5 -52s12.5 -41.667 12.5 -65zM132.002 809.994c0 -20 6.66699 -36.667 20 -50s30 -20 50 -20c19.333 0 35.666 6.66699 48.999 20
s20 30 20 50c0 19.333 -6.66699 35.666 -20 48.999s-29.666 20 -48.999 20c-20 0 -36.667 -6.66699 -50 -20s-20 -29.666 -20 -48.999z" />
    <glyph glyph-name="uni0E31" unicode="&#xe31;" 
d="M-317 1298c0 -9.33301 -1.33301 -20.3359 -4 -33.0029s-7.66699 -23.667 -15 -33c26 6 54.167 16.833 84.5 32.5s60 34.834 89 57.501s56 48 81 76s45.5 57.333 61.5 88v-168c-18.667 -22.667 -41.667 -45.5 -69 -68.5s-58.333 -43.667 -93 -62s-73 -33.166 -115 -44.499
s-87 -17 -135 -17c-34.667 0 -65.167 4.33301 -91.5 13s-48.5 20.834 -66.5 36.501s-31.5 34 -40.5 55s-13.5 43.5 -13.5 67.5c0 23.333 4 45 12 65s19.333 37.333 34 52s32 26.167 52 34.5s41.667 12.5 65 12.5s45 -4.16699 65 -12.5s37.333 -19.833 52 -34.5
s26.167 -32 34.5 -52s12.5 -41.667 12.5 -65zM-550 1299c0 -20 6.66699 -36.667 20 -50s30 -20 50 -20c19.333 0 35.666 6.66699 48.999 20s20 30 20 50c0 19.333 -6.66699 35.666 -20 48.999s-29.666 20 -48.999 20c-20 0 -36.667 -6.66699 -50 -20
s-20 -29.666 -20 -48.999z" />
    <glyph glyph-name="uni0E32" unicode="&#xe32;" horiz-adv-x="932" 
d="M638 0l0.00292969 638.001c0 95.333 -22.333 164.5 -67 207.5s-110.667 64.5 -198 64.5c-30.667 0 -62.834 -3.5 -96.501 -10.5s-66.334 -16.333 -98.001 -28s-61.334 -24.667 -89.001 -39s-50.834 -28.5 -69.501 -42.5v170c18.667 12 40.834 23 66.501 33
s53.834 18.667 84.501 26s63.167 13.166 97.5 17.499s69.166 6.5 104.499 6.5c142.667 0 247.667 -32.5 315 -97.5s101 -166.833 101 -305.5v-640h-151z" />
    <glyph glyph-name="uni0E33" unicode="&#xe33;" horiz-adv-x="932" 
d="M638 0l0.00292969 638.001c0 95.333 -22.333 164.5 -67 207.5s-110.667 64.5 -198 64.5c-30.667 0 -62.834 -3.5 -96.501 -10.5s-66.334 -16.333 -98.001 -28s-61.334 -24.667 -89.001 -39s-50.834 -28.5 -69.501 -42.5v170c18.667 12 40.834 23 66.501 33
s53.834 18.667 84.501 26s63.167 13.166 97.5 17.499s69.166 6.5 104.499 6.5c142.667 0 247.667 -32.5 315 -97.5s101 -166.833 101 -305.5v-640h-151zM-159.997 1268c0 19.333 -6.66699 35.666 -20 48.999s-29.666 20 -48.999 20s-35.833 -6.66699 -49.5 -20
s-20.5 -29.666 -20.5 -48.999s6.83301 -35.833 20.5 -49.5s30.167 -20.5 49.5 -20.5s35.666 6.83301 48.999 20.5s20 30.167 20 49.5zM-386.997 1268c0 22 4.16699 42.667 12.5 62s19.5 36.166 33.5 50.499s30.667 25.666 50 33.999s40 12.5 62 12.5
s42.667 -4.16699 62 -12.5s36.166 -19.666 50.499 -33.999s25.666 -31.166 33.999 -50.499s12.5 -40 12.5 -62s-4.16699 -42.667 -12.5 -62s-19.666 -36 -33.999 -50s-31.166 -25.167 -50.499 -33.5s-40 -12.5 -62 -12.5s-42.667 4.16699 -62 12.5s-36 19.5 -50 33.5
s-25.167 30.667 -33.5 50s-12.5 40 -12.5 62z" />
    <glyph glyph-name="uni0E34" unicode="&#xe34;" 
d="M-202 1097c-70 13.333 -137.001 24.5 -201.001 33.5s-127.167 16.167 -189.5 21.5s-124.833 9 -187.5 11s-127.667 3 -195 3c19.333 87.333 59.666 154.5 120.999 201.5s141.333 70.5 240 70.5c46.667 0 91.834 -7.33301 135.501 -22s83.834 -36.167 120.501 -64.5
s68.5 -63 95.5 -104s47.167 -88.167 60.5 -141.5v-9zM-619.001 1360c-62.667 0 -114.168 -10.8311 -154.501 -32.498s-68.166 -52.5 -83.499 -92.5c197.333 0 376.666 -14.333 537.999 -43c-12 22 -27.667 43.167 -47 63.5s-41.666 38.166 -66.999 53.499
s-53.5 27.666 -84.5 36.999s-64.833 14 -101.5 14z" />
    <glyph glyph-name="uni0E35" unicode="&#xe35;" 
d="M-202 1097c-70 13.333 -136.999 24.5 -200.999 33.5s-127.167 16.167 -189.5 21.5s-124.833 9 -187.5 11s-127.667 3 -195 3c19.333 87.333 59.666 154.5 120.999 201.5s141.333 70.5 240 70.5c64.667 0 126 -14 184 -42s107.333 -68.333 148 -121v226h80v-404z
M-618.999 1360c-62.667 0 -114.168 -10.8311 -154.501 -32.498s-68.166 -52.5 -83.499 -92.5c197.333 0 376.666 -14.333 537.999 -43c-12 22 -27.667 43.167 -47 63.5s-41.666 38.166 -66.999 53.499s-53.5 27.666 -84.5 36.999s-64.833 14 -101.5 14z" />
    <glyph glyph-name="uni0E36" unicode="&#xe36;" 
d="M-202 1097c-70 13.333 -137 24.5 -201 33.5s-127.167 16.167 -189.5 21.5s-124.833 9 -187.5 11s-127.667 3 -195 3c19.333 87.333 59.666 154.5 120.999 201.5s141.333 70.5 240 70.5c34.667 0 68.5 -4.16699 101.5 -12.5s64.5 -20.166 94.5 -35.499
c2.66699 17.333 8.33398 33.166 17.001 47.499s19.167 26.833 31.5 37.5s26.333 19 42 25s32.167 9 49.5 9c20 0 38.667 -3.66699 56 -11s32.5 -17.5 45.5 -30.5s23.333 -28.167 31 -45.5s11.5 -36 11.5 -56c0 -35.333 -11 -65.5 -33 -90.5s-49.667 -40.833 -83 -47.5
c21.333 -37.333 37.333 -78 48 -122v-9zM-619 1360c-62.667 0 -114.168 -10.8311 -154.501 -32.498s-68.166 -52.5 -83.499 -92.5c197.333 0 376.666 -14.333 537.999 -43c-12 22 -27.667 43.167 -47 63.5s-41.666 38.166 -66.999 53.499s-53.5 27.666 -84.5 36.999
s-64.833 14 -101.5 14zM-214.001 1366c0 17.333 -6.33301 32.333 -19 45s-27.667 19 -45 19s-32.166 -6.33301 -44.499 -19s-18.5 -27.667 -18.5 -45s6.16699 -32.166 18.5 -44.499s27.166 -18.5 44.499 -18.5s32.333 6.16699 45 18.5s19 27.166 19 44.499z" />
    <glyph glyph-name="uni0E37" unicode="&#xe37;" 
d="M-202 1097c-70 13.333 -136.999 24.501 -200.999 33.501s-127.167 16.167 -189.5 21.5s-124.833 9 -187.5 11s-127.667 3 -195 3c19.333 87.333 59.666 154.5 120.999 201.5s141.333 70.5 240 70.5c31.333 0 61.833 -3.33301 91.5 -10s58.5 -16.334 86.5 -29.001v102h80
v-152c27.333 -21.333 52 -46 74 -74v226h80v-404zM-618.999 1360c-62.667 0 -114.168 -10.8311 -154.501 -32.498s-68.166 -52.5 -83.499 -92.5c197.333 0 376.666 -14.333 537.999 -43c-12 22 -27.667 43.167 -47 63.5s-41.666 38.166 -66.999 53.499
s-53.5 27.666 -84.5 36.999s-64.833 14 -101.5 14z" />
    <glyph glyph-name="uni0E38" unicode="&#xe38;" 
d="M-160 -481l-79.998 0.000976562v158c-3.33301 -2 -9.83301 -4.33301 -19.5 -7s-20.167 -4 -31.5 -4c-16 0 -30.833 3 -44.5 9s-25.667 14 -36 24s-18.333 22 -24 36s-8.5 29 -8.5 45c0 14.667 2.66699 28.667 8 42s13.166 25.166 23.499 35.499s23 18.666 38 24.999
s32.167 9.5 51.5 9.5c39.333 0 69.666 -11.167 90.999 -33.5s32 -50.166 32 -83.499v-256zM-341.998 -219.999c0 -14 5 -26 15 -36s22 -15 36 -15c14.667 0 26.834 5 36.501 15s14.5 22 14.5 36s-4.83301 26 -14.5 36s-21.834 15 -36.501 15c-14 0 -26 -5 -36 -15
s-15 -22 -15 -36z" />
    <glyph glyph-name="uni0E39" unicode="&#xe39;" 
d="M-658 -220c0 -14 5 -26 15 -36s22 -15 36 -15c14.667 0 26.834 5 36.501 15s14.5 22 14.5 36s-4.83301 26 -14.5 36s-21.834 15 -36.501 15c-14 0 -26 -5 -36 -15s-15 -22 -15 -36zM-556 -481l0.00195312 158.002c-3.33301 -2 -9.83301 -4.33301 -19.5 -7
s-20.167 -4 -31.5 -4c-16 0 -30.833 3 -44.5 9s-25.667 14 -36 24s-18.333 22 -24 36s-8.5 29 -8.5 45c0 14.667 2.66699 28.667 8 42s13.166 25.166 23.499 35.499s23 18.666 38 24.999s32.167 9.5 51.5 9.5c39.333 0 69.666 -11.167 90.999 -33.5s32 -50.166 32 -83.499
v-178h55c32.667 0 59 5.66699 79 17s35.333 28.5 46 51.5s17.667 52 21 87s5 75.833 5 122.5h115c0 -30.667 -0.5 -60.834 -1.5 -90.501s-4 -57.667 -9 -84s-13 -50.5 -24 -72.5s-26.333 -41.167 -46 -57.5s-44.5 -29 -74.5 -38s-67 -13.5 -111 -13.5h-135z" />
    <glyph glyph-name="uni0E3A" unicode="&#xe3a;" 
d="M-157 -219c0 -26 -8.83105 -47.833 -26.498 -65.5s-39.5 -26.5 -65.5 -26.5c-26.667 0 -48.667 8.83301 -66 26.5s-26 39.5 -26 65.5c0 12.667 2.33301 24.667 7 36s11 21.333 19 30s17.667 15.5 29 20.5s23.666 7.5 36.999 7.5c12.667 0 24.667 -2.5 36 -7.5
s21.166 -11.833 29.499 -20.5s14.833 -18.667 19.5 -30s7 -23.333 7 -36z" />
    <glyph glyph-name="uni0E3F" unicode="&#xe3f;" horiz-adv-x="1194" 
d="M188 0l0.000976562 1434h325v165h124v-166c104 -6 188.667 -36 254 -90c72.667 -60.667 109 -139.667 109 -237c0 -81.333 -22 -152 -66 -212s-104.667 -102.667 -182 -128v-4c96 -10.667 173.333 -47.334 232 -110.001c58 -60.667 87 -140.667 87 -240
c0 -122.667 -44 -222 -132 -298c-80.667 -70 -181.334 -108 -302.001 -114v-158h-124v158h-325zM900.001 414.001c0 148.667 -87.667 233 -263 253v-521c84 8 148.833 35.833 194.5 83.5s68.5 109.167 68.5 184.5zM351.001 672.001v-528h162v528h-162zM351.001 1290v-475
h162v475h-162zM829.001 1073c0 58.667 -16.001 105.832 -48.001 141.499s-80 58.834 -144 69.501v-457c60.667 15.333 107.834 44 141.501 86s50.5 95.333 50.5 160z" />
    <glyph glyph-name="uni0E40" unicode="&#xe40;" horiz-adv-x="544" 
d="M406 163c0 21.333 -7.66895 39.668 -23.002 55.001s-33.666 23 -54.999 23c-10.667 0 -20.667 -2 -30 -6s-17.5 -9.5 -24.5 -16.5s-12.5 -15.333 -16.5 -25s-6 -19.834 -6 -30.501c0 -21.333 7.5 -39.5 22.5 -54.5s33.167 -22.5 54.5 -22.5c10.667 0 20.834 2 30.501 6
s18 9.5 25 16.5s12.5 15.167 16.5 24.5s6 19.333 6 30zM305.998 1024l0.00292969 -690c3.33301 0.666992 7.16602 1.16699 11.499 1.5s8.16602 0.5 11.499 0.5c24.667 0 47.5 -4.33301 68.5 -13s39.167 -20.667 54.5 -36s27.333 -33.5 36 -54.5s13 -43.833 13 -68.5
s-4.33301 -47.5 -13 -68.5s-20.667 -39.333 -36 -55s-33.5 -27.834 -54.5 -36.501s-43.833 -13 -68.5 -13s-47.5 4.33301 -68.5 13s-39.333 20.834 -55 36.501s-27.834 34 -36.501 55s-13 43.833 -13 68.5v860h150z" />
    <glyph glyph-name="uni0E41" unicode="&#xe41;" horiz-adv-x="989" 
d="M406 163c0 21.333 -7.66895 39.668 -23.002 55.001s-33.666 23 -54.999 23c-10.667 0 -20.667 -2 -30 -6s-17.5 -9.5 -24.5 -16.5s-12.5 -15.333 -16.5 -25s-6 -19.834 -6 -30.501c0 -21.333 7.5 -39.5 22.5 -54.5s33.167 -22.5 54.5 -22.5c10.667 0 20.834 2 30.501 6
s18 9.5 25 16.5s12.5 15.167 16.5 24.5s6 19.333 6 30zM305.998 1024l0.00292969 -690c3.33301 0.666992 7.16602 1.16699 11.499 1.5s8.16602 0.5 11.499 0.5c24.667 0 47.5 -4.33301 68.5 -13s39.167 -20.667 54.5 -36s27.333 -33.5 36 -54.5s13 -43.833 13 -68.5
s-4.33301 -47.5 -13 -68.5s-20.667 -39.333 -36 -55s-33.5 -27.834 -54.5 -36.501s-43.833 -13 -68.5 -13s-47.5 4.33301 -68.5 13s-39.333 20.834 -55 36.501s-27.834 34 -36.501 55s-13 43.833 -13 68.5v860h150zM851.001 163.002
c0 21.333 -7.66895 39.668 -23.002 55.001s-33.666 23 -54.999 23c-10.667 0 -20.667 -2 -30 -6s-17.5 -9.5 -24.5 -16.5s-12.5 -15.333 -16.5 -25s-6 -19.834 -6 -30.501c0 -21.333 7.5 -39.5 22.5 -54.5s33.167 -22.5 54.5 -22.5c10.667 0 20.834 2 30.501 6
s18 9.5 25 16.5s12.5 15.167 16.5 24.5s6 19.333 6 30zM750.999 1024l0.00292969 -690c3.33301 0.666992 7.16602 1.16699 11.499 1.5s8.16602 0.5 11.499 0.5c24.667 0 47.5 -4.33301 68.5 -13s39.167 -20.667 54.5 -36s27.333 -33.5 36 -54.5s13 -43.833 13 -68.5
s-4.33301 -47.5 -13 -68.5s-20.667 -39.333 -36 -55s-33.5 -27.834 -54.5 -36.501s-43.833 -13 -68.5 -13s-47.5 4.33301 -68.5 13s-39.333 20.834 -55 36.501s-27.834 34 -36.501 55s-13 43.833 -13 68.5v860h150z" />
    <glyph glyph-name="uni0E42" unicode="&#xe42;" horiz-adv-x="838" 
d="M700 163c0 21.333 -7.66895 39.668 -23.002 55.001s-33.666 23 -54.999 23c-10.667 0 -20.667 -2 -30 -6s-17.5 -9.5 -24.5 -16.5s-12.5 -15.333 -16.5 -25s-6 -19.834 -6 -30.501c0 -21.333 7.5 -39.5 22.5 -54.5s33.167 -22.5 54.5 -22.5c10.667 0 20.834 2 30.501 6
s18 9.5 25 16.5s12.5 15.167 16.5 24.5s6 19.333 6 30zM599.998 334.002c3.33301 0.666992 7.16699 1.16504 11.5 1.49805s8.16602 0.5 11.499 0.5c24.667 0 47.5 -4.33301 68.5 -13s39.167 -20.667 54.5 -36s27.333 -33.5 36 -54.5s13 -43.833 13 -68.5
s-4.33301 -47.5 -13 -68.5s-20.667 -39.333 -36 -55s-33.5 -27.834 -54.5 -36.501s-43.833 -13 -68.5 -13s-47.5 4.33301 -68.5 13s-39.333 20.834 -55 36.501s-27.834 34 -36.501 55s-13 43.833 -13 68.5v1148c0 63.333 -12.667 107.833 -38 133.5s-65 38.5 -119 38.5
c-18 0 -37.667 -1.5 -59 -4.5s-43 -7 -65 -12s-43.667 -10.667 -65 -17s-41.666 -12.833 -60.999 -19.5v125c0 61.333 7.16699 113.333 21.5 156s35.166 77.334 62.499 104.001s60.833 46 100.5 58s84.834 18 135.501 18c26 0 52.5 -1 79.5 -3s53.5 -4.33301 79.5 -7
s50.833 -5 74.5 -7s44.834 -3 63.501 -3c28.667 0 54 1.16699 76 3.5s37.667 4.5 47 6.5v-136c-9.33301 -3.33301 -24.833 -6.16602 -46.5 -8.49902s-46.5 -3.5 -74.5 -3.5c-16.667 0 -37.334 1.33301 -62.001 4l-78 8.5c-27.333 3 -54.5 5.83301 -81.5 8.5
s-51.167 4 -72.5 4c-34.667 0 -63.667 -3.66699 -87 -11s-42.166 -18 -56.499 -32s-24.666 -31.5 -30.999 -52.5s-9.5 -45.167 -9.5 -72.5c17.333 6 39 12 65 18s52 9 78 9c46.667 0 87.167 -5.5 121.5 -16.5s62.666 -28.667 84.999 -53s39 -55.833 50 -94.5
s16.5 -86 16.5 -142v-978z" />
    <glyph glyph-name="uni0E43" unicode="&#xe43;" horiz-adv-x="801" 
d="M663 163c0 21.333 -7.66895 39.668 -23.002 55.001s-33.666 23 -54.999 23c-10.667 0 -20.667 -2 -30 -6s-17.5 -9.5 -24.5 -16.5s-12.5 -15.333 -16.5 -25s-6 -19.834 -6 -30.501c0 -21.333 7.5 -39.5 22.5 -54.5s33.167 -22.5 54.5 -22.5c10.667 0 20.834 2 30.501 6
s18 9.5 25 16.5s12.5 15.167 16.5 24.5s6 19.333 6 30zM398.998 1892c60.667 0 113.002 -6.66602 157.002 -19.999s80.833 -32 110.5 -56s52.667 -52.5 69 -85.5s27.833 -69.167 34.5 -108.5c-66 -20.667 -117 -61.167 -153 -121.5s-54 -137.166 -54 -230.499v-936
c3.33301 0.666992 7.16602 1.16699 11.499 1.5s8.16602 0.5 11.499 0.5c24.667 0 47.5 -4.33301 68.5 -13s39.167 -20.667 54.5 -36s27.333 -33.5 36 -54.5s13 -43.833 13 -68.5s-4.33301 -47.5 -13 -68.5s-20.667 -39.333 -36 -55s-33.5 -27.834 -54.5 -36.501
s-43.833 -13 -68.5 -13s-47.5 4.33301 -68.5 13s-39.333 20.834 -55 36.501s-27.834 34 -36.501 55s-13 43.833 -13 68.5v1108c0 93.333 17.333 168.666 52 225.999s86.334 99.333 155.001 126c-2 15.333 -7.16699 31.5 -15.5 48.5s-20.833 32.5 -37.5 46.5
s-39.167 25.5 -67.5 34.5s-63.5 13.5 -105.5 13.5c-47.333 0 -89.666 -6.83301 -126.999 -20.5s-64 -33.167 -80 -58.5c3.33301 1.33301 8.5 2.33301 15.5 3s13.167 1 18.5 1c24.667 0 47.5 -4.33301 68.5 -13s39.167 -20.667 54.5 -36s27.333 -33.5 36 -54.5
s13 -43.833 13 -68.5s-4.33301 -47.5 -13 -68.5s-20.667 -39.333 -36 -55s-33.5 -27.834 -54.5 -36.501s-43.833 -13 -68.5 -13c-30.667 0 -57.667 5.66699 -81 17s-42.666 26.833 -57.999 46.5s-26.833 43.167 -34.5 70.5s-11.5 57 -11.5 89c0 36 6.16699 73 18.5 111
s32.666 72.667 60.999 104s65.666 57 111.999 77s103.5 30 171.5 30zM298 1519c0 21.333 -7.66895 39.668 -23.002 55.001s-33.666 23 -54.999 23c-10.667 0 -20.667 -2 -30 -6s-17.5 -9.5 -24.5 -16.5s-12.5 -15.333 -16.5 -25s-6 -19.834 -6 -30.501
c0 -21.333 7.5 -39.5 22.5 -54.5s33.167 -22.5 54.5 -22.5c10.667 0 20.834 2 30.501 6s18 9.5 25 16.5s12.5 15.167 16.5 24.5s6 19.333 6 30z" />
    <glyph glyph-name="uni0E44" unicode="&#xe44;" horiz-adv-x="817" 
d="M700 163c0 21.333 -7.66895 39.668 -23.002 55.001s-33.666 23 -54.999 23c-10.667 0 -20.667 -2 -30 -6s-17.5 -9.5 -24.5 -16.5s-12.5 -15.333 -16.5 -25s-6 -19.834 -6 -30.501c0 -21.333 7.5 -39.5 22.5 -54.5s33.167 -22.5 54.5 -22.5c10.667 0 20.834 2 30.501 6
s18 9.5 25 16.5s12.5 15.167 16.5 24.5s6 19.333 6 30zM449.998 1649c0 42 -1.99902 75.0039 -5.99902 99.0039s-14.333 36 -31 36c-16 0 -27.167 -12 -33.5 -36s-12.166 -57 -17.499 -99l-16 -119c-4 -32 -9.5 -61.167 -16.5 -87.5s-16.5 -48.833 -28.5 -67.5
s-26.667 -33 -44 -43s-38.666 -15 -63.999 -15c-26 0 -47.833 5.16699 -65.5 15.5s-32.334 24.666 -44.001 42.999s-21 40.666 -28 66.999s-12.5 55.5 -16.5 87.5l-32 244c-3.33301 24.667 -9 47.167 -17 67.5s-16.667 37.166 -26 50.499h120
c8.66699 -13.333 15.834 -31.333 21.501 -54s10.167 -44.667 13.5 -66l34 -235c3.33301 -24.667 6.5 -44.334 9.5 -59.001s6 -26 9 -34s6.33301 -13.167 10 -15.5s7.5 -3.5 11.5 -3.5c3.33301 0 6.66602 1.33301 9.99902 4s6.66602 8 9.99902 16s6.5 19.333 9.5 34
s6.16699 34 9.5 58l18 138c4.66699 34.667 11.334 65.5 20.001 92.5s20.5 49.667 35.5 68s33.167 32.333 54.5 42s47 14.5 77 14.5c58.667 0 100.5 -18.833 125.5 -56.5s37.5 -91.167 37.5 -160.5v-1340c3.33301 0.666992 7.16602 1 11.499 1h11.5
c24.667 0 47.5 -4.33301 68.5 -13s39.167 -20.667 54.5 -36s27.333 -33.5 36 -54.5s13 -43.833 13 -68.5s-4.33301 -47.5 -13 -68.5s-20.667 -39.333 -36 -55s-33.5 -27.834 -54.5 -36.501s-43.833 -13 -68.5 -13s-47.5 4.33301 -68.5 13s-39.333 20.834 -55 36.501
s-27.834 34 -36.501 55s-13 43.833 -13 68.5v1485z" />
    <glyph glyph-name="uni0E45" unicode="&#xe45;" horiz-adv-x="932" 
d="M638 -410l0.00292969 1048c0 95.333 -22.333 164.5 -67 207.5s-110.667 64.5 -198 64.5c-30.667 0 -62.834 -3.5 -96.501 -10.5s-66.334 -16.333 -98.001 -28s-61.334 -24.667 -89.001 -39s-50.834 -28.5 -69.501 -42.5v170c18.667 12 40.834 23 66.501 33
s53.834 18.667 84.501 26s63.167 13.166 97.5 17.499s69.166 6.5 104.499 6.5c142.667 0 247.667 -32.5 315 -97.5s101 -166.833 101 -305.5v-1050h-151z" />
    <glyph glyph-name="uni0E46" unicode="&#xe46;" horiz-adv-x="909" 
d="M385 744l-137.001 158.995c-10.667 -7.33301 -20.5 -17.666 -29.5 -30.999s-17 -28.166 -24 -44.499s-12.5 -33.166 -16.5 -50.499s-6.66699 -34 -8 -50c6 3.33301 14.333 5.83301 25 7.5s19.667 2.5 27 2.5c24.667 0 47.5 -4.33301 68.5 -13s39.167 -20.667 54.5 -36
s27.333 -33.5 36 -54.5s13 -43.833 13 -68.5s-4.33301 -47.5 -13 -68.5s-20.667 -39.333 -36 -55s-33.5 -27.834 -54.5 -36.501s-43.833 -13 -68.5 -13c-30.667 0 -57.667 5.66699 -81 17s-42.666 26.833 -57.999 46.5s-26.833 43.167 -34.5 70.5s-11.5 57 -11.5 89
c0 46 4.83301 90.5 14.5 133.5s23.5 82.833 41.5 119.5s40 69.334 66 98.001s55 51.334 87 68.001l139 -165l138 165c31.333 -3.33301 61 -11.166 89 -23.499s52.667 -29.333 74 -51s38.333 -48 51 -79s19 -67.167 19 -108.5v-1182h-151v1178
c0 13.333 -1.66699 27.5 -5 42.5s-8.5 29 -15.5 42s-16 24.167 -27 33.5s-24.5 15 -40.5 17zM298.999 563.995c0 21.333 -7.66895 39.668 -23.002 55.001s-33.666 23 -54.999 23c-10.667 0 -20.667 -2 -30 -6s-17.5 -9.5 -24.5 -16.5s-12.5 -15.333 -16.5 -25
s-6 -19.834 -6 -30.501c0 -21.333 7.5 -39.5 22.5 -54.5s33.167 -22.5 54.5 -22.5c10.667 0 20.834 2 30.501 6s18 9.5 25 16.5s12.5 15.167 16.5 24.5s6 19.333 6 30z" />
    <glyph glyph-name="uni0E47" unicode="&#xe47;" 
d="M-259 1193c-25.333 0.666992 -46.1689 9.83691 -62.502 27.5039s-24.5 38.5 -24.5 62.5c0 23.333 7.83301 44 23.5 62s39.167 27 70.5 27s55.666 -9.83301 72.999 -29.5s26 -44.5 26 -74.5c0 -22.667 -4 -44.167 -12 -64.5s-19.667 -38.166 -35 -53.499
s-34.166 -27.666 -56.499 -36.999s-47.833 -14 -76.5 -14c-30 0 -56 6.66699 -78 20s-41.833 28.166 -59.5 44.499l-49.5 44.5c-15.333 13.333 -31.333 20 -48 20c-14 0 -26.167 -3.33301 -36.5 -10s-20 -15.834 -29 -27.501s-17.667 -25.334 -26 -41.001l-27.5 -50.5
c-25.333 11.333 -49 24.166 -71 38.499s-41.5 30.333 -58.5 48s-30.333 37.167 -40 58.5s-14.5 44.333 -14.5 69c0 35.333 6.66699 64.666 20 87.999s31.166 42.166 53.499 56.499s48.333 24.5 78 30.5s60.834 9 93.501 9h238c58.667 0 108.834 11.167 150.501 33.5
s75.167 45.5 100.5 69.5v-93c-25.333 -28 -56.333 -49.667 -93 -65s-75.334 -23 -116.001 -23h-305c-19.333 0 -37.333 -2.16699 -54 -6.5s-31.167 -10.833 -43.5 -19.5s-22.166 -19.667 -29.499 -33s-11 -29 -11 -47c0 -20.667 6.5 -39.667 19.5 -57
s31.167 -31.333 54.5 -42c20.667 30 43.334 54 68.001 72s55 27 91 27c28.667 0 54.5 -7 77.5 -21s44.333 -29.5 64 -46.5s38.5 -32.5 56.5 -46.5s36.667 -21 56 -21c11.333 0 20 1.5 26 4.5s11.667 6.5 17 10.5zM-293.003 1285c0 -13.333 3.66699 -24 11 -32
s16.666 -12 27.999 -12s20.666 4 27.999 12s11 17.667 11 29s-3.66699 21 -11 29s-16.666 12 -27.999 12s-20.666 -4 -27.999 -12s-11 -16.667 -11 -26z" />
    <glyph glyph-name="uni0E48" unicode="&#xe48;" 
d="M-280 1440h100v-330h-100v330z" />
    <glyph glyph-name="uni0E49" unicode="&#xe49;" 
d="M-546 1337c-3.33301 -6.66699 -7.83398 -13.8281 -13.501 -21.4951s-13 -14.667 -22 -21s-19.667 -11.666 -32 -15.999s-26.5 -6.5 -42.5 -6.5c-18 0 -34.5 3.16699 -49.5 9.5s-28 15.166 -39 26.499s-19.667 24.666 -26 39.999s-9.5 32 -9.5 50
c0 16 3.16699 31.333 9.5 46s15.5 27.834 27.5 39.501s27 20.834 45 27.501s38.667 10 62 10c24.667 0 47.5 -3.83301 68.5 -11.5s39 -18.834 54 -33.501s26.833 -32.834 35.5 -54.501s13 -46.5 13 -74.5c0 -30.667 -6.5 -58.834 -19.5 -84.501s-32.5 -47.834 -58.5 -66.501
c70.667 0 126.834 9.83301 168.501 29.5s73.334 45.167 95.001 76.5s35.667 66.166 42 104.499s10.166 76.5 11.499 114.5h115c-2 -30 -5.33301 -60.833 -10 -92.5s-12.5 -62.834 -23.5 -93.501s-26.333 -59.5 -46 -86.5s-45.667 -50.833 -78 -71.5s-72 -37 -119 -49
s-103.5 -18 -169.5 -18h-96v88c30.667 9.33301 56.167 26 76.5 50s30.5 53.667 30.5 89zM-702.001 1397.01c0 -15.333 5.5 -28.5 16.5 -39.5s24.167 -16.5 39.5 -16.5s28.5 5.5 39.5 16.5s16.5 24.167 16.5 39.5s-5.5 28.5 -16.5 39.5s-24.167 16.5 -39.5 16.5
s-28.5 -5.5 -39.5 -16.5s-16.5 -24.167 -16.5 -39.5z" />
    <glyph glyph-name="uni0E4A" unicode="&#xe4a;" 
d="M-732 1296c0 -16.667 0.998047 -30.6631 2.99805 -41.9961s6 -24 12 -38c0.666992 25.333 9.83398 46.166 27.501 62.499s38.5 24.5 62.5 24.5c23.333 0 44 -7.66699 62 -23s27 -39 27 -71s-9.83301 -56.5 -29.5 -73.5s-44.5 -25.5 -74.5 -25.5
c-23.333 0 -45.333 4.33301 -66 13s-38.667 21 -54 37s-27.333 35.5 -36 58.5s-13 48.833 -13 77.5c0 48 12.333 90.167 37 126.5s60 65.166 106 86.499l119 -102l115 102c46 -21.333 81.333 -49 106 -83s37 -75 37 -123c0 -18 -0.833008 -35.833 -2.5 -53.5
s-3.16699 -29.834 -4.5 -36.501c22.667 0 41.667 7.5 57 22.5s27.666 35.667 36.999 62s16.333 57.5 21 93.5s7.33398 75.333 8.00098 118h115l-8.5 -86.5c-3 -30.333 -8.16699 -60.166 -15.5 -89.499s-18 -57.5 -32 -84.5s-33.333 -50.833 -58 -71.5s-55.5 -37 -92.5 -49
s-82.5 -18 -136.5 -18c9.33301 30.667 16 60.667 20 90s6 54.666 6 75.999c0 34 -4.16699 61.5 -12.5 82.5s-24.166 37.833 -47.499 50.5l-112 -99l-115 99c-23.333 -12.667 -40.5 -28.834 -51.5 -48.501s-16.5 -41.167 -16.5 -64.5zM-669.002 1211c0 -11.333 4 -21 12 -29
s17.667 -12 29 -12s21 4 29 12s12 17.667 12 29s-4 21 -12 29s-17.667 12 -29 12s-21 -4 -29 -12s-12 -17.667 -12 -29z" />
    <glyph glyph-name="uni0E4B" unicode="&#xe4b;" 
d="M-270 1440h80v-127h127v-76h-127v-127h-80v127h-127v76h127v127z" />
    <glyph glyph-name="uni0E4C" unicode="&#xe4c;" 
d="M-410 1355c4.66699 -4 9.66602 -9.33105 14.999 -15.998s10.5 -14.667 15.5 -24s9.16699 -19.5 12.5 -30.5s5 -22.833 5 -35.5c0 -46.667 -14.5 -83.834 -43.5 -111.501s-69.833 -41.5 -122.5 -41.5c-52 0 -93.167 13.667 -123.5 41s-45.5 65 -45.5 113
c0 24.667 4.33301 47.667 13 69s21.834 39.833 39.501 55.5s39.334 28 65.001 37s55.5 13.5 89.5 13.5c22.667 0 43.334 -0.333008 62.001 -1l55 -2c18 -0.666992 37 -1.33398 57 -2.00098s42.667 -1 68 -1c46 0 81 12.667 105 38s39.667 61.333 47 108h133
c-5.33301 -30 -12.333 -58.5 -21 -85.5s-20.5 -50.667 -35.5 -71s-34 -36.5 -57 -48.5s-51.167 -18 -84.5 -18c-22.667 0 -46.834 0.666992 -72.501 2s-50.334 2.83301 -74.001 4.5l-63 4.5c-18.333 1.33301 -31.5 2 -39.5 2zM-606.001 1251
c0 -23.333 7.16699 -41.666 21.5 -54.999s33.166 -20 56.499 -20c21.333 0 39.166 6.66699 53.499 20s21.5 31.666 21.5 54.999c0 22.667 -7.16699 40.834 -21.5 54.501s-32.166 20.5 -53.499 20.5c-23.333 0 -42.166 -6.83301 -56.499 -20.5s-21.5 -31.834 -21.5 -54.501z
" />
    <glyph glyph-name="uni0E4D" unicode="&#xe4d;" 
d="M-160 1268c0 19.333 -6.66699 35.666 -20 48.999s-29.666 20 -48.999 20s-35.833 -6.66699 -49.5 -20s-20.5 -29.666 -20.5 -48.999s6.83301 -35.833 20.5 -49.5s30.167 -20.5 49.5 -20.5s35.666 6.83301 48.999 20.5s20 30.167 20 49.5zM-387 1268
c0 22 4.16699 42.667 12.5 62s19.5 36.166 33.5 50.499s30.667 25.666 50 33.999s40 12.5 62 12.5s42.667 -4.16699 62 -12.5s36.166 -19.666 50.499 -33.999s25.666 -31.166 33.999 -50.499s12.5 -40 12.5 -62s-4.16699 -42.667 -12.5 -62s-19.666 -36 -33.999 -50
s-31.166 -25.167 -50.499 -33.5s-40 -12.5 -62 -12.5s-42.667 4.16699 -62 12.5s-36 19.5 -50 33.5s-25.167 30.667 -33.5 50s-12.5 40 -12.5 62z" />
    <glyph glyph-name="uni0E4E" unicode="&#xe4e;" 
d="M-174 1296c-15.333 0 -33.8359 -0.667969 -55.5029 -2.00098s-42.334 -4.16602 -62.001 -8.49902s-36.5 -10.666 -50.5 -18.999s-21 -19.166 -21 -32.499c0 -14 6.83301 -25.333 20.5 -34s32.834 -13 57.501 -13c20.667 0 41.334 2 62.001 6s39.667 9 57 15v-103
c-14.667 -5.33301 -33 -9.33301 -55 -12s-43.333 -4 -64 -4c-25.333 0 -49 2.83301 -71 8.5s-41 13.834 -57 24.501s-28.667 23.667 -38 39s-14 32.333 -14 51c0 33.333 12.833 60.5 38.5 81.5s62.5 36.167 110.5 45.5c-8.66699 2.66699 -17.5 6.83398 -26.5 12.501
s-17.167 12.667 -24.5 21s-13.333 17.666 -18 27.999s-7 21.5 -7 33.5c0 25.333 6.33301 46.333 19 63s29.334 30.334 50.001 41.001s43.5 18.167 68.5 22.5s50.167 6.5 75.5 6.5c12.667 0 27.334 -1 44.001 -3s30 -4.66699 40 -8v-98
c-4 1.33301 -9.66699 2.66602 -17 3.99902s-15 2.5 -23 3.5s-16 1.66699 -24 2s-14.667 0.5 -20 0.5c-43.333 0 -73.833 -4.33301 -91.5 -13s-26.5 -19.334 -26.5 -32.001c0 -10.667 3.5 -19.334 10.5 -26.001s16.167 -11.834 27.5 -15.501s24.5 -6.16699 39.5 -7.5
s30.167 -2 45.5 -2v-76z" />
    <glyph glyph-name="uni0E4F" unicode="&#xe4f;" horiz-adv-x="1108" 
d="M92 453c0 63.333 12.167 123 36.5 179s57.333 104.833 99 146.5s90.667 74.5 147 98.5s116.5 36 180.5 36c63.333 0 123 -12 179 -36s104.833 -56.833 146.5 -98.5s74.667 -90.5 99 -146.5s36.5 -115.667 36.5 -179c0 -64 -12.167 -124.167 -36.5 -180.5
s-57.333 -105.333 -99 -147s-90.5 -74.667 -146.5 -99s-115.667 -36.5 -179 -36.5c-64 0 -124.167 12.167 -180.5 36.5s-105.333 57.333 -147 99s-74.667 90.667 -99 147s-36.5 116.5 -36.5 180.5zM213 453c0 -47.333 8.83301 -91.833 26.5 -133.5s41.834 -78 72.501 -109
s66.834 -55.5 108.501 -73.5s86.5 -27 134.5 -27c47.333 0 91.666 9 132.999 27s77.333 42.5 108 73.5s54.834 67.333 72.501 109s26.5 86.167 26.5 133.5s-8.83301 91.666 -26.5 132.999s-41.834 77.333 -72.501 108s-66.667 54.834 -108 72.501
s-85.666 26.5 -132.999 26.5c-48 0 -92.833 -8.83301 -134.5 -26.5s-77.834 -41.834 -108.501 -72.501s-54.834 -66.667 -72.501 -108s-26.5 -85.666 -26.5 -132.999zM403 453c0 20.667 4 40 12 58s18.833 33.833 32.5 47.5s29.834 24.334 48.501 32.001
s38.334 11.5 59.001 11.5s40 -3.83301 58 -11.5s33.833 -18.334 47.5 -32.001s24.5 -29.5 32.5 -47.5s12 -37.333 12 -58s-4 -40.334 -12 -59.001s-18.833 -34.834 -32.5 -48.501s-29.5 -24.5 -47.5 -32.5s-37.333 -12 -58 -12s-40.334 4 -59.001 12
s-34.834 18.833 -48.501 32.5s-24.5 29.834 -32.5 48.501s-12 38.334 -12 59.001z" />
    </font>
</defs>
</svg>
